<?xml version="1.0" encoding="utf-8"?>
<!-- Generator: Adobe Illustrator 18.1.0, SVG Export Plug-In . SVG Version: 6.00 Build 0)  -->
<!DOCTYPE svg PUBLIC "-//W3C//DTD SVG 1.1//EN" "http://www.w3.org/Graphics/SVG/1.1/DTD/svg11.dtd">
<svg version="1.1" id="Layer_1" xmlns="http://www.w3.org/2000/svg" xmlns:xlink="http://www.w3.org/1999/xlink" x="0px" y="0px"
	 viewBox="-367 364 805 805" enable-background="new -367 364 805 805" xml:space="preserve">
<path fill="#F05133" d="M438,1169h-805V364L438,1169z M-342,1144h720l-720-720V1144z"/>
<path fill="#F05133" d="M138,1056.5h-342.5V714L138,1056.5z M-179.5,1031.5H78L-179.5,774V1031.5z"/>
<rect x="-342" y="631.5" fill="#F05133" width="75" height="25"/>
<rect x="-342" y="731.5" fill="#F05133" width="50" height="25"/>
<rect x="-342" y="831.5" fill="#F05133" width="75" height="25"/>
<rect x="-342" y="931.5" fill="#F05133" width="50" height="25"/>
<rect x="-342" y="1031.5" fill="#F05133" width="75" height="25"/>
<path fill="#F05133" d="M438,949l-123.8-31.2l-2.5-2.5L-147,456.5l92.5-92.5l461.3,461.2L438,949z M326.8,895.3L403,914l-18.8-76.3
	L-54.5,399l-57.5,57.5L326.8,895.3z"/>
<rect x="-29.9" y="441.3" transform="matrix(-0.7071 -0.7071 0.7071 -0.7071 -379.2713 831.8192)" fill="#F05133" width="25" height="106.2"/>
</svg>
