<?xml version="1.0" encoding="utf-8"?>
<!-- Generator: Adobe Illustrator 18.1.1, SVG Export Plug-In . SVG Version: 6.00 Build 0)  -->
<!DOCTYPE svg PUBLIC "-//W3C//DTD SVG 1.1//EN" "http://www.w3.org/Graphics/SVG/1.1/DTD/svg11.dtd">
<svg version="1.1" id="Layer_1" xmlns="http://www.w3.org/2000/svg" xmlns:xlink="http://www.w3.org/1999/xlink" x="0px" y="0px"
	 viewBox="0 0 184.5 262.2" enable-background="new 0 0 184.5 262.2" xml:space="preserve">
<g>
	
		<rect x="2.4" y="16.4" fill="#BEECD9" stroke="#BEECD9" stroke-width="2" stroke-linejoin="round" stroke-miterlimit="10" width="181.1" height="244.9"/>
	
		<rect x="1" y="14.4" fill="#FFFFFF" stroke="#BEECD9" stroke-width="2" stroke-linejoin="round" stroke-miterlimit="10" width="181.1" height="244.9"/>
	<g>
		<g>
			
				<rect x="55.5" y="141.8" fill="#BEECD9" stroke="#BEECD9" stroke-width="2" stroke-linejoin="round" stroke-miterlimit="10" width="105" height="5.5"/>
			
				<rect x="55.5" y="151.8" fill="#FFFFFF" stroke="#BEECD9" stroke-width="2" stroke-linejoin="round" stroke-miterlimit="10" width="51.4" height="5.5"/>
		</g>
		<g>
			<path fill="#BEECD9" d="M35.5,149.5c0,1.7-0.4,3.3-1.3,4.8s-2,2.6-3.5,3.5c-1.5,0.8-3,1.3-4.8,1.3s-3.3-0.4-4.8-1.3
				c-1.5-0.8-2.6-2-3.5-3.5s-1.3-3-1.3-4.8s0.4-3.3,1.3-4.8s2-2.6,3.5-3.5c1.5-0.8,3-1.3,4.8-1.3s3.3,0.4,4.8,1.3
				c1.5,0.8,2.6,2,3.5,3.5S35.5,147.8,35.5,149.5z"/>
			<g>
				<path fill="#FFFFFF" d="M23.8,151.3c0.6,0.4,1.2,0.7,1.8,0.7c0.7,0,1.2-0.3,1.2-0.9c0-0.6-0.4-0.9-1.2-1c-0.2,0-0.6,0-0.7,0.1
					l0-1.4c0.9,0,1.7-0.4,1.7-1.1c0-0.5-0.4-0.7-0.9-0.7c-0.6,0-1.1,0.2-1.6,0.5l-0.7-1.1c0.8-0.5,1.5-0.8,2.6-0.8
					c1.3,0,2.3,0.7,2.3,1.9c0,0.8-0.5,1.6-1.5,1.9v0c1.1,0.1,1.8,0.8,1.8,1.9c0,1.6-1.2,2.4-2.8,2.4c-1,0-2-0.3-2.7-1.1L23.8,151.3z
					"/>
			</g>
		</g>
	</g>
	<g>
		<g>
			
				<rect x="55.5" y="185.1" fill="#BEECD9" stroke="#BEECD9" stroke-width="2" stroke-linejoin="round" stroke-miterlimit="10" width="105" height="5.5"/>
			
				<rect x="55.5" y="195.1" fill="#FFFFFF" stroke="#BEECD9" stroke-width="2" stroke-linejoin="round" stroke-miterlimit="10" width="51.4" height="5.5"/>
		</g>
		<g>
			<path fill="#BEECD9" d="M35.5,192.8c0,1.7-0.4,3.3-1.3,4.8c-0.8,1.5-2,2.6-3.5,3.5c-1.5,0.8-3,1.3-4.8,1.3s-3.3-0.4-4.8-1.3
				c-1.5-0.8-2.6-2-3.5-3.5c-0.8-1.5-1.3-3-1.3-4.8c0-1.7,0.4-3.3,1.3-4.8c0.8-1.5,2-2.6,3.5-3.5c1.5-0.8,3-1.3,4.8-1.3
				s3.3,0.4,4.8,1.3c1.5,0.8,2.6,2,3.5,3.5C35.1,189.5,35.5,191.1,35.5,192.8z"/>
			<g>
				<path fill="#FFFFFF" d="M26.5,195.2H23v-1.4l3-4.9h2.3v4.8H29v1.5h-0.8v1.6h-1.8V195.2z M26.5,193.7v-3.2l-1.9,3.2H26.5z"/>
			</g>
		</g>
	</g>
	<g>
		<g>
			
				<rect x="55.5" y="226.7" fill="#BEECD9" stroke="#BEECD9" stroke-width="2" stroke-linejoin="round" stroke-miterlimit="10" width="105" height="5.5"/>
			
				<rect x="55.5" y="236.7" fill="#FFFFFF" stroke="#BEECD9" stroke-width="2" stroke-linejoin="round" stroke-miterlimit="10" width="51.4" height="5.5"/>
		</g>
		<g>
			<path fill="#BEECD9" d="M35.5,234.4c0,1.7-0.4,3.3-1.3,4.8c-0.8,1.5-2,2.6-3.5,3.5c-1.5,0.8-3,1.3-4.8,1.3s-3.3-0.4-4.8-1.3
				c-1.5-0.8-2.6-2-3.5-3.5c-0.8-1.5-1.3-3-1.3-4.8c0-1.7,0.4-3.3,1.3-4.8c0.8-1.5,2-2.6,3.5-3.5c1.5-0.8,3-1.3,4.8-1.3
				s3.3,0.4,4.8,1.3c1.5,0.8,2.6,2,3.5,3.5C35.1,231.1,35.5,232.7,35.5,234.4z"/>
			<g>
				<path fill="#FFFFFF" d="M23.9,230.5h4.3l-0.1,1.7h-2.8l-0.1,1.5c0.3-0.2,0.7-0.4,1.3-0.4c1.3,0,2.2,0.8,2.2,2.5
					c0,1.8-1.3,2.8-2.8,2.8c-0.9,0-1.9-0.3-2.6-0.9l0.6-1.2c0.7,0.4,1.2,0.5,1.8,0.5c0.7,0,1.3-0.3,1.3-1.3c0-0.7-0.3-1.1-0.9-1.1
					c-0.4,0-0.7,0.2-0.9,0.4l-0.1,0.6h-1.5L23.9,230.5z"/>
			</g>
		</g>
	</g>
	<rect x="1" y="14.4" fill="#BEECD9" width="181.1" height="25.6"/>
	<g>
		<circle fill="#16C493" cx="91.5" cy="14" r="14"/>
		<path fill="#FFFFFF" d="M97,14.7h-7.4c-0.3,0-0.6-0.3-0.6-0.6s0.3-0.6,0.6-0.6H97c0.3,0,0.6,0.3,0.6,0.6S97.4,14.7,97,14.7z
			 M97,10.4h-7.4c-0.3,0-0.6-0.3-0.6-0.6s0.3-0.6,0.6-0.6H97c0.3,0,0.6,0.3,0.6,0.6S97.4,10.4,97,10.4z M86.6,19.7
			c-0.7,0-1.2-0.6-1.2-1.2s0.6-1.2,1.2-1.2c0.7,0,1.2,0.6,1.2,1.2S87.3,19.7,86.6,19.7z M86.6,15.4c-0.7,0-1.2-0.6-1.2-1.2
			s0.6-1.2,1.2-1.2c0.7,0,1.2,0.6,1.2,1.2S87.3,15.4,86.6,15.4z M86.6,11.1c-0.7,0-1.2-0.6-1.2-1.2s0.6-1.2,1.2-1.2
			c0.7,0,1.2,0.6,1.2,1.2S87.3,11.1,86.6,11.1z M89.7,17.8H97c0.3,0,0.6,0.3,0.6,0.6c0,0.3-0.3,0.6-0.6,0.6h-7.4
			c-0.3,0-0.6-0.3-0.6-0.6C89.1,18.1,89.3,17.8,89.7,17.8z"/>
	</g>
	<g>
		<g>
			
				<rect x="55.5" y="100.3" fill="#BEECD9" stroke="#BEECD9" stroke-width="2" stroke-linejoin="round" stroke-miterlimit="10" width="105" height="5.5"/>
			
				<rect x="55.5" y="110.3" fill="#FFFFFF" stroke="#BEECD9" stroke-width="2" stroke-linejoin="round" stroke-miterlimit="10" width="51.4" height="5.5"/>
		</g>
		<g>
			<circle fill="#FF8A33" cx="26.6" cy="107.9" r="9.5"/>
			<path fill="#FFFFFF" d="M25.2,113.1c-0.3,0-0.6-0.1-0.8-0.4l-2.6-3.5c-0.3-0.4-0.3-1.1,0.2-1.4c0.4-0.3,1.1-0.3,1.4,0.2l1.7,2.3
				l4.3-6.9c0.3-0.5,0.9-0.6,1.4-0.3c0.5,0.3,0.6,0.9,0.3,1.4l-5.1,8.2C25.8,112.9,25.5,113.1,25.2,113.1
				C25.2,113.1,25.2,113.1,25.2,113.1L25.2,113.1z"/>
		</g>
	</g>
	<g>
		<g>
			
				<rect x="55.5" y="56.6" fill="#BEECD9" stroke="#BEECD9" stroke-width="2" stroke-linejoin="round" stroke-miterlimit="10" width="105" height="5.5"/>
			
				<rect x="55.5" y="66.6" fill="#FFFFFF" stroke="#BEECD9" stroke-width="2" stroke-linejoin="round" stroke-miterlimit="10" width="51.4" height="5.5"/>
		</g>
		<g>
			<circle fill="#FF8A33" cx="26.6" cy="63.9" r="9.5"/>
			<path fill="#FFFFFF" d="M25.2,69.5c-0.3,0-0.6-0.1-0.8-0.4l-2.6-3.5c-0.3-0.4-0.3-1.1,0.2-1.4c0.4-0.3,1.1-0.3,1.4,0.2l1.7,2.3
				l4.3-6.9c0.3-0.5,0.9-0.6,1.4-0.3c0.5,0.3,0.6,0.9,0.3,1.4L26,69C25.8,69.3,25.5,69.5,25.2,69.5C25.2,69.5,25.2,69.5,25.2,69.5
				L25.2,69.5z"/>
		</g>
	</g>
</g>
</svg>
