<?xml version="1.0" encoding="utf-8"?>
<!-- Generator: Adobe Illustrator 18.1.0, SVG Export Plug-In . SVG Version: 6.00 Build 0)  -->
<!DOCTYPE svg PUBLIC "-//W3C//DTD SVG 1.1//EN" "http://www.w3.org/Graphics/SVG/1.1/DTD/svg11.dtd">
<svg version="1.1" id="Layer_1" xmlns="http://www.w3.org/2000/svg" xmlns:xlink="http://www.w3.org/1999/xlink" x="0px" y="0px"
	 viewBox="-383 145 512 512" enable-background="new -383 145 512 512" xml:space="preserve">
<path fill="#AD3A25" d="M-127,145c-141.4,0-256,114.6-256,256s114.6,256,256,256s256-114.6,256-256S14.4,145-127,145z M-13.1,342.6
	c0.1,2.5,0.2,5.1,0.2,7.6c0,77.6-59.1,167.1-167.1,167.1c-33.2,0-64.1-9.7-90-26.4c4.6,0.5,9.3,0.8,14,0.8c27.5,0,52.9-9.4,73-25.1
	c-25.7-0.5-47.4-17.5-54.9-40.8c3.6,0.7,7.3,1.1,11.1,1.1c5.4,0,10.5-0.7,15.5-2.1c-26.9-5.4-47.1-29.1-47.1-57.6c0-0.2,0-0.5,0-0.7
	c7.9,4.4,17,7,26.6,7.3c-15.8-10.5-26.1-28.5-26.1-48.9c0-10.8,2.9-20.9,8-29.5c29,35.5,72.3,58.9,121.1,61.4
	c-1-4.3-1.5-8.8-1.5-13.4c0-32.4,26.3-58.7,58.7-58.7c16.9,0,32.2,7.1,42.9,18.5c13.4-2.6,26-7.5,37.3-14.3
	c-4.4,13.7-13.7,25.2-25.8,32.5c11.9-1.4,23.2-4.6,33.7-9.2C8.3,324-1.7,334.3-13.1,342.6z"/>
</svg>
