<?xml version="1.0" encoding="utf-8"?>
<!-- Generator: Adobe Illustrator 18.1.0, SVG Export Plug-In . SVG Version: 6.00 Build 0)  -->
<!DOCTYPE svg PUBLIC "-//W3C//DTD SVG 1.1//EN" "http://www.w3.org/Graphics/SVG/1.1/DTD/svg11.dtd">
<svg version="1.1" id="Layer_1" xmlns="http://www.w3.org/2000/svg" xmlns:xlink="http://www.w3.org/1999/xlink" x="0px" y="0px"
	 viewBox="-623 385 32 32" enable-background="new -623 385 32 32" xml:space="preserve">
<g>
	<line opacity="0.3" fill="none" stroke="#449FDB" enable-background="new    " x1="-623" y1="1393" x2="721" y2="1393"/>
</g>
<path fill="#F05133" d="M-592.2,392.3l-11.5-6.5c-1.6-0.9-4.3-0.9-5.8,0l-11.5,6.5c-0.9,0.5-1.4,1.2-1.4,2c0,0.8,0.5,1.5,1.4,2
	l11.5,6.5c0.8,0.4,1.8,0.7,2.9,0.7c1.1,0,2.1-0.2,2.9-0.7l11.5-6.5c0.9-0.5,1.4-1.2,1.4-2C-590.9,393.5-591.4,392.8-592.2,392.3z
	 M-592.8,395.3l-11.5,6.5c-1.2,0.7-3.6,0.7-4.8,0l-11.5-6.5c-0.5-0.3-0.8-0.7-0.8-1s0.3-0.7,0.8-1l11.5-6.5c0.6-0.4,1.5-0.5,2.4-0.5
	c0.9,0,1.8,0.2,2.4,0.5l11.5,6.5c0.5,0.3,0.8,0.7,0.8,1C-591.9,394.6-592.2,395-592.8,395.3z M-592.2,399.1
	c-0.3-0.1-0.6-0.1-0.7,0.2c-0.1,0.3-0.1,0.6,0.2,0.7c0.5,0.3,0.8,0.7,0.8,1s-0.3,0.7-0.8,1l-11.5,6.5c-1.3,0.7-3.5,0.7-4.8,0
	l-11.5-6.5c-0.5-0.3-0.8-0.7-0.8-1s0.3-0.7,0.8-1c0.3-0.1,0.3-0.5,0.2-0.7c-0.1-0.3-0.5-0.3-0.7-0.2c-0.9,0.5-1.4,1.2-1.4,2
	c0,0.8,0.5,1.5,1.4,2l11.5,6.5c0.8,0.5,1.9,0.7,2.9,0.7c1.1,0,2.1-0.2,2.9-0.7l11.5-6.5c0.9-0.5,1.4-1.2,1.4-2
	C-590.9,400.3-591.4,399.6-592.2,399.1z M-592.2,405.8c-0.3-0.1-0.6-0.1-0.7,0.2c-0.1,0.3-0.1,0.6,0.2,0.7c0.5,0.3,0.8,0.7,0.8,1
	s-0.3,0.7-0.8,1l-11.5,6.5c-1.3,0.7-3.5,0.7-4.8,0l-11.5-6.5c-0.5-0.3-0.8-0.7-0.8-1c0-0.4,0.3-0.7,0.8-1c0.3-0.1,0.3-0.5,0.2-0.7
	c-0.1-0.3-0.5-0.3-0.7-0.2c-0.9,0.5-1.4,1.2-1.4,2s0.5,1.5,1.4,2l11.5,6.5c0.8,0.5,1.9,0.7,2.9,0.7c1.1,0,2.1-0.2,2.9-0.7l11.5-6.5
	c0.9-0.5,1.4-1.2,1.4-2C-590.9,407-591.4,406.3-592.2,405.8z"/>
</svg>
