<?xml version="1.0" encoding="utf-8"?>
<!-- Generator: Adobe Illustrator 18.1.1, SVG Export Plug-In . SVG Version: 6.00 Build 0)  -->
<!DOCTYPE svg PUBLIC "-//W3C//DTD SVG 1.1//EN" "http://www.w3.org/Graphics/SVG/1.1/DTD/svg11.dtd">
<svg version="1.1" id="Layer_1" xmlns="http://www.w3.org/2000/svg" xmlns:xlink="http://www.w3.org/1999/xlink" x="0px" y="0px"
	 viewBox="0 0 278.4 176.5" enable-background="new 0 0 278.4 176.5" xml:space="preserve">
<g>
	
		<line fill="none" stroke="#BEECD9" stroke-linecap="round" stroke-linejoin="round" stroke-miterlimit="10" x1="121.1" y1="176" x2="130.6" y2="168"/>
	
		<line fill="none" stroke="#BEECD9" stroke-linecap="round" stroke-linejoin="round" stroke-miterlimit="10" x1="148.9" y1="167.5" x2="148.9" y2="174.5"/>
	
		<rect x="245.4" y="64.5" fill="none" stroke="#16C493" stroke-width="2" stroke-linecap="round" stroke-linejoin="round" stroke-miterlimit="10" width="12" height="96.5"/>
	
		<rect x="93.4" y="51.5" fill="#BEECD9" stroke="#BEECD9" stroke-width="2" stroke-linejoin="round" stroke-miterlimit="10" width="136" height="103"/>
	
		<line fill="none" stroke="#BEECD9" stroke-linecap="round" stroke-linejoin="round" stroke-miterlimit="10" x1="117.4" y1="35" x2="150.4" y2="35"/>
	<g>
		
			<polygon fill="none" stroke="#16C493" stroke-width="2" stroke-linecap="round" stroke-linejoin="round" stroke-miterlimit="10" points="
			23.7,83.2 81,83.2 81,25.9 		"/>
		
			<polygon fill="none" stroke="#BEECD9" stroke-width="2" stroke-linecap="round" stroke-linejoin="round" stroke-miterlimit="10" points="
			73.1,75.5 43.6,75.5 73.1,45.4 		"/>
		<g>
			
				<line fill="none" stroke="#16C493" stroke-width="2" stroke-linecap="round" stroke-linejoin="round" stroke-miterlimit="10" x1="55" y1="56.9" x2="52.9" y2="54.8"/>
			
				<line fill="none" stroke="#16C493" stroke-width="2" stroke-linecap="round" stroke-linejoin="round" stroke-miterlimit="10" x1="44.4" y1="67.5" x2="42.3" y2="65.4"/>
			
				<line fill="none" stroke="#16C493" stroke-width="2" stroke-linecap="round" stroke-linejoin="round" stroke-miterlimit="10" x1="65.6" y1="46.3" x2="63.5" y2="44.2"/>
			
				<line fill="none" stroke="#16C493" stroke-width="2" stroke-linecap="round" stroke-linejoin="round" stroke-miterlimit="10" x1="76.2" y1="35.7" x2="74.1" y2="33.6"/>
			
				<line fill="none" stroke="#16C493" stroke-linecap="round" stroke-linejoin="round" stroke-miterlimit="10" x1="66.7" y1="42.4" x2="66" y2="41.7"/>
			
				<line fill="none" stroke="#16C493" stroke-linecap="round" stroke-linejoin="round" stroke-miterlimit="10" x1="69.5" y1="39.6" x2="68.8" y2="38.9"/>
			
				<line fill="none" stroke="#16C493" stroke-linecap="round" stroke-linejoin="round" stroke-miterlimit="10" x1="61.8" y1="47.4" x2="61" y2="46.6"/>
			
				<line fill="none" stroke="#16C493" stroke-linecap="round" stroke-linejoin="round" stroke-miterlimit="10" x1="72.4" y1="36.7" x2="71.7" y2="36"/>
			
				<line fill="none" stroke="#16C493" stroke-linecap="round" stroke-linejoin="round" stroke-miterlimit="10" x1="56.1" y1="53" x2="55.4" y2="52.3"/>
			
				<line fill="none" stroke="#16C493" stroke-linecap="round" stroke-linejoin="round" stroke-miterlimit="10" x1="58.9" y1="50.2" x2="58.2" y2="49.5"/>
			
				<line fill="none" stroke="#16C493" stroke-linecap="round" stroke-linejoin="round" stroke-miterlimit="10" x1="45.5" y1="63.6" x2="44.8" y2="62.9"/>
			
				<line fill="none" stroke="#16C493" stroke-linecap="round" stroke-linejoin="round" stroke-miterlimit="10" x1="48.3" y1="60.8" x2="47.6" y2="60.1"/>
			
				<line fill="none" stroke="#16C493" stroke-linecap="round" stroke-linejoin="round" stroke-miterlimit="10" x1="51.1" y1="58" x2="50.4" y2="57.2"/>
			
				<line fill="none" stroke="#16C493" stroke-linecap="round" stroke-linejoin="round" stroke-miterlimit="10" x1="40.5" y1="68.6" x2="39.8" y2="67.9"/>
			
				<line fill="none" stroke="#16C493" stroke-linecap="round" stroke-linejoin="round" stroke-miterlimit="10" x1="37.7" y1="71.4" x2="37" y2="70.7"/>
			
				<line fill="none" stroke="#16C493" stroke-linecap="round" stroke-linejoin="round" stroke-miterlimit="10" x1="34.9" y1="74.2" x2="34.2" y2="73.5"/>
			
				<line fill="none" stroke="#16C493" stroke-width="2" stroke-linecap="round" stroke-linejoin="round" stroke-miterlimit="10" x1="33.8" y1="78.1" x2="31.7" y2="76"/>
		</g>
	</g>
	<path fill="none" stroke="#16C493" stroke-width="2" stroke-linecap="round" stroke-linejoin="round" stroke-miterlimit="10" d="
		M150.5,31.5v7h-37c-1.1,0-2-0.9-2-2v-3c0-1.1,0.9-2,2-2H150.5z"/>
	
		<polygon fill="none" stroke="#16C493" stroke-width="2" stroke-linecap="round" stroke-linejoin="round" stroke-miterlimit="10" points="
		150.4,38.5 150.4,31.5 156.7,35 	"/>
	
		<line fill="none" stroke="#16C493" stroke-width="2" stroke-linecap="round" stroke-linejoin="round" stroke-miterlimit="10" x1="116.4" y1="38.5" x2="116.4" y2="31.5"/>
	<g>
		
			<line fill="none" stroke="#16C493" stroke-width="2" stroke-linecap="round" stroke-linejoin="round" stroke-miterlimit="10" x1="249.4" y1="116.5" x2="246.4" y2="116.5"/>
		
			<line fill="none" stroke="#16C493" stroke-width="2" stroke-linecap="round" stroke-linejoin="round" stroke-miterlimit="10" x1="249.4" y1="136.5" x2="246.4" y2="136.5"/>
		
			<line fill="none" stroke="#16C493" stroke-width="2" stroke-linecap="round" stroke-linejoin="round" stroke-miterlimit="10" x1="249.4" y1="97.5" x2="246.4" y2="97.5"/>
		
			<line fill="none" stroke="#16C493" stroke-width="2" stroke-linecap="round" stroke-linejoin="round" stroke-miterlimit="10" x1="249.4" y1="78.5" x2="246.4" y2="78.5"/>
		
			<line fill="none" stroke="#16C493" stroke-linecap="round" stroke-linejoin="round" stroke-miterlimit="10" x1="247.4" y1="93" x2="246.4" y2="93"/>
		
			<line fill="none" stroke="#16C493" stroke-linecap="round" stroke-linejoin="round" stroke-miterlimit="10" x1="247.4" y1="103" x2="246.4" y2="103"/>
		
			<line fill="none" stroke="#16C493" stroke-linecap="round" stroke-linejoin="round" stroke-miterlimit="10" x1="247.4" y1="83" x2="246.4" y2="83"/>
		
			<line fill="none" stroke="#16C493" stroke-linecap="round" stroke-linejoin="round" stroke-miterlimit="10" x1="247.4" y1="112" x2="246.4" y2="112"/>
		
			<line fill="none" stroke="#16C493" stroke-linecap="round" stroke-linejoin="round" stroke-miterlimit="10" x1="247.4" y1="131" x2="246.4" y2="131"/>
		
			<line fill="none" stroke="#16C493" stroke-linecap="round" stroke-linejoin="round" stroke-miterlimit="10" x1="247.4" y1="122" x2="246.4" y2="122"/>
		
			<line fill="none" stroke="#16C493" stroke-linecap="round" stroke-linejoin="round" stroke-miterlimit="10" x1="247.4" y1="141" x2="246.4" y2="141"/>
		
			<line fill="none" stroke="#16C493" stroke-linecap="round" stroke-linejoin="round" stroke-miterlimit="10" x1="247.4" y1="146" x2="246.4" y2="146"/>
		
			<line fill="none" stroke="#16C493" stroke-linecap="round" stroke-linejoin="round" stroke-miterlimit="10" x1="247.4" y1="151" x2="246.4" y2="151"/>
		
			<line fill="none" stroke="#16C493" stroke-width="2" stroke-linecap="round" stroke-linejoin="round" stroke-miterlimit="10" x1="249.4" y1="155.5" x2="246.4" y2="155.5"/>
		
			<line fill="none" stroke="#16C493" stroke-linecap="round" stroke-linejoin="round" stroke-miterlimit="10" x1="247.4" y1="127" x2="246.4" y2="127"/>
		
			<line fill="none" stroke="#16C493" stroke-linecap="round" stroke-linejoin="round" stroke-miterlimit="10" x1="247.4" y1="107" x2="246.4" y2="107"/>
		
			<line fill="none" stroke="#16C493" stroke-linecap="round" stroke-linejoin="round" stroke-miterlimit="10" x1="247.4" y1="88" x2="246.4" y2="88"/>
	</g>
	<g>
		<path fill="none" stroke="#16C493" stroke-width="2" stroke-linecap="round" stroke-linejoin="round" stroke-miterlimit="10" d="
			M275.1,132h-7V89.5c0-1.1,0.9-2,2-2h3c1.1,0,2,0.9,2,2V132z"/>
		<path fill="none" stroke="#16C493" stroke-width="2" stroke-linecap="round" stroke-linejoin="round" stroke-miterlimit="10" d="
			M274.6,135h-6v-1c0-1.1,0.9-2,2-2h2c1.1,0,2,0.9,2,2V135z"/>
		
			<line fill="none" stroke="#16C493" stroke-width="2" stroke-linecap="round" stroke-linejoin="round" stroke-miterlimit="10" x1="268.4" y1="99.5" x2="275.4" y2="99.5"/>
		
			<line fill="none" stroke="#16C493" stroke-width="2" stroke-linecap="round" stroke-linejoin="round" stroke-miterlimit="10" x1="277.4" y1="91.5" x2="277.4" y2="104.5"/>
	</g>
	
		<rect x="90.4" y="48.5" fill="#FFFFFF" stroke="#BEECD9" stroke-width="2" stroke-linejoin="round" stroke-miterlimit="10" width="136" height="103"/>
	
		<line fill="none" stroke="#BEECD9" stroke-width="2" stroke-linejoin="round" stroke-miterlimit="10" x1="91.4" y1="56.5" x2="226.4" y2="56.5"/>
	
		<line fill="none" stroke="#BEECD9" stroke-width="2" stroke-linecap="round" stroke-linejoin="round" stroke-miterlimit="10" x1="105.4" y1="52.5" x2="222.4" y2="52.5"/>
	<path fill="none" stroke="#16C493" stroke-width="2" stroke-linecap="round" stroke-linejoin="round" stroke-miterlimit="10" d="
		M139.6,167.5h35c1.1,0,2,0.9,2,2v4c0,1.1-0.9,2-2,2h-35"/>
	
		<polyline fill="none" stroke="#16C493" stroke-width="2" stroke-linecap="round" stroke-linejoin="round" stroke-miterlimit="10" points="
		136.4,175.5 117.1,175.5 126.6,167.5 136.4,167.5 	"/>
	
		<line fill="none" stroke="#BEECD9" stroke-linecap="round" stroke-linejoin="round" stroke-miterlimit="10" x1="137.9" y1="167.5" x2="137.9" y2="174.5"/>
	<path fill="none" stroke="#16C493" stroke-width="2" stroke-linecap="round" stroke-linejoin="round" stroke-miterlimit="10" d="
		M140.4,167.5h-4c-2.2,0-4,1.8-4,4s1.8,4,4,4h4"/>
	
		<rect x="100.4" y="70.5" fill="none" stroke="#16C493" stroke-width="2" stroke-linecap="round" stroke-linejoin="round" stroke-miterlimit="10" width="116" height="36"/>
	
		<line fill="none" stroke="#BEECD9" stroke-width="2" stroke-linecap="round" stroke-linejoin="round" stroke-miterlimit="10" x1="108.4" y1="63.5" x2="117.4" y2="63.5"/>
	<g>
		
			<line fill="none" stroke="#BEECD9" stroke-width="2" stroke-linecap="round" stroke-linejoin="round" stroke-miterlimit="10" x1="211.4" y1="63.5" x2="216.4" y2="63.5"/>
		
			<line fill="none" stroke="#BEECD9" stroke-width="2" stroke-linecap="round" stroke-linejoin="round" stroke-miterlimit="10" x1="203.4" y1="63.5" x2="208.4" y2="63.5"/>
		
			<line fill="none" stroke="#BEECD9" stroke-width="2" stroke-linecap="round" stroke-linejoin="round" stroke-miterlimit="10" x1="195.4" y1="63.5" x2="200.4" y2="63.5"/>
		
			<line fill="none" stroke="#BEECD9" stroke-width="2" stroke-linecap="round" stroke-linejoin="round" stroke-miterlimit="10" x1="187.4" y1="63.5" x2="192.4" y2="63.5"/>
	</g>
	<g>
		
			<rect x="141.7" y="112.5" fill="none" stroke="#BEECD9" stroke-width="2" stroke-linejoin="round" stroke-miterlimit="10" width="13" height="15"/>
		
			<line fill="none" stroke="#BEECD9" stroke-width="2" stroke-linecap="round" stroke-linejoin="round" stroke-miterlimit="10" x1="159.4" y1="112.5" x2="175.4" y2="112.5"/>
		
			<line fill="none" stroke="#BEECD9" stroke-width="2" stroke-linecap="round" stroke-linejoin="round" stroke-miterlimit="10" x1="159.4" y1="117.5" x2="175.4" y2="117.5"/>
		
			<line fill="none" stroke="#BEECD9" stroke-width="2" stroke-linecap="round" stroke-linejoin="round" stroke-miterlimit="10" x1="159.4" y1="122.5" x2="175.4" y2="122.5"/>
		
			<line fill="none" stroke="#BEECD9" stroke-width="2" stroke-linecap="round" stroke-linejoin="round" stroke-miterlimit="10" x1="159.4" y1="127.5" x2="175.4" y2="127.5"/>
		
			<line fill="none" stroke="#BEECD9" stroke-width="2" stroke-linecap="round" stroke-linejoin="round" stroke-miterlimit="10" x1="141.4" y1="132.5" x2="175.4" y2="132.5"/>
		
			<line fill="none" stroke="#BEECD9" stroke-width="2" stroke-linecap="round" stroke-linejoin="round" stroke-miterlimit="10" x1="141.4" y1="137.5" x2="175.4" y2="137.5"/>
		
			<line fill="none" stroke="#BEECD9" stroke-width="2" stroke-linecap="round" stroke-linejoin="round" stroke-miterlimit="10" x1="141.4" y1="142.5" x2="175.4" y2="142.5"/>
	</g>
	<g>
		
			<line fill="none" stroke="#BEECD9" stroke-width="2" stroke-linecap="round" stroke-linejoin="round" stroke-miterlimit="10" x1="182.4" y1="112.5" x2="216.4" y2="112.5"/>
		
			<line fill="none" stroke="#BEECD9" stroke-width="2" stroke-linecap="round" stroke-linejoin="round" stroke-miterlimit="10" x1="182.4" y1="117.5" x2="216.4" y2="117.5"/>
		
			<line fill="none" stroke="#BEECD9" stroke-width="2" stroke-linecap="round" stroke-linejoin="round" stroke-miterlimit="10" x1="182.4" y1="122.5" x2="216.4" y2="122.5"/>
		
			<line fill="none" stroke="#BEECD9" stroke-width="2" stroke-linecap="round" stroke-linejoin="round" stroke-miterlimit="10" x1="182.4" y1="127.5" x2="216.4" y2="127.5"/>
		
			<line fill="none" stroke="#BEECD9" stroke-width="2" stroke-linecap="round" stroke-linejoin="round" stroke-miterlimit="10" x1="182.4" y1="132.5" x2="216.4" y2="132.5"/>
		
			<line fill="none" stroke="#BEECD9" stroke-width="2" stroke-linecap="round" stroke-linejoin="round" stroke-miterlimit="10" x1="182.4" y1="137.5" x2="216.4" y2="137.5"/>
		
			<line fill="none" stroke="#BEECD9" stroke-width="2" stroke-linecap="round" stroke-linejoin="round" stroke-miterlimit="10" x1="182.4" y1="142.5" x2="216.4" y2="142.5"/>
	</g>
	<circle fill="#BEECD9" cx="102.4" cy="63.5" r="3"/>
	<circle fill="none" stroke="#BEECD9" stroke-linejoin="round" stroke-miterlimit="10" cx="251.4" cy="70.5" r="2"/>
	<g>
		<polyline fill="none" stroke="#BEECD9" stroke-width="2" stroke-linejoin="round" stroke-miterlimit="10" points="115.6,134.5 
			128,122.1 135.4,129.5 		"/>
		<polyline fill="none" stroke="#BEECD9" stroke-width="2" stroke-linejoin="round" stroke-miterlimit="10" points="100.4,141.5 
			111.8,130.1 124.2,142.5 		"/>
		
			<rect x="100.4" y="112.5" fill="none" stroke="#16C493" stroke-width="2" stroke-linecap="round" stroke-linejoin="round" stroke-miterlimit="10" width="35" height="30"/>
		<circle fill="none" stroke="#FF8A33" stroke-width="2" stroke-miterlimit="10" cx="110.4" cy="120.5" r="4"/>
	</g>
	<circle fill="#BEECD9" cx="94.4" cy="52.5" r="1"/>
	<circle fill="#BEECD9" cx="97.4" cy="52.5" r="1"/>
	<circle fill="#BEECD9" cx="100.4" cy="52.5" r="1"/>
	<g>
		
			<line fill="none" stroke="#BEECD9" stroke-linecap="round" stroke-linejoin="round" stroke-miterlimit="10" x1="63.9" y1="124.5" x2="63.9" y2="135.5"/>
		
			<line fill="none" stroke="#BEECD9" stroke-linecap="round" stroke-linejoin="round" stroke-miterlimit="10" x1="51.4" y1="137" x2="76.4" y2="137"/>
		<g>
			<path fill="none" stroke="#16C493" stroke-width="2" stroke-linecap="round" stroke-linejoin="round" stroke-miterlimit="10" d="
				M63.9,162.5L63.9,162.5c-6.9,0-12.5-5.6-12.5-12.5v-13c0-6.9,5.6-12.5,12.5-12.5h0c6.9,0,12.5,5.6,12.5,12.5v13
				C76.4,156.9,70.8,162.5,63.9,162.5z"/>
			<path fill="#16C493" d="M63.9,139.5L63.9,139.5c-1.1,0-2-0.9-2-2v-4c0-1.1,0.9-2,2-2h0c1.1,0,2,0.9,2,2v4
				C65.9,138.6,65,139.5,63.9,139.5z"/>
		</g>
	</g>
	<g>
		
			<line fill="none" stroke="#BEECD9" stroke-linecap="round" stroke-linejoin="round" stroke-miterlimit="10" x1="131.9" y1="14.5" x2="131.9" y2="24.5"/>
		
			<line fill="none" stroke="#BEECD9" stroke-linecap="round" stroke-linejoin="round" stroke-miterlimit="10" x1="145.9" y1="14.5" x2="145.9" y2="24.5"/>
		<path fill="none" stroke="#16C493" stroke-width="2" stroke-linecap="round" stroke-linejoin="round" stroke-miterlimit="10" d="
			M148.4,24.9h-19.5c-0.6,0-1-0.4-1-1v-9c0-0.6,0.4-1,1-1h19.5c0.6,0,1,0.4,1,1v9C149.4,24.4,149,24.9,148.4,24.9z"/>
		
			<ellipse fill="none" stroke="#BEECD9" stroke-linecap="round" stroke-linejoin="round" stroke-miterlimit="10" cx="138.4" cy="19.5" rx="4" ry="2"/>
	</g>
	<g>
		
			<circle fill="none" stroke="#16C493" stroke-width="2" stroke-linecap="round" stroke-linejoin="round" stroke-miterlimit="10" cx="191.4" cy="22.5" r="18"/>
		
			<circle fill="none" stroke="#BEECD9" stroke-width="2" stroke-linecap="round" stroke-linejoin="round" stroke-miterlimit="10" cx="191.4" cy="22.5" r="12"/>
		<path fill="none" stroke="#16C493" stroke-width="2" stroke-linecap="round" stroke-linejoin="round" stroke-miterlimit="10" d="
			M192.4,4.5h3.5c1.9,0,3.5-1.6,3.5-3.5l5,2c0,1.9-1.6,3.5-3.5,3.5h-1.5"/>
	</g>
	<g>
		<path fill="none" stroke="#16C493" stroke-width="2" stroke-linecap="round" stroke-linejoin="round" stroke-miterlimit="10" d="
			M31.8,125.1c-3.9,4.1-9.3,6.6-15.4,6.6c-6.1,0-11.5-2.6-15.4-6.6l2.2-2.2c3.3,3.5,8,5.7,13.2,5.7c5.2,0,9.8-2.2,13.1-5.7
			L31.8,125.1z"/>
		<g>
			<g>
				
					<circle fill="none" stroke="#16C493" stroke-width="2" stroke-linecap="round" stroke-linejoin="round" stroke-miterlimit="10" cx="16.4" cy="110.5" r="5"/>
				
					<circle fill="none" stroke="#BEECD9" stroke-linecap="round" stroke-linejoin="round" stroke-miterlimit="10" cx="16.4" cy="110.5" r="2"/>
			</g>
			
				<rect x="15.1" y="97.5" fill="none" stroke="#16C493" stroke-width="2" stroke-linecap="round" stroke-linejoin="round" stroke-miterlimit="10" width="3" height="8"/>
		</g>
		
			<polygon fill="#FFFFFF" stroke="#16C493" stroke-width="2" stroke-linecap="round" stroke-linejoin="round" stroke-miterlimit="10" points="
			15.2,115.5 12.4,114.5 3.2,143.1 3,148.3 6,144 		"/>
		
			<polygon fill="#FFFFFF" stroke="#16C493" stroke-width="2" stroke-linecap="round" stroke-linejoin="round" stroke-miterlimit="10" points="
			17.7,115.5 20.6,114.5 29.8,143.1 29.9,148.3 26.9,144 		"/>
	</g>
</g>
</svg>
