<?xml version="1.0" encoding="utf-8"?>
<!-- Generator: Adobe Illustrator 18.1.1, SVG Export Plug-In . SVG Version: 6.00 Build 0)  -->
<!DOCTYPE svg PUBLIC "-//W3C//DTD SVG 1.1//EN" "http://www.w3.org/Graphics/SVG/1.1/DTD/svg11.dtd">
<svg version="1.1" id="Layer_1" xmlns="http://www.w3.org/2000/svg" xmlns:xlink="http://www.w3.org/1999/xlink" x="0px" y="0px"
	 viewBox="0 0 279.4 177" enable-background="new 0 0 279.4 177" xml:space="preserve">
<g>
	
		<rect x="78.5" y="32.5" fill="#BEECD9" stroke="#BEECD9" stroke-width="2" stroke-linejoin="round" stroke-miterlimit="10" width="136" height="115"/>
	
		<rect x="75.5" y="29.5" fill="#FFFFFF" stroke="#BEECD9" stroke-width="2" stroke-linejoin="round" stroke-miterlimit="10" width="136" height="115"/>
	
		<line fill="none" stroke="#BEECD9" stroke-width="2" stroke-linejoin="round" stroke-miterlimit="10" x1="76.4" y1="38.4" x2="211.4" y2="38.4"/>
	
		<line fill="none" stroke="#BEECD9" stroke-width="2" stroke-linecap="round" stroke-linejoin="round" stroke-miterlimit="10" x1="90.4" y1="33.4" x2="207.4" y2="33.4"/>
	<g>
		
			<line fill="none" stroke="#BEECD9" stroke-width="2" stroke-linecap="round" stroke-linejoin="round" stroke-miterlimit="10" x1="196.4" y1="45.4" x2="201.4" y2="45.4"/>
		
			<line fill="none" stroke="#BEECD9" stroke-width="2" stroke-linecap="round" stroke-linejoin="round" stroke-miterlimit="10" x1="188.4" y1="45.4" x2="193.4" y2="45.4"/>
		
			<line fill="none" stroke="#BEECD9" stroke-width="2" stroke-linecap="round" stroke-linejoin="round" stroke-miterlimit="10" x1="180.4" y1="45.4" x2="185.4" y2="45.4"/>
		
			<line fill="none" stroke="#BEECD9" stroke-width="2" stroke-linecap="round" stroke-linejoin="round" stroke-miterlimit="10" x1="172.4" y1="45.4" x2="177.4" y2="45.4"/>
	</g>
	<g>
		
			<rect x="126.3" y="55.5" fill="none" stroke="#BEECD9" stroke-width="2" stroke-linejoin="round" stroke-miterlimit="10" width="13" height="15"/>
		
			<line fill="none" stroke="#BEECD9" stroke-width="2" stroke-linecap="round" stroke-linejoin="round" stroke-miterlimit="10" x1="144.4" y1="56.4" x2="160.4" y2="56.4"/>
		
			<line fill="none" stroke="#BEECD9" stroke-width="2" stroke-linecap="round" stroke-linejoin="round" stroke-miterlimit="10" x1="144.4" y1="61.4" x2="160.4" y2="61.4"/>
		
			<line fill="none" stroke="#BEECD9" stroke-width="2" stroke-linecap="round" stroke-linejoin="round" stroke-miterlimit="10" x1="144.4" y1="66.4" x2="160.4" y2="66.4"/>
		
			<line fill="none" stroke="#BEECD9" stroke-width="2" stroke-linecap="round" stroke-linejoin="round" stroke-miterlimit="10" x1="144.4" y1="71.4" x2="160.4" y2="71.4"/>
		
			<line fill="none" stroke="#BEECD9" stroke-width="2" stroke-linecap="round" stroke-linejoin="round" stroke-miterlimit="10" x1="126.4" y1="76.4" x2="160.4" y2="76.4"/>
		
			<line fill="none" stroke="#BEECD9" stroke-width="2" stroke-linecap="round" stroke-linejoin="round" stroke-miterlimit="10" x1="126.4" y1="81.4" x2="160.4" y2="81.4"/>
		
			<line fill="none" stroke="#BEECD9" stroke-width="2" stroke-linecap="round" stroke-linejoin="round" stroke-miterlimit="10" x1="126.4" y1="86.4" x2="160.4" y2="86.4"/>
		
			<line fill="none" stroke="#BEECD9" stroke-width="2" stroke-linecap="round" stroke-linejoin="round" stroke-miterlimit="10" x1="126.4" y1="91.4" x2="160.4" y2="91.4"/>
	</g>
	<g>
		
			<line fill="none" stroke="#BEECD9" stroke-width="2" stroke-linecap="round" stroke-linejoin="round" stroke-miterlimit="10" x1="169.4" y1="56.4" x2="203.4" y2="56.4"/>
		
			<line fill="none" stroke="#BEECD9" stroke-width="2" stroke-linecap="round" stroke-linejoin="round" stroke-miterlimit="10" x1="169.4" y1="61.4" x2="203.4" y2="61.4"/>
		
			<line fill="none" stroke="#BEECD9" stroke-width="2" stroke-linecap="round" stroke-linejoin="round" stroke-miterlimit="10" x1="169.4" y1="66.4" x2="203.4" y2="66.4"/>
		
			<line fill="none" stroke="#BEECD9" stroke-width="2" stroke-linecap="round" stroke-linejoin="round" stroke-miterlimit="10" x1="169.4" y1="71.4" x2="203.4" y2="71.4"/>
		
			<line fill="none" stroke="#BEECD9" stroke-width="2" stroke-linecap="round" stroke-linejoin="round" stroke-miterlimit="10" x1="169.4" y1="76.4" x2="203.4" y2="76.4"/>
		
			<line fill="none" stroke="#BEECD9" stroke-width="2" stroke-linecap="round" stroke-linejoin="round" stroke-miterlimit="10" x1="169.4" y1="81.4" x2="203.4" y2="81.4"/>
		
			<line fill="none" stroke="#BEECD9" stroke-width="2" stroke-linecap="round" stroke-linejoin="round" stroke-miterlimit="10" x1="169.4" y1="86.4" x2="203.4" y2="86.4"/>
		
			<line fill="none" stroke="#BEECD9" stroke-width="2" stroke-linecap="round" stroke-linejoin="round" stroke-miterlimit="10" x1="169.4" y1="91.4" x2="203.4" y2="91.4"/>
	</g>
	<circle fill="#BEECD9" cx="79.5" cy="33.5" r="1"/>
	<circle fill="#BEECD9" cx="82.5" cy="33.5" r="1"/>
	<circle fill="#BEECD9" cx="85.5" cy="33.5" r="1"/>
	<g>
		
			<path fill="#BEECD9" stroke="#16C493" stroke-width="2" stroke-linecap="round" stroke-linejoin="round" stroke-miterlimit="10" d="
			M266.8,90.1c-3.9,4.1-9.3,6.6-15.4,6.6c-6.1,0-11.5-2.6-15.4-6.6l2.2-2.2c3.3,3.5,8,5.7,13.2,5.7c5.2,0,9.8-2.2,13.1-5.7
			L266.8,90.1z"/>
		
			<circle fill="#BEECD9" stroke="#16C493" stroke-width="2" stroke-linecap="round" stroke-linejoin="round" stroke-miterlimit="10" cx="251.5" cy="75.5" r="5"/>
		<circle fill="#16C493" cx="251.5" cy="75.5" r="2"/>
		
			<rect x="250.1" y="62.5" fill="#FFFFFF" stroke="#16C493" stroke-width="2" stroke-linecap="round" stroke-linejoin="round" stroke-miterlimit="10" width="3" height="8"/>
		
			<polygon fill="#FFFFFF" stroke="#16C493" stroke-width="2" stroke-linecap="round" stroke-linejoin="round" stroke-miterlimit="10" points="
			250.3,80.5 247.4,79.5 238.2,108.1 238.1,113.3 241.1,109 		"/>
		
			<polygon fill="#FFFFFF" stroke="#16C493" stroke-width="2" stroke-linecap="round" stroke-linejoin="round" stroke-miterlimit="10" points="
			252.8,80.5 255.7,79.5 264.9,108.1 265,113.3 262,109 		"/>
	</g>
	<g>
		<g>
			<path fill="none" stroke="#16C493" stroke-width="2" stroke-linecap="round" stroke-linejoin="round" stroke-miterlimit="10" d="
				M17.5,121.2h-5l0-26.1c0-1.1,0.9-2,2-2h1c1.1,0,2,0.9,2,2V121.2z"/>
			
				<polygon fill="none" stroke="#16C493" stroke-width="2" stroke-linecap="round" stroke-linejoin="round" stroke-miterlimit="10" points="
				12.6,121.4 17.5,121.4 15.1,125.8 			"/>
			
				<line fill="none" stroke="#16C493" stroke-width="2" stroke-linecap="round" stroke-linejoin="round" stroke-miterlimit="10" x1="17.4" y1="98.4" x2="13.4" y2="98.4"/>
		</g>
		<g>
			<rect x="24.5" y="94.8" fill="#BEECD9" width="23" height="6"/>
			
				<rect x="24.5" y="94.8" fill="none" stroke="#16C493" stroke-width="2" stroke-linecap="round" stroke-linejoin="round" stroke-miterlimit="10" width="23" height="29"/>
			<rect x="42.5" y="118.8" fill="#BEECD9" width="3" height="3"/>
			<rect x="42.5" y="114.8" fill="#BEECD9" width="3" height="3"/>
			<rect x="38.5" y="118.8" fill="#BEECD9" width="3" height="3"/>
			<line fill="none" stroke="#BEECD9" stroke-miterlimit="10" x1="30.4" y1="104.9" x2="40.4" y2="104.9"/>
			<line fill="none" stroke="#BEECD9" stroke-miterlimit="10" x1="30.4" y1="106.9" x2="40.4" y2="106.9"/>
		</g>
	</g>
	<g>
		
			<rect x="81.9" y="55.5" fill="none" stroke="#BEECD9" stroke-width="2" stroke-linecap="round" stroke-linejoin="round" stroke-miterlimit="10" stroke-dasharray="3,4" width="35.6" height="36"/>
		<g>
			
				<line fill="none" stroke="#BEECD9" stroke-width="2" stroke-linejoin="round" stroke-miterlimit="10" x1="100.4" y1="70.4" x2="100.4" y2="76.4"/>
			
				<line fill="none" stroke="#BEECD9" stroke-width="2" stroke-linejoin="round" stroke-miterlimit="10" x1="103.4" y1="74.4" x2="97.4" y2="74.4"/>
		</g>
	</g>
	<g>
		
			<rect x="59.5" y="44.5" fill="#16C493" stroke="#16C493" stroke-width="2" stroke-linejoin="round" stroke-miterlimit="10" width="35" height="33"/>
		<rect x="57.5" y="42.5" fill="#FFFFFF" width="35" height="33"/>
		<polyline fill="none" stroke="#BEECD9" stroke-width="2" stroke-linejoin="round" stroke-miterlimit="10" points="72.7,67.5 
			85.1,55.1 92.5,62.5 		"/>
		<polyline fill="none" stroke="#BEECD9" stroke-width="2" stroke-linejoin="round" stroke-miterlimit="10" points="57.5,74.5 
			68.9,63.1 81.3,75.5 		"/>
		<circle fill="none" stroke="#FF8A33" stroke-width="2" stroke-miterlimit="10" cx="67.5" cy="53.5" r="4"/>
		
			<rect x="57.5" y="42.5" fill="none" stroke="#16C493" stroke-width="2" stroke-linecap="round" stroke-linejoin="round" stroke-miterlimit="10" width="35" height="33"/>
	</g>
	<g>
		<g>
			<polyline fill="none" stroke="#BEECD9" stroke-width="2" stroke-linejoin="round" stroke-miterlimit="10" points="161.8,129.8 
				184,107.5 204.2,127.7 			"/>
			<polyline fill="none" stroke="#BEECD9" stroke-width="2" stroke-linejoin="round" stroke-miterlimit="10" points="126.5,137.9 
				148.5,116.1 170.2,138 			"/>
		</g>
		<circle fill="none" stroke="#BEECD9" stroke-width="2" stroke-miterlimit="10" cx="167.5" cy="110.5" r="4"/>
		
			<rect x="126.5" y="101.5" fill="none" stroke="#BEECD9" stroke-width="2" stroke-linecap="round" stroke-linejoin="round" stroke-miterlimit="10" width="78" height="36.6"/>
	</g>
</g>
</svg>
