<?xml version="1.0" encoding="utf-8"?>
<!-- Generator: Adobe Illustrator 18.1.1, SVG Export Plug-In . SVG Version: 6.00 Build 0)  -->
<!DOCTYPE svg PUBLIC "-//W3C//DTD SVG 1.1//EN" "http://www.w3.org/Graphics/SVG/1.1/DTD/svg11.dtd">
<svg version="1.1" id="Layer_1" xmlns="http://www.w3.org/2000/svg" xmlns:xlink="http://www.w3.org/1999/xlink" x="0px" y="0px"
	 viewBox="0 0 279.4 177" enable-background="new 0 0 279.4 177" xml:space="preserve">
<g>
	<g>
		
			<line fill="none" stroke="#BEECD9" stroke-linecap="round" stroke-linejoin="round" stroke-miterlimit="10" x1="91.4" y1="141.9" x2="124.4" y2="141.9"/>
		<path fill="none" stroke="#16C493" stroke-width="2" stroke-linecap="round" stroke-linejoin="round" stroke-miterlimit="10" d="
			M124.5,138.5v7h-37c-1.1,0-2-0.9-2-2v-3c0-1.1,0.9-2,2-2H124.5z"/>
		
			<polygon fill="none" stroke="#16C493" stroke-width="2" stroke-linecap="round" stroke-linejoin="round" stroke-miterlimit="10" points="
			124.4,145.5 124.4,138.5 130.6,141.9 		"/>
		
			<line fill="none" stroke="#16C493" stroke-width="2" stroke-linecap="round" stroke-linejoin="round" stroke-miterlimit="10" x1="90.4" y1="145.4" x2="90.4" y2="138.4"/>
	</g>
	<g>
		
			<line fill="none" stroke="#BEECD9" stroke-linecap="round" stroke-linejoin="round" stroke-miterlimit="10" x1="105.9" y1="121.4" x2="105.9" y2="131.4"/>
		
			<line fill="none" stroke="#BEECD9" stroke-linecap="round" stroke-linejoin="round" stroke-miterlimit="10" x1="119.9" y1="121.4" x2="119.9" y2="131.4"/>
		<path fill="none" stroke="#16C493" stroke-width="2" stroke-linecap="round" stroke-linejoin="round" stroke-miterlimit="10" d="
			M122.4,131.8h-19.5c-0.6,0-1-0.4-1-1v-9c0-0.6,0.4-1,1-1h19.5c0.6,0,1,0.4,1,1v9C123.4,131.4,123,131.8,122.4,131.8z"/>
		
			<ellipse fill="none" stroke="#BEECD9" stroke-linecap="round" stroke-linejoin="round" stroke-miterlimit="10" cx="112.4" cy="126.5" rx="4" ry="2"/>
	</g>
	<circle fill="#FFFFFF" stroke="#BEECD9" stroke-width="2" stroke-miterlimit="10" cx="141" cy="68.3" r="39.8"/>
	<g>
		<path fill="#FFFFFF" stroke="#16C493" stroke-width="4" stroke-linejoin="round" stroke-miterlimit="10" d="M141.4,52.1
			c-9.1,0-16.5,7.4-16.5,16.5s7.4,16.5,16.5,16.5c9.1,0,16.5-7.4,16.5-16.5S150.5,52.1,141.4,52.1z"/>
		<path fill="#16C493" d="M134.8,66.6c-1.1,0-2,0.9-2,2c0,1.1,0.9,2,2,2c1.1,0,2-0.9,2-2C136.8,67.5,135.9,66.6,134.8,66.6z"/>
		<path fill="#16C493" d="M146.7,66.6c-1.1,0-2,0.9-2,2c0,1.1,0.9,2,2,2c1.1,0,2-0.9,2-2C148.6,67.5,147.7,66.6,146.7,66.6z"/>
		<path fill="none" stroke="#16C493" stroke-width="2" stroke-linecap="round" stroke-linejoin="round" stroke-miterlimit="10" d="
			M137,74.5c0.6,2,2.3,3.3,4.4,3.3s3.8-1.3,4.4-3.3"/>
	</g>
	<g>
		<path fill="#16C493" d="M125.4,65.2c0.9,0.2,1.9,0.3,2.9,0.3c7.8,0,14.3-5.5,15.9-12.8c-0.9-0.2-1.9-0.3-2.9-0.3
			C133.5,52.4,127,57.9,125.4,65.2z"/>
		<path fill="#16C493" d="M141.3,52.4c2,6.8,8.2,11.7,15.6,11.7C155,57.4,148.8,52.4,141.3,52.4z"/>
		<g>
			<path fill="#16C493" d="M141.8,55.6c0,0.4,0,0.7,0,1.1c0,3-0.9,5.8-2.4,8.2c4.1-1.5,7.4-4.7,9-8.7C146.2,56,144,55.7,141.8,55.6z
				"/>
		</g>
	</g>
	<g>
		<g>
			<circle fill="#BEECD9" cx="180.4" cy="68.3" r="11.8"/>
			<path fill="#16C493" d="M179.3,73.7c-0.3,0-0.6-0.1-0.8-0.4l-2.6-3.5c-0.3-0.4-0.3-1.1,0.2-1.4c0.4-0.3,1.1-0.3,1.4,0.2l1.7,2.3
				l4.3-6.9c0.3-0.5,0.9-0.6,1.4-0.3c0.5,0.3,0.6,0.9,0.3,1.4l-5.1,8.2C180,73.5,179.7,73.7,179.3,73.7
				C179.3,73.7,179.3,73.7,179.3,73.7L179.3,73.7z"/>
		</g>
		<g>
			<circle fill="#BEECD9" cx="102.4" cy="68.3" r="11.8"/>
			<path fill="#16C493" d="M105.8,64.1c-0.9-0.9-2.3-0.9-3.2,0l-5.1,5.1l0,3.2h3.2l5.2-5.2C106.6,66.4,106.6,65,105.8,64.1z
				 M100.1,71.3h-1.6v-1.6c0.4-0.4,1.2-0.4,1.6,0C100.6,70.2,100.6,70.9,100.1,71.3z M104.9,66.5l-1.6-1.6c0.4-0.4,1.2-0.4,1.6,0
				C105.4,65.4,105.4,66.1,104.9,66.5z"/>
		</g>
	</g>
	<g>
		
			<rect x="146.6" y="117.9" fill="none" stroke="#16C493" stroke-width="2" stroke-linecap="round" stroke-linejoin="round" stroke-miterlimit="10" width="47.3" height="30.5"/>
		
			<path fill="#FFFFFF" stroke="#BEECD9" stroke-width="2" stroke-linecap="round" stroke-linejoin="round" stroke-miterlimit="10" d="
			M190.6,145.5c0-1.9-20.2-1.9-20.2,0c0-1.9-20.6-1.9-20.6,0v-27.6c0-1.9,20.6-1.9,20.6,0c0-1.9,20.2-1.9,20.2,0V145.5z"/>
		<line fill="none" stroke="#BEECD9" stroke-width="2" stroke-miterlimit="10" x1="170.4" y1="145.4" x2="170.4" y2="117.4"/>
		
			<line fill="none" stroke="#BEECD9" stroke-linecap="round" stroke-linejoin="round" stroke-miterlimit="10" x1="159.4" y1="120.9" x2="167.4" y2="120.9"/>
		
			<line fill="none" stroke="#BEECD9" stroke-linecap="round" stroke-linejoin="round" stroke-miterlimit="10" x1="159.4" y1="123.9" x2="167.4" y2="123.9"/>
		
			<line fill="none" stroke="#BEECD9" stroke-linecap="round" stroke-linejoin="round" stroke-miterlimit="10" x1="153.4" y1="126.9" x2="167.4" y2="126.9"/>
		
			<line fill="none" stroke="#BEECD9" stroke-linecap="round" stroke-linejoin="round" stroke-miterlimit="10" x1="153.4" y1="129.9" x2="167.4" y2="129.9"/>
		
			<line fill="none" stroke="#BEECD9" stroke-linecap="round" stroke-linejoin="round" stroke-miterlimit="10" x1="153.4" y1="132.9" x2="167.4" y2="132.9"/>
		
			<line fill="none" stroke="#BEECD9" stroke-linecap="round" stroke-linejoin="round" stroke-miterlimit="10" x1="153.4" y1="135.9" x2="167.4" y2="135.9"/>
		
			<line fill="none" stroke="#BEECD9" stroke-linecap="round" stroke-linejoin="round" stroke-miterlimit="10" x1="153.4" y1="138.9" x2="167.4" y2="138.9"/>
		
			<line fill="none" stroke="#BEECD9" stroke-linecap="round" stroke-linejoin="round" stroke-miterlimit="10" x1="173.4" y1="120.9" x2="187.4" y2="120.9"/>
		
			<line fill="none" stroke="#BEECD9" stroke-linecap="round" stroke-linejoin="round" stroke-miterlimit="10" x1="173.4" y1="123.9" x2="187.4" y2="123.9"/>
		
			<line fill="none" stroke="#BEECD9" stroke-linecap="round" stroke-linejoin="round" stroke-miterlimit="10" x1="173.4" y1="126.9" x2="187.4" y2="126.9"/>
		
			<line fill="none" stroke="#BEECD9" stroke-linecap="round" stroke-linejoin="round" stroke-miterlimit="10" x1="173.4" y1="129.9" x2="187.4" y2="129.9"/>
		
			<line fill="none" stroke="#BEECD9" stroke-linecap="round" stroke-linejoin="round" stroke-miterlimit="10" x1="173.4" y1="132.9" x2="187.4" y2="132.9"/>
		
			<line fill="none" stroke="#BEECD9" stroke-linecap="round" stroke-linejoin="round" stroke-miterlimit="10" x1="173.4" y1="135.9" x2="187.4" y2="135.9"/>
		
			<line fill="none" stroke="#BEECD9" stroke-linecap="round" stroke-linejoin="round" stroke-miterlimit="10" x1="173.4" y1="138.9" x2="187.4" y2="138.9"/>
		
			<rect x="153.4" y="120.5" fill="#BEECD9" stroke="#BEECD9" stroke-linecap="round" stroke-linejoin="round" stroke-miterlimit="10" width="4" height="4"/>
	</g>
</g>
</svg>
