<?xml version="1.0" encoding="utf-8"?>
<!-- Generator: Adobe Illustrator 18.1.1, SVG Export Plug-In . SVG Version: 6.00 Build 0)  -->
<!DOCTYPE svg PUBLIC "-//W3C//DTD SVG 1.1//EN" "http://www.w3.org/Graphics/SVG/1.1/DTD/svg11.dtd">
<svg version="1.1" id="Layer_1" xmlns="http://www.w3.org/2000/svg" xmlns:xlink="http://www.w3.org/1999/xlink" x="0px" y="0px"
	 viewBox="0 0 712.5 307.2" enable-background="new 0 0 712.5 307.2" xml:space="preserve">
<g>
	
		<rect x="117.1" y="5" fill="#BEECD9" stroke="#BEECD9" stroke-width="4" stroke-linejoin="round" stroke-miterlimit="10" width="485.4" height="282"/>
	
		<rect x="114.5" y="2" fill="#FFFFFF" stroke="#BEECD9" stroke-width="4" stroke-linejoin="round" stroke-miterlimit="10" width="485.4" height="283"/>
	
		<line fill="none" stroke="#BEECD9" stroke-width="4" stroke-linejoin="round" stroke-miterlimit="10" x1="114.5" y1="20" x2="599.5" y2="20"/>
	
		<line fill="none" stroke="#BEECD9" stroke-width="4" stroke-linecap="round" stroke-linejoin="round" stroke-miterlimit="10" x1="146.5" y1="11" x2="585.5" y2="11"/>
	<g>
		<circle fill="#BEECD9" cx="123.5" cy="11" r="2"/>
		<circle fill="#BEECD9" cx="129.5" cy="11" r="2"/>
		<circle fill="#BEECD9" cx="135.5" cy="11" r="2"/>
	</g>
	<g>
		<rect x="255.7" y="48.5" fill="#BEECD9" width="200" height="99"/>
		<path fill="#FFFFFF" d="M355.7,85.5c-6.9,0-12.5,5.6-12.5,12.5s5.6,12.5,12.5,12.5s12.5-5.6,12.5-12.5S362.6,85.5,355.7,85.5z
			 M352.6,92.5L362,98l-9.4,5.5V92.5z"/>
	</g>
	<g>
		
			<line fill="none" stroke="#BEECD9" stroke-width="4" stroke-linejoin="round" stroke-miterlimit="10" x1="255.5" y1="161" x2="455.5" y2="161"/>
		
			<line fill="none" stroke="#BEECD9" stroke-width="4" stroke-linejoin="round" stroke-miterlimit="10" x1="255.5" y1="171" x2="455.5" y2="171"/>
		
			<line fill="none" stroke="#BEECD9" stroke-width="4" stroke-linejoin="round" stroke-miterlimit="10" x1="255.5" y1="181" x2="455.5" y2="181"/>
		
			<line fill="none" stroke="#BEECD9" stroke-width="4" stroke-linejoin="round" stroke-miterlimit="10" x1="255.5" y1="191" x2="455.5" y2="191"/>
		
			<line fill="none" stroke="#BEECD9" stroke-width="4" stroke-linejoin="round" stroke-miterlimit="10" x1="255.5" y1="201" x2="380.5" y2="201"/>
	</g>
	<g>
		
			<line fill="none" stroke="#BEECD9" stroke-width="4" stroke-linejoin="round" stroke-miterlimit="10" x1="255.5" y1="221" x2="455.5" y2="221"/>
		
			<line fill="none" stroke="#BEECD9" stroke-width="4" stroke-linejoin="round" stroke-miterlimit="10" x1="255.5" y1="231" x2="455.5" y2="231"/>
		
			<line fill="none" stroke="#BEECD9" stroke-width="4" stroke-linejoin="round" stroke-miterlimit="10" x1="255.5" y1="241" x2="455.5" y2="241"/>
		
			<line fill="none" stroke="#BEECD9" stroke-width="4" stroke-linejoin="round" stroke-miterlimit="10" x1="255.5" y1="251" x2="455.5" y2="251"/>
		
			<line fill="none" stroke="#BEECD9" stroke-width="4" stroke-linejoin="round" stroke-miterlimit="10" x1="255.5" y1="261" x2="337.5" y2="261"/>
	</g>
	<g>
		<path fill="#FFFFFF" stroke="#16C493" stroke-width="4" stroke-linejoin="round" stroke-miterlimit="10" d="M692,240
			c-9.1,0-16.5,7.4-16.5,16.5S682.9,273,692,273c9.1,0,16.5-7.4,16.5-16.5S701.1,240,692,240z"/>
		<path fill="#FFFFFF" stroke="#16C493" stroke-width="2" stroke-linejoin="round" stroke-miterlimit="10" d="M706.5,250
			c2.5-4.4,2.9-8.9,0.6-11.1c-3.2-3-10.1-0.9-15.5,4.7c-2,2-3.4,4.3-4.4,6.4L706.5,250z"/>
		
			<line fill="none" stroke="#16C493" stroke-width="2" stroke-linecap="round" stroke-linejoin="round" stroke-miterlimit="10" x1="676.5" y1="250" x2="706.5" y2="250"/>
		<g>
			<path fill="#16C493" d="M685.4,254.5c-1.1,0-2,0.9-2,2c0,1.1,0.9,2,2,2c1.1,0,2-0.9,2-2C687.4,255.4,686.5,254.5,685.4,254.5z"/>
			<path fill="#16C493" d="M697.3,254.5c-1.1,0-2,0.9-2,2c0,1.1,0.9,2,2,2c1.1,0,2-0.9,2-2C699.3,255.4,698.4,254.5,697.3,254.5z"/>
			<path fill="#16C493" d="M673.9,255.3c0.4,0.1,0.8,0.1,1.2,0.1c3.2,0,5.8-2.2,6.5-5.2c-0.4-0.1-0.8-0.1-1.2-0.1
				C677.2,250.1,674.6,252.3,673.9,255.3z"/>
			
				<ellipse transform="matrix(0.9092 0.4163 -0.4163 0.9092 166.8009 -260.5844)" fill="#16C493" cx="680.9" cy="252.2" rx="1.4" ry="2.9"/>
		</g>
		<path fill="none" stroke="#16C493" stroke-width="2" stroke-linecap="round" stroke-linejoin="round" stroke-miterlimit="10" d="
			M688.4,265c0.8,1.1,2.1,1.7,3.6,1.7s2.7-0.7,3.6-1.7"/>
	</g>
	<g>
		<g>
			<path fill="#FFFFFF" stroke="#16C493" stroke-width="4" stroke-linejoin="round" stroke-miterlimit="10" d="M538,78
				c-9.1,0-16.5,7.4-16.5,16.5S528.9,111,538,111c9.1,0,16.5-7.4,16.5-16.5S547.1,78,538,78z"/>
			<g>
				<path fill="#16C493" d="M531.4,92.5c-1.1,0-2,0.9-2,2s0.9,2,2,2c1.1,0,2-0.9,2-2S532.5,92.5,531.4,92.5z"/>
				<path fill="#16C493" d="M543.3,92.5c-1.1,0-2,0.9-2,2s0.9,2,2,2c1.1,0,2-0.9,2-2S544.4,92.5,543.3,92.5z"/>
				<path fill="#16C493" d="M521.9,90.9c0.9,0.2,1.9,0.3,2.9,0.3c7.9,0,14.5-5.5,16.1-12.9c-0.9-0.2-1.9-0.3-2.9-0.3
					C530.1,78,523.5,83.5,521.9,90.9z"/>
				<path fill="#16C493" d="M538,78c2,6.9,8.3,11.9,15.8,11.9C551.8,83,545.5,78,538,78z"/>
			</g>
			<path fill="none" stroke="#16C493" stroke-width="2" stroke-linecap="round" stroke-linejoin="round" stroke-miterlimit="10" d="
				M533.6,100.4c0.6,1.9,2.3,3.3,4.4,3.3c2.1,0,3.8-1.4,4.4-3.3"/>
		</g>
		<g>
			
				<line fill="none" stroke="#16C493" stroke-width="2" stroke-linecap="round" stroke-linejoin="round" stroke-miterlimit="10" x1="519.5" y1="85.1" x2="522.2" y2="87.8"/>
			
				<line fill="none" stroke="#16C493" stroke-width="2" stroke-linecap="round" stroke-linejoin="round" stroke-miterlimit="10" x1="521" y1="90.7" x2="517.4" y2="87.2"/>
			
				<polyline fill="none" stroke="#16C493" stroke-width="2" stroke-linecap="round" stroke-linejoin="round" stroke-miterlimit="10" points="
				517.4,87.1 516.5,84.2 519.5,85 			"/>
		</g>
	</g>
	<g>
		<path fill="#FFFFFF" stroke="#16C493" stroke-width="4" stroke-linejoin="round" stroke-miterlimit="10" d="M692.5,168
			c-9.1,0-16.5,7.4-16.5,16.5s7.4,16.5,16.5,16.5c9.1,0,16.5-7.4,16.5-16.5S701.6,168,692.5,168z"/>
		<g>
			<path fill="#16C493" d="M686.5,182.5c-1.1,0-2,0.9-2,2s0.9,2,2,2c1.1,0,2-0.9,2-2S687.6,182.5,686.5,182.5z"/>
			<path fill="#16C493" d="M698.4,182.5c-1.1,0-2,0.9-2,2s0.9,2,2,2c1.1,0,2-0.9,2-2S699.5,182.5,698.4,182.5z"/>
		</g>
		<path fill="none" stroke="#16C493" stroke-width="2" stroke-linecap="round" stroke-linejoin="round" stroke-miterlimit="10" d="
			M707.5,179.9c-1.2-4.2-4.1-7.7-7.9-9.8c0.3-0.7-1.5-0.3-1.4-1c-1.9,0-1.7-0.9-3.4-0.7c-1-0.2-2.1-0.3-3.2-0.3
			c0.1,0.3,0.2,0.5,0.3,0.8c-8.3,1.7-12.9,6.3-14.5,12.6c8.3,0.1,14.2-2.1,18.6-6.2C699,178.1,703.1,179.9,707.5,179.9z"/>
		<path fill="none" stroke="#16C493" stroke-width="2" stroke-linecap="round" stroke-linejoin="round" stroke-miterlimit="10" d="
			M688.9,192c0.8,1,2.1,1.7,3.6,1.7s2.7-0.7,3.6-1.7H688.9z"/>
		<g>
			<path fill="none" stroke="#16C493" stroke-width="2" stroke-linecap="round" stroke-linejoin="round" stroke-miterlimit="10" d="
				M675.3,181.8l-1.8,19.2h13C686.5,201,675.3,195,675.3,181.8z"/>
			<path fill="none" stroke="#16C493" stroke-width="2" stroke-linecap="round" stroke-linejoin="round" stroke-miterlimit="10" d="
				M709.7,181.8l1.8,19.2h-13C698.5,201,709.7,195,709.7,181.8z"/>
		</g>
	</g>
	<g>
		
			<rect x="2.4" y="61.4" fill="#BEECD9" stroke="#BEECD9" stroke-width="2" stroke-linejoin="round" stroke-miterlimit="10" width="181.1" height="244.9"/>
		
			<rect x="1" y="59.4" fill="#FFFFFF" stroke="#BEECD9" stroke-width="2" stroke-linejoin="round" stroke-miterlimit="10" width="181.1" height="244.9"/>
		<g>
			<g>
				<rect x="55.5" y="186.8" fill="#16C493" width="105" height="5.5"/>
				
					<rect x="55.5" y="196.8" fill="#FFFFFF" stroke="#BEECD9" stroke-width="2" stroke-linejoin="round" stroke-miterlimit="10" width="51.4" height="5.5"/>
			</g>
			<g>
				<path fill="#BEECD9" d="M35.5,194.5c0,1.7-0.4,3.3-1.3,4.8s-2,2.6-3.5,3.5c-1.5,0.8-3,1.3-4.8,1.3s-3.3-0.4-4.8-1.3
					c-1.5-0.8-2.6-2-3.5-3.5s-1.3-3-1.3-4.8s0.4-3.3,1.3-4.8s2-2.6,3.5-3.5c1.5-0.8,3-1.3,4.8-1.3s3.3,0.4,4.8,1.3
					c1.5,0.8,2.6,2,3.5,3.5S35.5,192.8,35.5,194.5z"/>
				<g>
					<path fill="#FFFFFF" d="M23.8,196.3c0.6,0.4,1.2,0.7,1.8,0.7c0.7,0,1.2-0.3,1.2-0.9c0-0.6-0.4-0.9-1.2-1c-0.2,0-0.6,0-0.7,0.1
						l0-1.4c0.9,0,1.7-0.4,1.7-1.1c0-0.5-0.4-0.7-0.9-0.7c-0.6,0-1.1,0.2-1.6,0.5l-0.7-1.1c0.8-0.5,1.5-0.8,2.6-0.8
						c1.3,0,2.3,0.7,2.3,1.9c0,0.8-0.5,1.6-1.5,1.9v0c1.1,0.1,1.8,0.8,1.8,1.9c0,1.6-1.2,2.4-2.8,2.4c-1,0-2-0.3-2.7-1.1L23.8,196.3
						z"/>
				</g>
			</g>
		</g>
		<g>
			<g>
				<rect x="55.5" y="230.1" fill="#16C493" width="105" height="5.5"/>
				
					<rect x="55.5" y="240.1" fill="#FFFFFF" stroke="#BEECD9" stroke-width="2" stroke-linejoin="round" stroke-miterlimit="10" width="51.4" height="5.5"/>
			</g>
			<g>
				<path fill="#BEECD9" d="M35.5,237.8c0,1.7-0.4,3.3-1.3,4.8c-0.8,1.5-2,2.6-3.5,3.5c-1.5,0.8-3,1.3-4.8,1.3s-3.3-0.4-4.8-1.3
					c-1.5-0.8-2.6-2-3.5-3.5c-0.8-1.5-1.3-3-1.3-4.8c0-1.7,0.4-3.3,1.3-4.8c0.8-1.5,2-2.6,3.5-3.5c1.5-0.8,3-1.3,4.8-1.3
					s3.3,0.4,4.8,1.3c1.5,0.8,2.6,2,3.5,3.5C35.1,234.5,35.5,236.1,35.5,237.8z"/>
				<g>
					<path fill="#FFFFFF" d="M26.5,240.2H23v-1.4l3-4.9h2.3v4.8H29v1.5h-0.8v1.6h-1.8V240.2z M26.5,238.7v-3.2l-1.9,3.2H26.5z"/>
				</g>
			</g>
		</g>
		<g>
			<g>
				<rect x="55.5" y="271.7" fill="#16C493" width="105" height="5.5"/>
				
					<rect x="55.5" y="281.7" fill="#FFFFFF" stroke="#BEECD9" stroke-width="2" stroke-linejoin="round" stroke-miterlimit="10" width="51.4" height="5.5"/>
			</g>
			<g>
				<path fill="#BEECD9" d="M35.5,279.4c0,1.7-0.4,3.3-1.3,4.8s-2,2.6-3.5,3.5c-1.5,0.8-3,1.3-4.8,1.3s-3.3-0.4-4.8-1.3
					c-1.5-0.8-2.6-2-3.5-3.5s-1.3-3-1.3-4.8c0-1.7,0.4-3.3,1.3-4.8s2-2.6,3.5-3.5c1.5-0.8,3-1.3,4.8-1.3s3.3,0.4,4.8,1.3
					c1.5,0.8,2.6,2,3.5,3.5S35.5,277.7,35.5,279.4z"/>
				<g>
					<path fill="#FFFFFF" d="M23.9,275.5h4.3l-0.1,1.7h-2.8l-0.1,1.5c0.3-0.2,0.7-0.4,1.3-0.4c1.3,0,2.2,0.8,2.2,2.5
						c0,1.8-1.3,2.8-2.8,2.8c-0.9,0-1.9-0.3-2.6-0.9l0.6-1.2c0.7,0.4,1.2,0.5,1.8,0.5c0.7,0,1.3-0.3,1.3-1.3c0-0.7-0.3-1.1-0.9-1.1
						c-0.4,0-0.7,0.2-0.9,0.4l-0.1,0.6h-1.5L23.9,275.5z"/>
				</g>
			</g>
		</g>
		<rect x="1" y="59.4" fill="#BEECD9" width="181.1" height="25.6"/>
		<g>
			<circle fill="#16C493" cx="91.5" cy="59" r="14"/>
			<path fill="#FFFFFF" d="M97,59.7h-7.4c-0.3,0-0.6-0.3-0.6-0.6s0.3-0.6,0.6-0.6H97c0.3,0,0.6,0.3,0.6,0.6S97.4,59.7,97,59.7z
				 M97,55.4h-7.4c-0.3,0-0.6-0.3-0.6-0.6c0-0.3,0.3-0.6,0.6-0.6H97c0.3,0,0.6,0.3,0.6,0.6C97.7,55.2,97.4,55.4,97,55.4z M86.6,64.7
				c-0.7,0-1.2-0.6-1.2-1.2c0-0.7,0.6-1.2,1.2-1.2c0.7,0,1.2,0.6,1.2,1.2C87.8,64.1,87.3,64.7,86.6,64.7z M86.6,60.4
				c-0.7,0-1.2-0.6-1.2-1.2s0.6-1.2,1.2-1.2c0.7,0,1.2,0.6,1.2,1.2S87.3,60.4,86.6,60.4z M86.6,56.1c-0.7,0-1.2-0.6-1.2-1.2
				c0-0.7,0.6-1.2,1.2-1.2c0.7,0,1.2,0.6,1.2,1.2C87.8,55.5,87.3,56.1,86.6,56.1z M89.7,62.8H97c0.3,0,0.6,0.3,0.6,0.6
				c0,0.3-0.3,0.6-0.6,0.6h-7.4c-0.3,0-0.6-0.3-0.6-0.6C89.1,63.1,89.3,62.8,89.7,62.8z"/>
		</g>
		<g>
			<g>
				<rect x="55.5" y="145.3" fill="#16C493" width="105" height="5.5"/>
				
					<rect x="55.5" y="155.3" fill="#FFFFFF" stroke="#BEECD9" stroke-width="2" stroke-linejoin="round" stroke-miterlimit="10" width="51.4" height="5.5"/>
			</g>
			<circle fill="#FF8A33" cx="26.6" cy="152.9" r="9.5"/>
			<path fill="#FFFFFF" d="M25.2,158.1c-0.3,0-0.6-0.1-0.8-0.4l-2.6-3.5c-0.3-0.4-0.3-1.1,0.2-1.4c0.4-0.3,1.1-0.3,1.4,0.2l1.7,2.3
				l4.3-6.9c0.3-0.5,0.9-0.6,1.4-0.3c0.5,0.3,0.6,0.9,0.3,1.4l-5.1,8.2C25.8,157.9,25.5,158.1,25.2,158.1
				C25.2,158.1,25.2,158.1,25.2,158.1L25.2,158.1z"/>
		</g>
		<g>
			<rect x="55.5" y="101.6" fill="#16C493" width="105" height="5.5"/>
			
				<rect x="55.5" y="111.6" fill="#FFFFFF" stroke="#BEECD9" stroke-width="2" stroke-linejoin="round" stroke-miterlimit="10" width="51.4" height="5.5"/>
		</g>
		<circle fill="#FF8A33" cx="26.6" cy="108.9" r="9.5"/>
		<path fill="#FFFFFF" d="M25.2,114.5c-0.3,0-0.6-0.1-0.8-0.4l-2.6-3.5c-0.3-0.4-0.3-1.1,0.2-1.4c0.4-0.3,1.1-0.3,1.4,0.2l1.7,2.3
			l4.3-6.9c0.3-0.5,0.9-0.6,1.4-0.3c0.5,0.3,0.6,0.9,0.3,1.4L26,114C25.8,114.3,25.5,114.5,25.2,114.5
			C25.2,114.5,25.2,114.5,25.2,114.5L25.2,114.5z"/>
	</g>
	<g>
		<path fill="#FFFFFF" stroke="#16C493" stroke-width="4" stroke-linejoin="round" stroke-miterlimit="10" d="M691.6,97.9
			c-9.1,0-16.5,7.4-16.5,16.5s7.4,16.5,16.5,16.5c9.1,0,16.5-7.4,16.5-16.5S700.8,97.9,691.6,97.9z"/>
		<path fill="#16C493" d="M685,112.5c-1.1,0-2,0.9-2,2c0,1.1,0.9,2,2,2s2-0.9,2-2C687,113.3,686.1,112.5,685,112.5z"/>
		<path fill="#16C493" d="M696.9,112.5c-1.1,0-2,0.9-2,2c0,1.1,0.9,2,2,2s2-0.9,2-2C698.9,113.3,698,112.5,696.9,112.5z"/>
		<path fill="#16C493" d="M694.8,111.7c0.1-1,0.2-1.9,0.1-2.9c-0.4-7.9-6.2-14.2-13.7-15.4c-0.1,1-0.2,1.9-0.1,2.9
			C681.5,104.1,687.4,110.4,694.8,111.7z"/>
		<path fill="#16C493" d="M689.7,97.9c2,6.9,8.3,11.9,15.8,11.9C703.5,103,697.2,97.9,689.7,97.9z"/>
		<path fill="#16C493" d="M689,98.3c-7.1,0.6-13.3,5.8-14.8,13.2C681.3,110.9,687.5,105.7,689,98.3z"/>
		<path fill="none" stroke="#16C493" stroke-width="2" stroke-linecap="round" stroke-linejoin="round" stroke-miterlimit="10" d="
			M687.3,120c0.6,2,2.3,3.3,4.4,3.3s3.8-1.3,4.4-3.3H687.3z"/>
	</g>
	<g>
		<path fill="#FFFFFF" stroke="#16C493" stroke-width="4" stroke-linejoin="round" stroke-miterlimit="10" d="M539.4,145.5
			c-9.1,0-16.5,7.4-16.5,16.5c0,9.1,7.4,16.5,16.5,16.5c9.1,0,16.5-7.4,16.5-16.5C555.9,152.9,548.5,145.5,539.4,145.5z"/>
		<g>
			<path fill="#16C493" d="M533.5,160.1c-1.1,0-2,0.9-2,2s0.9,2,2,2c1.1,0,2-0.9,2-2S534.5,160.1,533.5,160.1z"/>
			<path fill="#16C493" d="M545.3,160.1c-1.1,0-2,0.9-2,2s0.9,2,2,2c1.1,0,2-0.9,2-2S546.4,160.1,545.3,160.1z"/>
		</g>
		<path fill="none" stroke="#16C493" stroke-width="2" stroke-linecap="round" stroke-linejoin="round" stroke-miterlimit="10" d="
			M535.4,167c0.6,2,2.3,3.3,4.4,3.3c2.1,0,3.8-1.3,4.4-3.3H535.4z"/>
		<g>
			<path fill="#16C493" d="M524.3,155h8l1-5l2,5h19c0,0-4.5-10-14-10S524.3,153,524.3,155z"/>
			<path fill="#16C493" d="M520.9,160.5l-2.3,17.5h4.7l0.7-3.6l0.5,3.6h11l-4.8-1.8C530.6,176.2,520.9,165.4,520.9,160.5z"/>
			<path fill="#16C493" d="M557.3,160.5l2.3,17.5h-4.2l-0.2-2.6l-0.5,2.6h-7.8l0.7-1.8C547.6,176.2,557.3,165.4,557.3,160.5z"/>
		</g>
	</g>
	<g>
		<path fill="#16C493" d="M539.1,214.5c-11.3,0-20.5,9.2-20.5,20.5c0,11.3,9.2,20.5,20.5,20.5s20.5-9.2,20.5-20.5
			C559.6,223.7,550.4,214.5,539.1,214.5z"/>
		<path fill="#FFFFFF" stroke="#16C493" stroke-width="4" stroke-linejoin="round" stroke-miterlimit="10" d="M539.1,224.5
			c-9.1,0-16.5,7.4-16.5,16.5c0,9.1,7.4,16.5,16.5,16.5c9.1,0,16.5-7.4,16.5-16.5C555.6,231.9,548.2,224.5,539.1,224.5z"/>
		<g>
			<path fill="#16C493" d="M533.2,239.1c-1.1,0-2,0.9-2,2s0.9,2,2,2s2-0.9,2-2S534.3,239.1,533.2,239.1z"/>
			<path fill="#16C493" d="M545,239.1c-1.1,0-2,0.9-2,2s0.9,2,2,2s2-0.9,2-2S546.1,239.1,545,239.1z"/>
		</g>
		<path fill="#16C493" d="M523.1,234h31c0,0-5.9-12.4-14.4-12.4C531.1,221.6,523.1,234,523.1,234z"/>
		
			<polyline fill="none" stroke="#16C493" stroke-width="4" stroke-linecap="round" stroke-linejoin="round" stroke-miterlimit="10" points="
			534.1,247.8 539.3,246.8 544.1,247.8 		"/>
	</g>
	<g>
		<path fill="#BEECD9" d="M634.3,88.9h-66.6c-2.2,0-4-1.8-4-4V47.1c0-2.2,1.8-4,4-4h66.6c2.2,0,4,1.8,4,4v37.8
			C638.3,87.1,636.6,88.9,634.3,88.9z"/>
		<path fill="#BEECD9" d="M572.5,83.1v12.5c0,0.9,1.1,1.3,1.7,0.7l11.4-11.4c0.6-0.6,0.2-1.6-0.6-1.7l-11.4-1
			C573,82,572.5,82.5,572.5,83.1z"/>
		<g>
			
				<line fill="none" stroke="#16C493" stroke-width="3" stroke-linecap="round" stroke-miterlimit="10" x1="574.5" y1="53.5" x2="627.5" y2="53.5"/>
			
				<line fill="none" stroke="#16C493" stroke-width="3" stroke-linecap="round" stroke-miterlimit="10" x1="574.5" y1="61.5" x2="627.5" y2="61.5"/>
			
				<line fill="none" stroke="#16C493" stroke-width="3" stroke-linecap="round" stroke-miterlimit="10" x1="574.5" y1="69.5" x2="627.5" y2="69.5"/>
			
				<line fill="none" stroke="#16C493" stroke-width="3" stroke-linecap="round" stroke-miterlimit="10" x1="574.5" y1="77.5" x2="608.5" y2="77.5"/>
		</g>
	</g>
	<g>
		<path fill="#BEECD9" d="M645.3,232.9h-66.6c-2.2,0-4-1.8-4-4v-37.8c0-2.2,1.8-4,4-4h66.6c2.2,0,4,1.8,4,4v37.8
			C649.3,231.1,647.6,232.9,645.3,232.9z"/>
		<path fill="#BEECD9" d="M583.5,227.1v12.5c0,0.9,1.1,1.3,1.7,0.7l11.4-11.4c0.6-0.6,0.2-1.6-0.6-1.7l-11.4-1
			C584,226,583.5,226.5,583.5,227.1z"/>
		<g>
			
				<line fill="none" stroke="#16C493" stroke-width="3" stroke-linecap="round" stroke-miterlimit="10" x1="585.5" y1="197.5" x2="638.5" y2="197.5"/>
			
				<line fill="none" stroke="#16C493" stroke-width="3" stroke-linecap="round" stroke-miterlimit="10" x1="585.5" y1="205.5" x2="638.5" y2="205.5"/>
			
				<line fill="none" stroke="#16C493" stroke-width="3" stroke-linecap="round" stroke-miterlimit="10" x1="585.5" y1="213.5" x2="638.5" y2="213.5"/>
			
				<line fill="none" stroke="#16C493" stroke-width="3" stroke-linecap="round" stroke-miterlimit="10" x1="585.5" y1="221.5" x2="619.5" y2="221.5"/>
		</g>
	</g>
	<g>
		<path fill="#BEECD9" d="M656.3,158.9h-66.6c-2.2,0-4-1.8-4-4v-37.8c0-2.2,1.8-4,4-4h66.6c2.2,0,4,1.8,4,4v37.8
			C660.3,157.1,658.6,158.9,656.3,158.9z"/>
		<path fill="#BEECD9" d="M649.9,153.1v12.5c0,0.9-1.1,1.3-1.7,0.7l-11.4-11.4c-0.6-0.6-0.2-1.6,0.6-1.7l11.4-1
			C649.4,152,649.9,152.5,649.9,153.1z"/>
		<g>
			
				<line fill="none" stroke="#16C493" stroke-width="3" stroke-linecap="round" stroke-miterlimit="10" x1="596.5" y1="123.5" x2="649.5" y2="123.5"/>
			
				<line fill="none" stroke="#16C493" stroke-width="3" stroke-linecap="round" stroke-miterlimit="10" x1="596.5" y1="131.5" x2="649.5" y2="131.5"/>
			
				<line fill="none" stroke="#16C493" stroke-width="3" stroke-linecap="round" stroke-miterlimit="10" x1="596.5" y1="139.5" x2="649.5" y2="139.5"/>
			
				<line fill="none" stroke="#16C493" stroke-width="3" stroke-linecap="round" stroke-miterlimit="10" x1="596.5" y1="147.5" x2="630.5" y2="147.5"/>
		</g>
	</g>
</g>
</svg>
