<?xml version="1.0" encoding="utf-8"?>
<!-- Generator: Adobe Illustrator 18.1.1, SVG Export Plug-In . SVG Version: 6.00 Build 0)  -->
<!DOCTYPE svg PUBLIC "-//W3C//DTD SVG 1.1//EN" "http://www.w3.org/Graphics/SVG/1.1/DTD/svg11.dtd">
<svg version="1.1" id="Layer_1" xmlns="http://www.w3.org/2000/svg" xmlns:xlink="http://www.w3.org/1999/xlink" x="0px" y="0px"
	 viewBox="210.5 0 538.4 560.7" enable-background="new 210.5 0 538.4 560.7" xml:space="preserve">
<g>
	<circle fill="#BEECD9" cx="479.7" cy="291.5" r="269.2"/>
	<g>
		<g>
			<defs>
				<circle id="SVGID_1_" cx="479.7" cy="291.5" r="269.2"/>
			</defs>
			<clipPath id="SVGID_2_">
				<use xlink:href="#SVGID_1_"  overflow="visible"/>
			</clipPath>
			<polygon clip-path="url(#SVGID_2_)" fill="#16C493" points="825.3,560.7 134.7,560.7 330.2,292.2 629.8,292.2 			"/>
		</g>
	</g>
	<path fill="#FFFFFF" d="M659.6,294.2c0-35.8-30.4-65.6-64.3-67V213c0-31.1-50.7-56.8-111.6-56.8S372.1,181.9,372.1,213v156.2
		c0,31.1,50.7,56.8,111.6,56.8s111.6-25.7,111.6-56.8v-7.4C629.1,359.8,659.6,330.7,659.6,294.2z M595.3,333.4v-77.8
		c13.5,2,35.2,18.3,35.2,38.6C631.2,314.5,608.8,331.4,595.3,333.4z"/>
	<path fill="#16C493" d="M486.4,142c0,0-30.4-18.3-20.3-50.7C480.3,44,527,77.1,527,0c0,0,28.4,27.7,20.3,50.7
		C531.1,98.1,486.4,62.9,486.4,142z"/>
	<g>
		<g>
			<path id="SVGID_3_" fill="#FF8A33" d="M482.4,248.2c-53.4,0-88.6-21.6-88.6-35.2c0-13.5,35.2-35.2,88.6-35.2S571,199.5,571,213
				C571,226.6,535.8,248.2,482.4,248.2z"/>
		</g>
		<g>
			<defs>
				<path id="SVGID_4_" d="M482.4,248.2c-53.4,0-88.6-21.6-88.6-35.2c0-13.5,35.2-35.2,88.6-35.2S571,199.5,571,213
					C571,226.6,535.8,248.2,482.4,248.2z"/>
			</defs>
			<clipPath id="SVGID_5_">
				<use xlink:href="#SVGID_4_"  overflow="visible"/>
			</clipPath>
			<path clip-path="url(#SVGID_5_)" fill="#FF8A33" d="M482.4,268.5c-53.4,0-88.6-21.6-88.6-35.2c0-14.2,35.2-35.2,88.6-35.2
				s88.6,21.6,88.6,35.2C571,246.9,535.8,268.5,482.4,268.5z"/>
		</g>
	</g>
	<path fill="#16C493" d="M418.8,127.1c0,0-16.9-10.1-11.5-28.4c8.1-26.4,34.5-8.1,34.5-51.4c0,0,16.2,15.6,11.5,28.4
		C444.5,102.1,418.8,82.5,418.8,127.1z"/>
</g>
</svg>
