<?xml version="1.0" encoding="utf-8"?>
<!-- Generator: Adobe Illustrator 18.1.1, SVG Export Plug-In . SVG Version: 6.00 Build 0)  -->
<!DOCTYPE svg PUBLIC "-//W3C//DTD SVG 1.1//EN" "http://www.w3.org/Graphics/SVG/1.1/DTD/svg11.dtd">
<svg version="1.1" id="Layer_1" xmlns="http://www.w3.org/2000/svg" xmlns:xlink="http://www.w3.org/1999/xlink" x="0px" y="0px"
	 viewBox="0 0 279.4 177" enable-background="new 0 0 279.4 177" xml:space="preserve">
<g>
	<g>
		
			<line fill="none" stroke="#BEECD9" stroke-linecap="round" stroke-linejoin="round" stroke-miterlimit="10" x1="81.4" y1="146.9" x2="114.4" y2="146.9"/>
		<path fill="none" stroke="#16C493" stroke-width="2" stroke-linecap="round" stroke-linejoin="round" stroke-miterlimit="10" d="
			M114.5,143.5v7h-37c-1.1,0-2-0.9-2-2v-3c0-1.1,0.9-2,2-2H114.5z"/>
		
			<polygon fill="none" stroke="#16C493" stroke-width="2" stroke-linecap="round" stroke-linejoin="round" stroke-miterlimit="10" points="
			114.4,150.5 114.4,143.5 120.6,146.9 		"/>
		
			<line fill="none" stroke="#16C493" stroke-width="2" stroke-linecap="round" stroke-linejoin="round" stroke-miterlimit="10" x1="80.4" y1="150.4" x2="80.4" y2="143.4"/>
	</g>
	<g>
		
			<line fill="none" stroke="#BEECD9" stroke-linecap="round" stroke-linejoin="round" stroke-miterlimit="10" x1="95.9" y1="126.4" x2="95.9" y2="136.4"/>
		
			<line fill="none" stroke="#BEECD9" stroke-linecap="round" stroke-linejoin="round" stroke-miterlimit="10" x1="109.9" y1="126.4" x2="109.9" y2="136.4"/>
		<path fill="none" stroke="#16C493" stroke-width="2" stroke-linecap="round" stroke-linejoin="round" stroke-miterlimit="10" d="
			M112.4,136.8H92.9c-0.6,0-1-0.4-1-1v-9c0-0.6,0.4-1,1-1h19.5c0.6,0,1,0.4,1,1v9C113.4,136.4,113,136.8,112.4,136.8z"/>
		
			<ellipse fill="none" stroke="#BEECD9" stroke-linecap="round" stroke-linejoin="round" stroke-miterlimit="10" cx="102.4" cy="131.5" rx="4" ry="2"/>
	</g>
	<circle fill="#FFFFFF" stroke="#BEECD9" stroke-width="2" stroke-miterlimit="10" cx="141" cy="58.3" r="39.8"/>
	<g>
		<path fill="#FFFFFF" stroke="#16C493" stroke-width="4" stroke-linejoin="round" stroke-miterlimit="10" d="M141.4,42.1
			c-9.1,0-16.5,7.4-16.5,16.5s7.4,16.5,16.5,16.5c9.1,0,16.5-7.4,16.5-16.5S150.5,42.1,141.4,42.1z"/>
		<path fill="#16C493" d="M134.8,56.6c-1.1,0-2,0.9-2,2c0,1.1,0.9,2,2,2c1.1,0,2-0.9,2-2C136.8,57.5,135.9,56.6,134.8,56.6z"/>
		<path fill="#16C493" d="M146.7,56.6c-1.1,0-2,0.9-2,2c0,1.1,0.9,2,2,2c1.1,0,2-0.9,2-2C148.6,57.5,147.7,56.6,146.7,56.6z"/>
		<path fill="none" stroke="#16C493" stroke-width="2" stroke-linecap="round" stroke-linejoin="round" stroke-miterlimit="10" d="
			M137,64.5c0.6,2,2.3,3.3,4.4,3.3s3.8-1.3,4.4-3.3"/>
	</g>
	<g>
		<path fill="#16C493" d="M125.4,55.2c0.9,0.2,1.9,0.3,2.9,0.3c7.8,0,14.3-5.5,15.9-12.8c-0.9-0.2-1.9-0.3-2.9-0.3
			C133.5,42.4,127,47.9,125.4,55.2z"/>
		<path fill="#16C493" d="M141.3,42.4c2,6.8,8.2,11.7,15.6,11.7C155,47.4,148.8,42.4,141.3,42.4z"/>
		<g>
			<path fill="#16C493" d="M141.8,45.6c0,0.4,0,0.7,0,1.1c0,3-0.9,5.8-2.4,8.2c4.1-1.5,7.4-4.7,9-8.7C146.2,46,144,45.7,141.8,45.6z
				"/>
		</g>
	</g>
	<g>
		<g>
			<circle fill="#BEECD9" cx="180.4" cy="58.3" r="11.8"/>
			<path fill="#16C493" d="M179.3,63.7c-0.3,0-0.6-0.1-0.8-0.4l-2.6-3.5c-0.3-0.4-0.3-1.1,0.2-1.4c0.4-0.3,1.1-0.3,1.4,0.2l1.7,2.3
				l4.3-6.9c0.3-0.5,0.9-0.6,1.4-0.3c0.5,0.3,0.6,0.9,0.3,1.4l-5.1,8.2C180,63.5,179.7,63.7,179.3,63.7
				C179.3,63.7,179.3,63.7,179.3,63.7L179.3,63.7z"/>
		</g>
		<g>
			<circle fill="#BEECD9" cx="102.4" cy="58.3" r="11.8"/>
			<path fill="#16C493" d="M105.8,54.1c-0.9-0.9-2.3-0.9-3.2,0l-5.1,5.1l0,3.2h3.2l5.2-5.2C106.6,56.4,106.6,55,105.8,54.1z
				 M100.1,61.3h-1.6v-1.6c0.4-0.4,1.2-0.4,1.6,0C100.6,60.2,100.6,60.9,100.1,61.3z M104.9,56.5l-1.6-1.6c0.4-0.4,1.2-0.4,1.6,0
				C105.4,55.4,105.4,56.1,104.9,56.5z"/>
		</g>
	</g>
	<g>
		
			<rect x="156.6" y="122.9" fill="none" stroke="#16C493" stroke-width="2" stroke-linecap="round" stroke-linejoin="round" stroke-miterlimit="10" width="47.3" height="30.5"/>
		
			<path fill="#FFFFFF" stroke="#BEECD9" stroke-width="2" stroke-linecap="round" stroke-linejoin="round" stroke-miterlimit="10" d="
			M200.6,150.5c0-1.9-20.2-1.9-20.2,0c0-1.9-20.6-1.9-20.6,0v-27.6c0-1.9,20.6-1.9,20.6,0c0-1.9,20.2-1.9,20.2,0V150.5z"/>
		<line fill="none" stroke="#BEECD9" stroke-width="2" stroke-miterlimit="10" x1="180.4" y1="150.4" x2="180.4" y2="122.4"/>
		
			<line fill="none" stroke="#BEECD9" stroke-linecap="round" stroke-linejoin="round" stroke-miterlimit="10" x1="169.4" y1="125.9" x2="177.4" y2="125.9"/>
		
			<line fill="none" stroke="#BEECD9" stroke-linecap="round" stroke-linejoin="round" stroke-miterlimit="10" x1="169.4" y1="128.9" x2="177.4" y2="128.9"/>
		
			<line fill="none" stroke="#BEECD9" stroke-linecap="round" stroke-linejoin="round" stroke-miterlimit="10" x1="163.4" y1="131.9" x2="177.4" y2="131.9"/>
		
			<line fill="none" stroke="#BEECD9" stroke-linecap="round" stroke-linejoin="round" stroke-miterlimit="10" x1="163.4" y1="134.9" x2="177.4" y2="134.9"/>
		
			<line fill="none" stroke="#BEECD9" stroke-linecap="round" stroke-linejoin="round" stroke-miterlimit="10" x1="163.4" y1="137.9" x2="177.4" y2="137.9"/>
		
			<line fill="none" stroke="#BEECD9" stroke-linecap="round" stroke-linejoin="round" stroke-miterlimit="10" x1="163.4" y1="140.9" x2="177.4" y2="140.9"/>
		
			<line fill="none" stroke="#BEECD9" stroke-linecap="round" stroke-linejoin="round" stroke-miterlimit="10" x1="163.4" y1="143.9" x2="177.4" y2="143.9"/>
		
			<line fill="none" stroke="#BEECD9" stroke-linecap="round" stroke-linejoin="round" stroke-miterlimit="10" x1="183.4" y1="125.9" x2="197.4" y2="125.9"/>
		
			<line fill="none" stroke="#BEECD9" stroke-linecap="round" stroke-linejoin="round" stroke-miterlimit="10" x1="183.4" y1="128.9" x2="197.4" y2="128.9"/>
		
			<line fill="none" stroke="#BEECD9" stroke-linecap="round" stroke-linejoin="round" stroke-miterlimit="10" x1="183.4" y1="131.9" x2="197.4" y2="131.9"/>
		
			<line fill="none" stroke="#BEECD9" stroke-linecap="round" stroke-linejoin="round" stroke-miterlimit="10" x1="183.4" y1="134.9" x2="197.4" y2="134.9"/>
		
			<line fill="none" stroke="#BEECD9" stroke-linecap="round" stroke-linejoin="round" stroke-miterlimit="10" x1="183.4" y1="137.9" x2="197.4" y2="137.9"/>
		
			<line fill="none" stroke="#BEECD9" stroke-linecap="round" stroke-linejoin="round" stroke-miterlimit="10" x1="183.4" y1="140.9" x2="197.4" y2="140.9"/>
		
			<line fill="none" stroke="#BEECD9" stroke-linecap="round" stroke-linejoin="round" stroke-miterlimit="10" x1="183.4" y1="143.9" x2="197.4" y2="143.9"/>
		
			<rect x="163.4" y="125.5" fill="#BEECD9" stroke="#BEECD9" stroke-linecap="round" stroke-linejoin="round" stroke-miterlimit="10" width="4" height="4"/>
	</g>
</g>
<circle fill="none" stroke="#FF8A33" stroke-width="2" stroke-miterlimit="10" cx="220" cy="125" r="4"/>
</svg>
