<?xml version="1.0" encoding="utf-8"?>
<!-- Generator: Adobe Illustrator 18.1.1, SVG Export Plug-In . SVG Version: 6.00 Build 0)  -->
<!DOCTYPE svg PUBLIC "-//W3C//DTD SVG 1.1//EN" "http://www.w3.org/Graphics/SVG/1.1/DTD/svg11.dtd">
<svg version="1.1" id="Layer_1" xmlns="http://www.w3.org/2000/svg" xmlns:xlink="http://www.w3.org/1999/xlink" x="0px" y="0px"
	 viewBox="0 0 279.4 177" enable-background="new 0 0 279.4 177" xml:space="preserve">
<g>
	
		<rect x="79" y="32.5" fill="#BEECD9" stroke="#BEECD9" stroke-width="2" stroke-linejoin="round" stroke-miterlimit="10" width="136" height="115"/>
	
		<rect x="76" y="29.5" fill="#FFFFFF" stroke="#BEECD9" stroke-width="2" stroke-linejoin="round" stroke-miterlimit="10" width="136" height="115"/>
	
		<line fill="none" stroke="#BEECD9" stroke-width="2" stroke-linejoin="round" stroke-miterlimit="10" x1="77.4" y1="38.4" x2="212.4" y2="38.4"/>
	
		<line fill="none" stroke="#BEECD9" stroke-width="2" stroke-linecap="round" stroke-linejoin="round" stroke-miterlimit="10" x1="91.4" y1="34.4" x2="208.4" y2="34.4"/>
	<g>
		
			<line fill="none" stroke="#BEECD9" stroke-width="2" stroke-linecap="round" stroke-linejoin="round" stroke-miterlimit="10" x1="197.4" y1="45.4" x2="202.4" y2="45.4"/>
		
			<line fill="none" stroke="#BEECD9" stroke-width="2" stroke-linecap="round" stroke-linejoin="round" stroke-miterlimit="10" x1="189.4" y1="45.4" x2="194.4" y2="45.4"/>
		
			<line fill="none" stroke="#BEECD9" stroke-width="2" stroke-linecap="round" stroke-linejoin="round" stroke-miterlimit="10" x1="181.4" y1="45.4" x2="186.4" y2="45.4"/>
		
			<line fill="none" stroke="#BEECD9" stroke-width="2" stroke-linecap="round" stroke-linejoin="round" stroke-miterlimit="10" x1="173.4" y1="45.4" x2="178.4" y2="45.4"/>
	</g>
	<g>
		
			<rect x="126.9" y="55.5" fill="none" stroke="#BEECD9" stroke-width="2" stroke-linejoin="round" stroke-miterlimit="10" width="13" height="15"/>
		
			<line fill="none" stroke="#BEECD9" stroke-width="2" stroke-linecap="round" stroke-linejoin="round" stroke-miterlimit="10" x1="145.4" y1="56.4" x2="161.4" y2="56.4"/>
		
			<line fill="none" stroke="#BEECD9" stroke-width="2" stroke-linecap="round" stroke-linejoin="round" stroke-miterlimit="10" x1="145.4" y1="61.4" x2="161.4" y2="61.4"/>
		
			<line fill="none" stroke="#BEECD9" stroke-width="2" stroke-linecap="round" stroke-linejoin="round" stroke-miterlimit="10" x1="145.4" y1="66.4" x2="161.4" y2="66.4"/>
		
			<line fill="none" stroke="#BEECD9" stroke-width="2" stroke-linecap="round" stroke-linejoin="round" stroke-miterlimit="10" x1="145.4" y1="71.4" x2="161.4" y2="71.4"/>
		
			<line fill="none" stroke="#BEECD9" stroke-width="2" stroke-linecap="round" stroke-linejoin="round" stroke-miterlimit="10" x1="127.4" y1="76.4" x2="161.4" y2="76.4"/>
		
			<line fill="none" stroke="#BEECD9" stroke-width="2" stroke-linecap="round" stroke-linejoin="round" stroke-miterlimit="10" x1="127.4" y1="81.4" x2="161.4" y2="81.4"/>
		
			<line fill="none" stroke="#BEECD9" stroke-width="2" stroke-linecap="round" stroke-linejoin="round" stroke-miterlimit="10" x1="127.4" y1="86.4" x2="161.4" y2="86.4"/>
		
			<line fill="none" stroke="#BEECD9" stroke-width="2" stroke-linecap="round" stroke-linejoin="round" stroke-miterlimit="10" x1="127.4" y1="91.4" x2="161.4" y2="91.4"/>
	</g>
	<g>
		
			<line fill="none" stroke="#BEECD9" stroke-width="2" stroke-linecap="round" stroke-linejoin="round" stroke-miterlimit="10" x1="170.4" y1="56.4" x2="204.4" y2="56.4"/>
		
			<line fill="none" stroke="#BEECD9" stroke-width="2" stroke-linecap="round" stroke-linejoin="round" stroke-miterlimit="10" x1="170.4" y1="61.4" x2="204.4" y2="61.4"/>
		
			<line fill="none" stroke="#BEECD9" stroke-width="2" stroke-linecap="round" stroke-linejoin="round" stroke-miterlimit="10" x1="170.4" y1="66.4" x2="204.4" y2="66.4"/>
		
			<line fill="none" stroke="#BEECD9" stroke-width="2" stroke-linecap="round" stroke-linejoin="round" stroke-miterlimit="10" x1="170.4" y1="71.4" x2="204.4" y2="71.4"/>
		
			<line fill="none" stroke="#BEECD9" stroke-width="2" stroke-linecap="round" stroke-linejoin="round" stroke-miterlimit="10" x1="170.4" y1="76.4" x2="204.4" y2="76.4"/>
		
			<line fill="none" stroke="#BEECD9" stroke-width="2" stroke-linecap="round" stroke-linejoin="round" stroke-miterlimit="10" x1="170.4" y1="81.4" x2="204.4" y2="81.4"/>
		
			<line fill="none" stroke="#BEECD9" stroke-width="2" stroke-linecap="round" stroke-linejoin="round" stroke-miterlimit="10" x1="170.4" y1="86.4" x2="204.4" y2="86.4"/>
		
			<line fill="none" stroke="#BEECD9" stroke-width="2" stroke-linecap="round" stroke-linejoin="round" stroke-miterlimit="10" x1="170.4" y1="91.4" x2="204.4" y2="91.4"/>
	</g>
	<circle fill="#BEECD9" cx="80" cy="33.5" r="1"/>
	<circle fill="#BEECD9" cx="83" cy="33.5" r="1"/>
	<circle fill="#BEECD9" cx="86" cy="33.5" r="1"/>
	<g>
		
			<path fill="#BEECD9" stroke="#16C493" stroke-width="2" stroke-linecap="round" stroke-linejoin="round" stroke-miterlimit="10" d="
			M267.4,90.1c-3.9,4.1-9.3,6.6-15.4,6.6c-6.1,0-11.5-2.6-15.4-6.6l2.2-2.2c3.3,3.5,8,5.7,13.2,5.7c5.2,0,9.8-2.2,13.1-5.7
			L267.4,90.1z"/>
		<g>
			
				<circle fill="#BEECD9" stroke="#16C493" stroke-width="2" stroke-linecap="round" stroke-linejoin="round" stroke-miterlimit="10" cx="252" cy="75.5" r="5"/>
			<circle fill="#16C493" cx="252" cy="75.5" r="2"/>
			
				<rect x="250.7" y="62.5" fill="#BEECD9" stroke="#16C493" stroke-width="2" stroke-linecap="round" stroke-linejoin="round" stroke-miterlimit="10" width="3" height="8"/>
		</g>
		
			<polygon fill="#BEECD9" stroke="#16C493" stroke-width="2" stroke-linecap="round" stroke-linejoin="round" stroke-miterlimit="10" points="
			250.8,80.5 248,79.5 238.8,108.1 238.6,113.3 241.6,109 		"/>
		
			<polygon fill="#BEECD9" stroke="#16C493" stroke-width="2" stroke-linecap="round" stroke-linejoin="round" stroke-miterlimit="10" points="
			253.3,80.5 256.2,79.5 265.4,108.1 265.5,113.3 262.5,109 		"/>
	</g>
	<g>
		<g>
			
				<line fill="none" stroke="#BEECD9" stroke-linecap="round" stroke-linejoin="round" stroke-miterlimit="10" x1="15.9" y1="97.4" x2="15.9" y2="121.4"/>
			<path fill="none" stroke="#16C493" stroke-width="2" stroke-linecap="round" stroke-linejoin="round" stroke-miterlimit="10" d="
				M18.1,121.2h-5V95.1c0-1.1,0.9-2,2-2h1c1.1,0,2,0.9,2,2V121.2z"/>
			
				<polygon fill="none" stroke="#16C493" stroke-width="2" stroke-linecap="round" stroke-linejoin="round" stroke-miterlimit="10" points="
				13.1,122.4 18.1,122.4 15.6,126.8 			"/>
			
				<line fill="none" stroke="#16C493" stroke-width="2" stroke-linecap="round" stroke-linejoin="round" stroke-miterlimit="10" x1="14.4" y1="98.4" x2="18.4" y2="98.4"/>
		</g>
		<g>
			<rect x="25" y="94.8" fill="#BEECD9" width="23" height="6"/>
			
				<rect x="25" y="94.8" fill="none" stroke="#16C493" stroke-width="2" stroke-linecap="round" stroke-linejoin="round" stroke-miterlimit="10" width="23" height="29"/>
			<rect x="43" y="118.8" fill="#BEECD9" width="3" height="3"/>
			<rect x="43" y="114.8" fill="#BEECD9" width="3" height="3"/>
			<rect x="39" y="118.8" fill="#BEECD9" width="3" height="3"/>
			<line fill="none" stroke="#BEECD9" stroke-miterlimit="10" x1="31.4" y1="104.9" x2="41.4" y2="104.9"/>
			<line fill="none" stroke="#BEECD9" stroke-miterlimit="10" x1="31.4" y1="106.9" x2="41.4" y2="106.9"/>
		</g>
	</g>
	<g>
		
			<rect x="82.4" y="55.5" fill="none" stroke="#BEECD9" stroke-width="2" stroke-linecap="round" stroke-linejoin="round" stroke-miterlimit="10" stroke-dasharray="3,4" width="35.6" height="36"/>
		<g>
			
				<line fill="none" stroke="#BEECD9" stroke-width="2" stroke-linejoin="round" stroke-miterlimit="10" x1="101.4" y1="70.4" x2="101.4" y2="76.4"/>
			
				<line fill="none" stroke="#BEECD9" stroke-width="2" stroke-linejoin="round" stroke-miterlimit="10" x1="104.4" y1="74.4" x2="98.4" y2="74.4"/>
		</g>
	</g>
	<g>
		
			<rect x="60" y="44.5" fill="#16C493" stroke="#16C493" stroke-width="2" stroke-linejoin="round" stroke-miterlimit="10" width="35" height="33"/>
		<rect x="58" y="42.5" fill="#FFFFFF" width="35" height="33"/>
		<polyline fill="none" stroke="#BEECD9" stroke-width="2" stroke-linejoin="round" stroke-miterlimit="10" points="73.2,67.5 
			85.6,55.1 93,62.5 		"/>
		<polyline fill="none" stroke="#BEECD9" stroke-width="2" stroke-linejoin="round" stroke-miterlimit="10" points="58,74.5 
			69.4,63.1 81.8,75.5 		"/>
		<circle fill="none" stroke="#FF8A33" stroke-width="2" stroke-miterlimit="10" cx="68" cy="53.5" r="4"/>
		
			<rect x="58" y="42.5" fill="none" stroke="#16C493" stroke-width="2" stroke-linecap="round" stroke-linejoin="round" stroke-miterlimit="10" width="35" height="33"/>
	</g>
	<g>
		<g>
			<polyline fill="none" stroke="#BEECD9" stroke-width="2" stroke-linejoin="round" stroke-miterlimit="10" points="162.4,129.8 
				184.5,107.5 204.7,127.7 			"/>
			<polyline fill="none" stroke="#BEECD9" stroke-width="2" stroke-linejoin="round" stroke-miterlimit="10" points="127,137.9 
				149.1,116.1 170.8,138 			"/>
		</g>
		<circle fill="none" stroke="#BEECD9" stroke-width="2" stroke-miterlimit="10" cx="168" cy="110.5" r="4"/>
		
			<rect x="127" y="101.5" fill="none" stroke="#BEECD9" stroke-width="2" stroke-linecap="round" stroke-linejoin="round" stroke-miterlimit="10" width="78" height="36.6"/>
	</g>
</g>
</svg>
