<?xml version="1.0" encoding="utf-8"?>
<!-- Generator: Adobe Illustrator 18.1.1, SVG Export Plug-In . SVG Version: 6.00 Build 0)  -->
<!DOCTYPE svg PUBLIC "-//W3C//DTD SVG 1.1//EN" "http://www.w3.org/Graphics/SVG/1.1/DTD/svg11.dtd">
<svg version="1.1" id="Layer_1" xmlns="http://www.w3.org/2000/svg" xmlns:xlink="http://www.w3.org/1999/xlink" x="0px" y="0px"
	 viewBox="0 0 79.5 84.1" enable-background="new 0 0 79.5 84.1" xml:space="preserve">
<g>
	<circle fill="#BEECD9" cx="39.7" cy="44.4" r="39.8"/>
	<g>
		<defs>
			<circle id="SVGID_1_" cx="39.7" cy="44.4" r="39.8"/>
		</defs>
		<clipPath id="SVGID_2_">
			<use xlink:href="#SVGID_1_"  overflow="visible"/>
		</clipPath>
		<polygon clip-path="url(#SVGID_2_)" fill="#16C493" points="90.8,84.2 -11.3,84.2 17.6,44.5 61.9,44.5 		"/>
	</g>
	<path fill="#FF8A33" d="M30.6,50.9V3c0-1.6,1.4-3,3.2-3h11.9c1.8,0,3.2,1.3,3.2,3v47.9H30.6z"/>
	<rect x="36.8" y="0" fill="#EF7D30" width="6" height="51.3"/>
	<path fill="#00FFFF" d="M39.8,51.3"/>
	<path fill="#FFFFFF" d="M30.6,51.3L30.6,51.3C30.7,51.3,30.7,51.3,30.6,51.3L30.6,51.3z"/>
	<path fill="#FFFFFF" d="M48.8,51.3C48.8,51.3,48.8,51.3,48.8,51.3L48.8,51.3L48.8,51.3z"/>
	<path fill="#FFFFFF" d="M45.7,47.7c-1.4,0-2.6,1-3,2.3c-0.4-1.3-1.6-2.3-3-2.3c-1.4,0-2.6,1-3,2.3c-0.4-1.3-1.6-2.3-3-2.3
		c-1.7,0-3.1,1.4-3.1,3.1c0,0.1,0,0.3,0,0.4c0,0,0,0,0,0l1.2,2l3.3,5.6l4.6,7.7l4.6-7.7l3.3-5.7l1.2-2c0,0,0,0,0-0.1
		c0-0.1,0-0.3,0-0.4C48.9,49.1,47.5,47.7,45.7,47.7z"/>
	<g>
		<defs>
			<rect id="SVGID_3_" x="35.4" y="60.6" width="10.1" height="9.2"/>
		</defs>
		<clipPath id="SVGID_4_">
			<use xlink:href="#SVGID_3_"  overflow="visible"/>
		</clipPath>
		<path clip-path="url(#SVGID_4_)" d="M42.7,51.7c-0.4,1.3-1.6,2.3-3,2.3c-1.4,0-2.6-1-3-2.3c-0.4,1.3-1.6,2.3-3,2.3
			c-0.7,0-1.4-0.2-1.9-0.6l3.3,5.6l4.6,7.7l4.6-7.7l3.3-5.7c-0.5,0.4-1.2,0.7-1.9,0.7C44.3,54,43.1,53,42.7,51.7z"/>
	</g>
</g>
</svg>
