<?xml version="1.0" encoding="utf-8"?>
<!-- Generator: Adobe Illustrator 18.1.1, SVG Export Plug-In . SVG Version: 6.00 Build 0)  -->
<!DOCTYPE svg PUBLIC "-//W3C//DTD SVG 1.1//EN" "http://www.w3.org/Graphics/SVG/1.1/DTD/svg11.dtd">
<svg version="1.1" id="Layer_1" xmlns="http://www.w3.org/2000/svg" xmlns:xlink="http://www.w3.org/1999/xlink" x="0px" y="0px"
	 viewBox="0 0 712.5 308" enable-background="new 0 0 712.5 308" xml:space="preserve">
<g>
	<g>
		<rect x="117.1" y="5" fill="#BEECD9" width="485.4" height="281"/>
		<path fill="#BEECD9" d="M602.5,288H117.1c-1.1,0-2-0.9-2-2V5c0-1.1,0.9-2,2-2h485.4c1.1,0,2,0.9,2,2v281
			C604.5,287.1,603.6,288,602.5,288z M119.1,284h481.4V7H119.1V284z"/>
	</g>
	<g>
		<rect x="114.5" y="1" fill="#FFFFFF" width="485.4" height="283"/>
		<path fill="#BEECD9" d="M599.9,285H114.5c-0.6,0-1-0.4-1-1V1c0-0.6,0.4-1,1-1h485.4c0.6,0,1,0.4,1,1v283
			C600.9,284.6,600.5,285,599.9,285z M115.5,283h483.4V2H115.5V283z"/>
	</g>
	<rect x="114.5" y="18" fill="#BEECD9" width="485" height="2"/>
	<path fill="#BEECD9" d="M585.5,12h-439c-1.1,0-2-0.9-2-2s0.9-2,2-2h439c1.1,0,2,0.9,2,2S586.6,12,585.5,12z"/>
	<g>
		<circle fill="#BEECD9" cx="123.5" cy="10" r="2"/>
		<circle fill="#BEECD9" cx="129.5" cy="10" r="2"/>
		<circle fill="#BEECD9" cx="135.5" cy="10" r="2"/>
	</g>
	<g>
		<rect x="255.7" y="47.5" fill="#BEECD9" width="200" height="99"/>
		<path fill="#FFFFFF" d="M355.7,84.5c-6.9,0-12.5,5.6-12.5,12.5s5.6,12.5,12.5,12.5s12.5-5.6,12.5-12.5S362.6,84.5,355.7,84.5z
			 M352.6,91.5L362,97l-9.4,5.5V91.5z"/>
	</g>
	<g>
		<rect x="255.5" y="158" fill="#BEECD9" width="200" height="4"/>
		<rect x="255.5" y="168" fill="#BEECD9" width="200" height="4"/>
		<rect x="255.5" y="178" fill="#BEECD9" width="200" height="4"/>
		<rect x="255.5" y="188" fill="#BEECD9" width="200" height="4"/>
		<rect x="255.5" y="198" fill="#BEECD9" width="125" height="4"/>
	</g>
	<g>
		<rect x="255.5" y="218" fill="#BEECD9" width="200" height="4"/>
		<rect x="255.5" y="228" fill="#BEECD9" width="200" height="4"/>
		<rect x="255.5" y="238" fill="#BEECD9" width="200" height="4"/>
		<rect x="255.5" y="248" fill="#BEECD9" width="200" height="4"/>
		<rect x="255.5" y="258" fill="#BEECD9" width="82" height="4"/>
	</g>
	<g>
		<g>
			<path fill="#FFFFFF" d="M692,239c-9.1,0-16.5,7.4-16.5,16.5S682.9,272,692,272s16.5-7.4,16.5-16.5S701.1,239,692,239z"/>
			<path fill="#16C493" d="M692,274c-10.2,0-18.5-8.3-18.5-18.5S681.8,237,692,237s18.5,8.3,18.5,18.5S702.2,274,692,274z M692,241
				c-8,0-14.5,6.5-14.5,14.5S684,270,692,270s14.5-6.5,14.5-14.5S700,241,692,241z"/>
		</g>
		<g>
			<path fill="#BEECD9" d="M706.5,249h-30c2.1-6.2,9.8-10.8,17.2-9.8C693.7,239.2,706.5,238.3,706.5,249z"/>
			<path fill="#16C493" d="M706.5,250h-30c-0.3,0-0.6-0.2-0.8-0.4c-0.2-0.3-0.2-0.6-0.1-0.9c2.1-6.1,9-10.6,16.2-10.6
				c0.7,0,1.3,0,2,0.1c0.1,0,0.3,0,0.6,0c6.4,0,13.2,2.9,13.2,10.8C707.5,249.6,707,250,706.5,250z M678,248h27.5
				c-0.7-7.3-8.6-7.8-11.1-7.8c-0.4,0-0.6,0-0.6,0c-0.1,0-0.1,0-0.2,0c-0.6-0.1-1.2-0.1-1.8-0.1C685.9,240,680.3,243.4,678,248z"/>
		</g>
		<g>
			<path fill="#16C493" d="M685.4,253.5c-1.1,0-2,0.9-2,2c0,1.1,0.9,2,2,2c1.1,0,2-0.9,2-2C687.4,254.4,686.5,253.5,685.4,253.5z"/>
			<path fill="#16C493" d="M697.3,253.5c-1.1,0-2,0.9-2,2c0,1.1,0.9,2,2,2c1.1,0,2-0.9,2-2C699.3,254.4,698.4,253.5,697.3,253.5z"/>
			<path fill="#16C493" d="M673.9,254.3c0.4,0.1,0.8,0.1,1.2,0.1c3.2,0,5.8-2.2,6.5-5.2c-0.4-0.1-0.8-0.1-1.2-0.1
				C677.2,249.1,674.6,251.3,673.9,254.3z"/>
			
				<ellipse transform="matrix(0.9092 0.4163 -0.4163 0.9092 166.3846 -260.6752)" fill="#16C493" cx="680.9" cy="251.2" rx="1.4" ry="2.9"/>
		</g>
		<path fill="#16C493" d="M692,266.7c-1.7,0-3.3-0.8-4.4-2.1c-0.3-0.4-0.3-1.1,0.2-1.4c0.4-0.3,1.1-0.3,1.4,0.2
			c0.7,0.9,1.7,1.4,2.8,1.4s2.1-0.5,2.8-1.4c0.3-0.4,1-0.5,1.4-0.2c0.4,0.3,0.5,1,0.2,1.4C695.3,266,693.7,266.7,692,266.7z"/>
		<g>
			<path fill="#BEECD9" d="M706.5,249c2.5-4.4,2.9-8.9,0.6-11.1c-3.2-3-10.1-0.9-15.5,4.7c-2,2-3.4,4.3-4.4,6.4L706.5,249z"/>
			<path fill="#16C493" d="M706.5,250L706.5,250l-19.3,0c-0.3,0-0.7-0.2-0.8-0.5s-0.2-0.6-0.1-0.9c1-2.3,2.6-4.6,4.6-6.7
				c3.8-3.9,8.5-6.4,12.3-6.4c1.9,0,3.4,0.6,4.6,1.7c2.6,2.5,2.5,7.3-0.4,12.3C707.2,249.8,706.8,250,706.5,250z M688.8,248l17.1,0
				c2.1-3.9,2.3-7.6,0.5-9.4c-0.8-0.7-1.9-1.1-3.2-1.1c-3.3,0-7.5,2.2-10.9,5.8C690.9,244.7,689.7,246.3,688.8,248z"/>
		</g>
	</g>
	<g>
		<g>
			<g>
				<path fill="#FFFFFF" d="M538,77c-9.1,0-16.5,7.4-16.5,16.5S528.9,110,538,110s16.5-7.4,16.5-16.5S547.1,77,538,77z"/>
				<path fill="#16C493" d="M538,112c-10.2,0-18.5-8.3-18.5-18.5S527.8,75,538,75s18.5,8.3,18.5,18.5S548.2,112,538,112z M538,79
					c-8,0-14.5,6.5-14.5,14.5S530,108,538,108s14.5-6.5,14.5-14.5S546,79,538,79z"/>
			</g>
			<g>
				<path fill="#16C493" d="M531.4,91.5c-1.1,0-2,0.9-2,2s0.9,2,2,2c1.1,0,2-0.9,2-2S532.5,91.5,531.4,91.5z"/>
				<path fill="#16C493" d="M543.3,91.5c-1.1,0-2,0.9-2,2s0.9,2,2,2c1.1,0,2-0.9,2-2S544.4,91.5,543.3,91.5z"/>
				<path fill="#16C493" d="M521.9,89.9c0.9,0.2,1.9,0.3,2.9,0.3c7.9,0,14.5-5.5,16.1-12.9c-0.9-0.2-1.9-0.3-2.9-0.3
					C530.1,77,523.5,82.5,521.9,89.9z"/>
				<path fill="#16C493" d="M538,77c2,6.9,8.3,11.9,15.8,11.9C551.8,82,545.5,77,538,77z"/>
			</g>
			<path fill="#16C493" d="M538,103.7c-2.5,0-4.6-1.6-5.4-4c-0.2-0.5,0.1-1.1,0.7-1.2c0.5-0.2,1.1,0.1,1.2,0.7
				c0.5,1.5,1.8,2.6,3.4,2.6s3-1,3.4-2.6c0.2-0.5,0.7-0.8,1.2-0.7c0.5,0.2,0.8,0.7,0.7,1.2C542.6,102.1,540.5,103.7,538,103.7z"/>
		</g>
		<g>
			<path fill="#16C493" d="M522.2,87.8c-0.3,0-0.5-0.1-0.7-0.3l-2.7-2.7c-0.4-0.4-0.4-1,0-1.4s1-0.4,1.4,0l2.7,2.7
				c0.4,0.4,0.4,1,0,1.4C522.7,87.7,522.5,87.8,522.2,87.8z"/>
			<path fill="#16C493" d="M521,90.7c-0.3,0-0.5-0.1-0.7-0.3l-3.6-3.5c-0.4-0.4-0.4-1,0-1.4c0.4-0.4,1-0.4,1.4,0l3.6,3.5
				c0.4,0.4,0.4,1,0,1.4C521.6,90.6,521.3,90.7,521,90.7z"/>
			<path fill="#16C493" d="M517.4,87.1c-0.4,0-0.8-0.3-1-0.7l-0.8-2.9c-0.1-0.3,0-0.7,0.3-1c0.3-0.3,0.6-0.4,1-0.3l2.9,0.8
				c0.5,0.1,0.8,0.7,0.7,1.2c-0.1,0.5-0.7,0.8-1.2,0.7l-1.2-0.3l0.3,1.2c0.2,0.5-0.2,1.1-0.7,1.2C517.5,87.1,517.4,87.1,517.4,87.1z
				"/>
		</g>
	</g>
	<g>
		<g>
			<path fill="#FFFFFF" d="M692.5,167c-9.1,0-16.5,7.4-16.5,16.5s7.4,16.5,16.5,16.5c9.1,0,16.5-7.4,16.5-16.5S701.6,167,692.5,167z
				"/>
			<path fill="#16C493" d="M692.5,202c-10.2,0-18.5-8.3-18.5-18.5s8.3-18.5,18.5-18.5s18.5,8.3,18.5,18.5S702.7,202,692.5,202z
				 M692.5,169c-8,0-14.5,6.5-14.5,14.5s6.5,14.5,14.5,14.5s14.5-6.5,14.5-14.5S700.5,169,692.5,169z"/>
		</g>
		<g>
			<path fill="#16C493" d="M686.5,181.5c-1.1,0-2,0.9-2,2s0.9,2,2,2c1.1,0,2-0.9,2-2S687.6,181.5,686.5,181.5z"/>
			<path fill="#16C493" d="M698.4,181.5c-1.1,0-2,0.9-2,2s0.9,2,2,2c1.1,0,2-0.9,2-2S699.5,181.5,698.4,181.5z"/>
		</g>
		<g>
			<path fill="#BEECD9" d="M690.6,166.6c-9.1,0-14.4,9.7-14.2,14c8.3,0.1,15.2-2.3,19.6-6.4c3,2.9,8,4.7,12.5,4.7
				C707.7,173.8,703.7,166.6,690.6,166.6z"/>
			<path fill="#16C493" d="M677,181.6l-0.6,0c-0.5,0-1-0.4-1-0.9c-0.2-3,1.7-7.2,4.6-10.2c2.1-2.2,5.6-4.8,10.5-4.8
				c15.1,0,18.3,9.2,18.9,13.1c0,0.3,0,0.6-0.2,0.8c-0.2,0.2-0.5,0.4-0.8,0.4c0,0,0,0,0,0c-4.5,0-9.4-1.7-12.5-4.3
				C691.4,179.4,684.7,181.6,677,181.6z M690.6,167.6c-4.2,0-7.3,2.3-9.1,4.2c-2.4,2.6-3.8,5.7-4,7.8c7.4-0.1,13.7-2.2,17.9-6.1
				c0.4-0.4,1-0.4,1.4,0c2.4,2.4,6.5,4,10.5,4.3C706.2,174,702.7,167.6,690.6,167.6z"/>
		</g>
		<path fill="#16C493" d="M692.5,193.7c-1.6,0-3.2-0.8-4.3-2.1c-0.2-0.3-0.3-0.7-0.1-1.1s0.5-0.6,0.9-0.6h7.1c0.4,0,0.7,0.2,0.9,0.6
			s0.1,0.8-0.1,1.1C695.7,193,694.1,193.7,692.5,193.7z"/>
		<g>
			<g>
				<path fill="#BEECD9" d="M675.3,180.8l-1.8,19.2h13C686.5,200,675.3,194,675.3,180.8z"/>
				<path fill="#16C493" d="M686.5,201h-13c-0.3,0-0.5-0.1-0.7-0.3s-0.3-0.5-0.3-0.8l1.8-19.2c0-0.5,0.5-0.9,1-0.9c0.5,0,1,0.5,1,1
					c0,12.4,10.6,18.2,10.7,18.3c0.4,0.2,0.6,0.7,0.5,1.1C687.3,200.7,687,201,686.5,201z M674.6,199h8.7c-2.4-1.9-5.9-5.4-7.7-10.5
					L674.6,199z"/>
			</g>
			<g>
				<path fill="#BEECD9" d="M709.7,180.8l1.8,19.2h-13C698.5,200,709.7,194,709.7,180.8z"/>
				<path fill="#16C493" d="M711.5,201h-13c-0.5,0-0.9-0.3-1-0.8c-0.1-0.4,0.1-0.9,0.5-1.1c0.1-0.1,10.7-5.9,10.7-18.3
					c0-0.5,0.4-1,1-1c0.5,0,1,0.4,1,0.9l1.8,19.2c0,0.3-0.1,0.6-0.3,0.8S711.8,201,711.5,201z M701.7,199h8.7l-1-10.5
					C707.6,193.6,704.2,197.1,701.7,199z"/>
			</g>
		</g>
	</g>
	<path fill="#BEECD9" d="M186.5,62c0-0.6-0.4-1-1-1H4.5c-0.6,0-1,0.4-1,1v245c0,0.6,0.4,1,1,1h181c0.6,0,1-0.4,1-1V62z"/>
	<g>
		<rect x="1" y="58.4" fill="#FFFFFF" width="181.1" height="244.9"/>
		<path fill="#BEECD9" d="M182.1,304.2H1c-0.6,0-1-0.4-1-1V58.4c0-0.6,0.4-1,1-1h181.1c0.6,0,1,0.4,1,1v244.9
			C183.1,303.8,182.6,304.2,182.1,304.2z M2,302.2h179.1V59.4H2V302.2z"/>
	</g>
	<g>
		<g>
			<rect x="55.5" y="185.8" fill="#16C493" width="105" height="5.5"/>
			<g>
				<rect x="55.5" y="195.8" fill="#FFFFFF" width="51.4" height="5.5"/>
				<path fill="#BEECD9" d="M106.9,202.3H55.5c-0.6,0-1-0.4-1-1v-5.5c0-0.6,0.4-1,1-1h51.4c0.6,0,1,0.4,1,1v5.5
					C107.9,201.8,107.4,202.3,106.9,202.3z M56.5,200.3h49.4v-3.5H56.5V200.3z"/>
			</g>
		</g>
		<g>
			<path fill="#BEECD9" d="M35.5,193.5c0,1.7-0.4,3.3-1.3,4.8s-2,2.6-3.5,3.5c-1.5,0.8-3,1.3-4.8,1.3s-3.3-0.4-4.8-1.3
				c-1.5-0.8-2.6-2-3.5-3.5s-1.3-3-1.3-4.8s0.4-3.3,1.3-4.8s2-2.6,3.5-3.5c1.5-0.8,3-1.3,4.8-1.3s3.3,0.4,4.8,1.3
				c1.5,0.8,2.6,2,3.5,3.5S35.5,191.8,35.5,193.5z"/>
			<g>
				<path fill="#FFFFFF" d="M23.8,195.3c0.6,0.4,1.2,0.7,1.8,0.7c0.7,0,1.2-0.3,1.2-0.9c0-0.6-0.4-0.9-1.2-1c-0.2,0-0.6,0-0.7,0.1
					l0-1.4c0.9,0,1.7-0.4,1.7-1.1c0-0.5-0.4-0.7-0.9-0.7c-0.6,0-1.1,0.2-1.6,0.5l-0.7-1.1c0.8-0.5,1.5-0.8,2.6-0.8
					c1.3,0,2.3,0.7,2.3,1.9c0,0.8-0.5,1.6-1.5,1.9v0c1.1,0.1,1.8,0.8,1.8,1.9c0,1.6-1.2,2.4-2.8,2.4c-1,0-2-0.3-2.7-1.1L23.8,195.3z
					"/>
			</g>
		</g>
	</g>
	<g>
		<g>
			<rect x="55.5" y="229.1" fill="#16C493" width="105" height="5.5"/>
			<g>
				<rect x="55.5" y="239.1" fill="#FFFFFF" width="51.4" height="5.5"/>
				<path fill="#BEECD9" d="M106.9,245.6H55.5c-0.6,0-1-0.4-1-1v-5.5c0-0.6,0.4-1,1-1h51.4c0.6,0,1,0.4,1,1v5.5
					C107.9,245.1,107.4,245.6,106.9,245.6z M56.5,243.6h49.4v-3.5H56.5V243.6z"/>
			</g>
		</g>
		<g>
			<path fill="#BEECD9" d="M35.5,236.8c0,1.7-0.4,3.3-1.3,4.8c-0.8,1.5-2,2.6-3.5,3.5c-1.5,0.8-3,1.3-4.8,1.3s-3.3-0.4-4.8-1.3
				c-1.5-0.8-2.6-2-3.5-3.5c-0.8-1.5-1.3-3-1.3-4.8c0-1.7,0.4-3.3,1.3-4.8c0.8-1.5,2-2.6,3.5-3.5c1.5-0.8,3-1.3,4.8-1.3
				s3.3,0.4,4.8,1.3c1.5,0.8,2.6,2,3.5,3.5C35.1,233.5,35.5,235.1,35.5,236.8z"/>
			<g>
				<path fill="#FFFFFF" d="M26.5,239.2H23v-1.4l3-4.9h2.3v4.8H29v1.5h-0.8v1.6h-1.8V239.2z M26.5,237.7v-3.2l-1.9,3.2H26.5z"/>
			</g>
		</g>
	</g>
	<g>
		<g>
			<rect x="55.5" y="270.7" fill="#16C493" width="105" height="5.5"/>
			<g>
				<rect x="55.5" y="280.7" fill="#FFFFFF" width="51.4" height="5.5"/>
				<path fill="#BEECD9" d="M106.9,287.2H55.5c-0.6,0-1-0.4-1-1v-5.5c0-0.6,0.4-1,1-1h51.4c0.6,0,1,0.4,1,1v5.5
					C107.9,286.7,107.4,287.2,106.9,287.2z M56.5,285.2h49.4v-3.5H56.5V285.2z"/>
			</g>
		</g>
		<g>
			<path fill="#BEECD9" d="M35.5,278.4c0,1.7-0.4,3.3-1.3,4.8s-2,2.6-3.5,3.5s-3,1.3-4.8,1.3s-3.3-0.4-4.8-1.3
				c-1.5-0.8-2.6-2-3.5-3.5s-1.3-3-1.3-4.8c0-1.7,0.4-3.3,1.3-4.8s2-2.6,3.5-3.5c1.5-0.8,3-1.3,4.8-1.3s3.3,0.4,4.8,1.3
				c1.5,0.8,2.6,2,3.5,3.5S35.5,276.7,35.5,278.4z"/>
			<g>
				<path fill="#FFFFFF" d="M23.9,274.5h4.3l-0.1,1.7h-2.8l-0.1,1.5c0.3-0.2,0.7-0.4,1.3-0.4c1.3,0,2.2,0.8,2.2,2.5
					c0,1.8-1.3,2.8-2.8,2.8c-0.9,0-1.9-0.3-2.6-0.9l0.6-1.2c0.7,0.4,1.2,0.5,1.8,0.5c0.7,0,1.3-0.3,1.3-1.3c0-0.7-0.3-1.1-0.9-1.1
					c-0.4,0-0.7,0.2-0.9,0.4l-0.1,0.6h-1.5L23.9,274.5z"/>
			</g>
		</g>
	</g>
	<rect x="1" y="58.4" fill="#BEECD9" width="181.1" height="25.6"/>
	<g>
		<circle fill="#16C493" cx="91.5" cy="58" r="14"/>
		<path fill="#FFFFFF" d="M97,58.7h-7.4c-0.3,0-0.6-0.3-0.6-0.6s0.3-0.6,0.6-0.6H97c0.3,0,0.6,0.3,0.6,0.6S97.4,58.7,97,58.7z
			 M97,54.4h-7.4c-0.3,0-0.6-0.3-0.6-0.6c0-0.3,0.3-0.6,0.6-0.6H97c0.3,0,0.6,0.3,0.6,0.6C97.7,54.2,97.4,54.4,97,54.4z M86.6,63.7
			c-0.7,0-1.2-0.6-1.2-1.2c0-0.7,0.6-1.2,1.2-1.2s1.2,0.6,1.2,1.2C87.8,63.1,87.3,63.7,86.6,63.7z M86.6,59.4
			c-0.7,0-1.2-0.6-1.2-1.2s0.6-1.2,1.2-1.2s1.2,0.6,1.2,1.2S87.3,59.4,86.6,59.4z M86.6,55.1c-0.7,0-1.2-0.6-1.2-1.2
			c0-0.7,0.6-1.2,1.2-1.2s1.2,0.6,1.2,1.2C87.8,54.5,87.3,55.1,86.6,55.1z M89.7,61.8H97c0.3,0,0.6,0.3,0.6,0.6
			c0,0.3-0.3,0.6-0.6,0.6h-7.4c-0.3,0-0.6-0.3-0.6-0.6C89.1,62.1,89.3,61.8,89.7,61.8z"/>
	</g>
	<g>
		<g>
			<rect x="55.5" y="144.3" fill="#16C493" width="105" height="5.5"/>
			<g>
				<rect x="55.5" y="154.3" fill="#FFFFFF" width="51.4" height="5.5"/>
				<path fill="#BEECD9" d="M106.9,160.8H55.5c-0.6,0-1-0.4-1-1v-5.5c0-0.6,0.4-1,1-1h51.4c0.6,0,1,0.4,1,1v5.5
					C107.9,160.3,107.4,160.8,106.9,160.8z M56.5,158.8h49.4v-3.5H56.5V158.8z"/>
			</g>
		</g>
		<circle fill="#FF8A33" cx="26.6" cy="151.9" r="9.5"/>
		<path fill="#FFFFFF" d="M25.2,157.1c-0.3,0-0.6-0.1-0.8-0.4l-2.6-3.5c-0.3-0.4-0.3-1.1,0.2-1.4c0.4-0.3,1.1-0.3,1.4,0.2l1.7,2.3
			l4.3-6.9c0.3-0.5,0.9-0.6,1.4-0.3c0.5,0.3,0.6,0.9,0.3,1.4l-5.1,8.2C25.8,156.9,25.5,157.1,25.2,157.1
			C25.2,157.1,25.2,157.1,25.2,157.1L25.2,157.1z"/>
	</g>
	<g>
		<rect x="55.5" y="100.6" fill="#16C493" width="105" height="5.5"/>
		<g>
			<rect x="55.5" y="110.6" fill="#FFFFFF" width="51.4" height="5.5"/>
			<path fill="#BEECD9" d="M106.9,117.1H55.5c-0.6,0-1-0.4-1-1v-5.5c0-0.6,0.4-1,1-1h51.4c0.6,0,1,0.4,1,1v5.5
				C107.9,116.6,107.4,117.1,106.9,117.1z M56.5,115.1h49.4v-3.5H56.5V115.1z"/>
		</g>
	</g>
	<circle fill="#FF8A33" cx="26.6" cy="107.9" r="9.5"/>
	<path fill="#FFFFFF" d="M25.2,113.5c-0.3,0-0.6-0.1-0.8-0.4l-2.6-3.5c-0.3-0.4-0.3-1.1,0.2-1.4c0.4-0.3,1.1-0.3,1.4,0.2l1.7,2.3
		l4.3-6.9c0.3-0.5,0.9-0.6,1.4-0.3c0.5,0.3,0.6,0.9,0.3,1.4L26,113C25.8,113.3,25.5,113.5,25.2,113.5
		C25.2,113.5,25.2,113.5,25.2,113.5L25.2,113.5z"/>
	<g>
		<g>
			<path fill="#FFFFFF" d="M691.6,96.9c-9.1,0-16.5,7.4-16.5,16.5s7.4,16.5,16.5,16.5c9.1,0,16.5-7.4,16.5-16.5
				S700.8,96.9,691.6,96.9z"/>
			<path fill="#16C493" d="M691.6,131.9c-10.2,0-18.5-8.3-18.5-18.5s8.3-18.5,18.5-18.5s18.5,8.3,18.5,18.5S701.8,131.9,691.6,131.9
				z M691.6,98.9c-8,0-14.5,6.5-14.5,14.5s6.5,14.5,14.5,14.5s14.5-6.5,14.5-14.5S699.6,98.9,691.6,98.9z"/>
		</g>
		<path fill="#16C493" d="M685,111.5c-1.1,0-2,0.9-2,2c0,1.1,0.9,2,2,2s2-0.9,2-2C687,112.3,686.1,111.5,685,111.5z"/>
		<path fill="#16C493" d="M696.9,111.5c-1.1,0-2,0.9-2,2c0,1.1,0.9,2,2,2s2-0.9,2-2C698.9,112.3,698,111.5,696.9,111.5z"/>
		<path fill="#16C493" d="M694.8,110.7c0.1-1,0.2-1.9,0.1-2.9c-0.4-7.9-6.2-14.2-13.7-15.4c-0.1,1-0.2,1.9-0.1,2.9
			C681.5,103.1,687.4,109.4,694.8,110.7z"/>
		<path fill="#16C493" d="M689.7,96.9c2,6.9,8.3,11.9,15.8,11.9C703.5,102,697.2,96.9,689.7,96.9z"/>
		<path fill="#16C493" d="M689,97.3c-7.1,0.6-13.3,5.8-14.8,13.2C681.3,109.9,687.5,104.7,689,97.3z"/>
		<path fill="#16C493" d="M691.7,123.3c-2.5,0-4.7-1.6-5.4-4c-0.1-0.3,0-0.6,0.2-0.9c0.2-0.2,0.5-0.4,0.8-0.4h8.8
			c0.3,0,0.6,0.1,0.8,0.4c0.2,0.3,0.2,0.6,0.2,0.9C696.3,121.7,694.2,123.3,691.7,123.3z M688.9,120c0.7,0.8,1.7,1.3,2.8,1.3
			s2.1-0.5,2.8-1.3H688.9z"/>
	</g>
	<g>
		<g>
			<path fill="#FFFFFF" d="M539.4,144.5c-9.1,0-16.5,7.4-16.5,16.5c0,9.1,7.4,16.5,16.5,16.5c9.1,0,16.5-7.4,16.5-16.5
				C555.9,151.9,548.5,144.5,539.4,144.5z"/>
			<path fill="#16C493" d="M539.4,179.5c-10.2,0-18.5-8.3-18.5-18.5s8.3-18.5,18.5-18.5s18.5,8.3,18.5,18.5S549.6,179.5,539.4,179.5
				z M539.4,146.5c-8,0-14.5,6.5-14.5,14.5s6.5,14.5,14.5,14.5s14.5-6.5,14.5-14.5S547.4,146.5,539.4,146.5z"/>
		</g>
		<g>
			<path fill="#16C493" d="M533.5,159.1c-1.1,0-2,0.9-2,2s0.9,2,2,2c1.1,0,2-0.9,2-2S534.5,159.1,533.5,159.1z"/>
			<path fill="#16C493" d="M545.3,159.1c-1.1,0-2,0.9-2,2s0.9,2,2,2c1.1,0,2-0.9,2-2S546.4,159.1,545.3,159.1z"/>
		</g>
		<path fill="#16C493" d="M539.8,170.3c-2.5,0-4.7-1.6-5.4-4c-0.1-0.3,0-0.6,0.2-0.9c0.2-0.2,0.5-0.4,0.8-0.4h8.8
			c0.3,0,0.6,0.1,0.8,0.4c0.2,0.3,0.2,0.6,0.2,0.9C544.4,168.7,542.3,170.3,539.8,170.3z M537,167c0.7,0.8,1.7,1.3,2.8,1.3
			s2.1-0.5,2.8-1.3H537z"/>
		<g>
			<path fill="#16C493" d="M524.3,154h8l1-5l2,5h19c0,0-4.5-10-14-10S524.3,152,524.3,154z"/>
			<path fill="#16C493" d="M520.9,159.5l-2.3,17.5h4.7l0.7-3.6l0.5,3.6h11l-4.8-1.8C530.6,175.2,520.9,164.4,520.9,159.5z"/>
			<path fill="#16C493" d="M557.3,159.5l2.3,17.5h-4.2l-0.2-2.6l-0.5,2.6h-7.8l0.7-1.8C547.6,175.2,557.3,164.4,557.3,159.5z"/>
		</g>
	</g>
	<g>
		<path fill="#16C493" d="M539.1,213.5c-11.3,0-20.5,9.2-20.5,20.5c0,11.3,9.2,20.5,20.5,20.5s20.5-9.2,20.5-20.5
			C559.6,222.7,550.4,213.5,539.1,213.5z"/>
		<g>
			<path fill="#FFFFFF" d="M539.1,223.5c-9.1,0-16.5,7.4-16.5,16.5c0,9.1,7.4,16.5,16.5,16.5s16.5-7.4,16.5-16.5
				C555.6,230.9,548.2,223.5,539.1,223.5z"/>
			<path fill="#16C493" d="M539.1,258.5c-10.2,0-18.5-8.3-18.5-18.5s8.3-18.5,18.5-18.5s18.5,8.3,18.5,18.5S549.3,258.5,539.1,258.5
				z M539.1,225.5c-8,0-14.5,6.5-14.5,14.5s6.5,14.5,14.5,14.5s14.5-6.5,14.5-14.5S547.1,225.5,539.1,225.5z"/>
		</g>
		<g>
			<path fill="#16C493" d="M533.2,238.1c-1.1,0-2,0.9-2,2s0.9,2,2,2s2-0.9,2-2S534.3,238.1,533.2,238.1z"/>
			<path fill="#16C493" d="M545,238.1c-1.1,0-2,0.9-2,2s0.9,2,2,2s2-0.9,2-2S546.1,238.1,545,238.1z"/>
		</g>
		<path fill="#16C493" d="M523.1,233h31c0,0-5.9-12.4-14.4-12.4C531.1,220.6,523.1,233,523.1,233z"/>
		<path fill="#16C493" d="M544.1,248.8c-0.1,0-0.3,0-0.4,0l-4.4-0.9l-4.8,0.9c-1.1,0.2-2.1-0.5-2.3-1.6c-0.2-1.1,0.5-2.1,1.6-2.3
			l5.2-1c0.3-0.1,0.5,0,0.8,0l4.8,1c1.1,0.2,1.8,1.3,1.6,2.4C545.9,248.1,545,248.8,544.1,248.8z"/>
	</g>
	<g>
		<path fill="#BEECD9" d="M634.3,87.9h-66.6c-2.2,0-4-1.8-4-4V46.1c0-2.2,1.8-4,4-4h66.6c2.2,0,4,1.8,4,4v37.8
			C638.3,86.1,636.6,87.9,634.3,87.9z"/>
		<path fill="#BEECD9" d="M572.5,82.1v12.5c0,0.9,1.1,1.3,1.7,0.7l11.4-11.4c0.6-0.6,0.2-1.6-0.6-1.7l-11.4-1
			C573,81,572.5,81.5,572.5,82.1z"/>
		<g>
			<path fill="#16C493" d="M627.5,54h-53c-0.8,0-1.5-0.7-1.5-1.5s0.7-1.5,1.5-1.5h53c0.8,0,1.5,0.7,1.5,1.5S628.3,54,627.5,54z"/>
			<path fill="#16C493" d="M627.5,62h-53c-0.8,0-1.5-0.7-1.5-1.5s0.7-1.5,1.5-1.5h53c0.8,0,1.5,0.7,1.5,1.5S628.3,62,627.5,62z"/>
			<path fill="#16C493" d="M627.5,70h-53c-0.8,0-1.5-0.7-1.5-1.5s0.7-1.5,1.5-1.5h53c0.8,0,1.5,0.7,1.5,1.5S628.3,70,627.5,70z"/>
			<path fill="#16C493" d="M608.5,78h-34c-0.8,0-1.5-0.7-1.5-1.5s0.7-1.5,1.5-1.5h34c0.8,0,1.5,0.7,1.5,1.5S609.3,78,608.5,78z"/>
		</g>
	</g>
	<g>
		<path fill="#BEECD9" d="M645.3,231.9h-66.6c-2.2,0-4-1.8-4-4v-37.8c0-2.2,1.8-4,4-4h66.6c2.2,0,4,1.8,4,4v37.8
			C649.3,230.1,647.6,231.9,645.3,231.9z"/>
		<path fill="#BEECD9" d="M583.5,226.1v12.5c0,0.9,1.1,1.3,1.7,0.7l11.4-11.4c0.6-0.6,0.2-1.6-0.6-1.7l-11.4-1
			C584,225,583.5,225.5,583.5,226.1z"/>
		<g>
			<path fill="#16C493" d="M638.5,198h-53c-0.8,0-1.5-0.7-1.5-1.5s0.7-1.5,1.5-1.5h53c0.8,0,1.5,0.7,1.5,1.5S639.3,198,638.5,198z"
				/>
			<path fill="#16C493" d="M638.5,206h-53c-0.8,0-1.5-0.7-1.5-1.5s0.7-1.5,1.5-1.5h53c0.8,0,1.5,0.7,1.5,1.5S639.3,206,638.5,206z"
				/>
			<path fill="#16C493" d="M638.5,214h-53c-0.8,0-1.5-0.7-1.5-1.5s0.7-1.5,1.5-1.5h53c0.8,0,1.5,0.7,1.5,1.5S639.3,214,638.5,214z"
				/>
			<path fill="#16C493" d="M619.5,222h-34c-0.8,0-1.5-0.7-1.5-1.5s0.7-1.5,1.5-1.5h34c0.8,0,1.5,0.7,1.5,1.5S620.3,222,619.5,222z"
				/>
		</g>
	</g>
	<g>
		<path fill="#BEECD9" d="M656.3,157.9h-66.6c-2.2,0-4-1.8-4-4v-37.8c0-2.2,1.8-4,4-4h66.6c2.2,0,4,1.8,4,4v37.8
			C660.3,156.1,658.6,157.9,656.3,157.9z"/>
		<path fill="#BEECD9" d="M649.9,152.1v12.5c0,0.9-1.1,1.3-1.7,0.7l-11.4-11.4c-0.6-0.6-0.2-1.6,0.6-1.7l11.4-1
			C649.4,151,649.9,151.5,649.9,152.1z"/>
		<g>
			<path fill="#16C493" d="M649.5,124h-53c-0.8,0-1.5-0.7-1.5-1.5s0.7-1.5,1.5-1.5h53c0.8,0,1.5,0.7,1.5,1.5S650.3,124,649.5,124z"
				/>
			<path fill="#16C493" d="M649.5,132h-53c-0.8,0-1.5-0.7-1.5-1.5s0.7-1.5,1.5-1.5h53c0.8,0,1.5,0.7,1.5,1.5S650.3,132,649.5,132z"
				/>
			<path fill="#16C493" d="M649.5,140h-53c-0.8,0-1.5-0.7-1.5-1.5s0.7-1.5,1.5-1.5h53c0.8,0,1.5,0.7,1.5,1.5S650.3,140,649.5,140z"
				/>
			<path fill="#16C493" d="M630.5,148h-34c-0.8,0-1.5-0.7-1.5-1.5s0.7-1.5,1.5-1.5h34c0.8,0,1.5,0.7,1.5,1.5S631.3,148,630.5,148z"
				/>
		</g>
	</g>
</g>
</svg>
