<?xml version="1.0" encoding="utf-8"?>
<!-- Generator: Adobe Illustrator 18.1.0, SVG Export Plug-In . SVG Version: 6.00 Build 0)  -->
<!DOCTYPE svg PUBLIC "-//W3C//DTD SVG 1.1//EN" "http://www.w3.org/Graphics/SVG/1.1/DTD/svg11.dtd">
<svg version="1.1" id="Layer_1" xmlns="http://www.w3.org/2000/svg" xmlns:xlink="http://www.w3.org/1999/xlink" x="0px" y="0px"
	 viewBox="-607 369 64 64" enable-background="new -607 369 64 64" xml:space="preserve">
<path fill="#F05133" d="M-575,417c-20.3,0-31.3-14.8-31.8-15.4l-0.4-0.6l0.4-0.6c0.5-0.6,11.5-15.4,31.8-15.4s31.3,14.8,31.8,15.4
	l0.4,0.6l-0.4,0.6C-543.7,402.2-554.7,417-575,417z M-604.7,401c2.3,2.7,12.7,14,29.7,14s27.4-11.3,29.7-14
	c-2.3-2.7-12.7-14-29.7-14S-602.4,398.3-604.7,401z"/>
<path fill="#F05133" d="M-575,409c-4.4,0-8-3.6-8-8s3.6-8,8-8s8,3.6,8,8S-570.6,409-575,409z M-575,395c-3.3,0-6,2.7-6,6s2.7,6,6,6
	s6-2.7,6-6S-571.7,395-575,395z"/>
</svg>
