<?xml version="1.0" encoding="utf-8"?>
<!-- Generator: Adobe Illustrator 18.1.1, SVG Export Plug-In . SVG Version: 6.00 Build 0)  -->
<!DOCTYPE svg PUBLIC "-//W3C//DTD SVG 1.1//EN" "http://www.w3.org/Graphics/SVG/1.1/DTD/svg11.dtd">
<svg version="1.1" id="Layer_1" xmlns="http://www.w3.org/2000/svg" xmlns:xlink="http://www.w3.org/1999/xlink" x="0px" y="0px"
	 viewBox="0 0 709 314" enable-background="new 0 0 709 314" xml:space="preserve">
<g>
	
		<rect x="119.6" y="9.8" fill="#BEECD9" stroke="#BEECD9" stroke-width="4" stroke-linejoin="round" stroke-miterlimit="10" width="485.4" height="284.2"/>
	
		<rect x="111" y="2" fill="#FFFFFF" stroke="#BEECD9" stroke-width="4" stroke-linejoin="round" stroke-miterlimit="10" width="485.4" height="283"/>
	
		<line fill="none" stroke="#BEECD9" stroke-width="4" stroke-linejoin="round" stroke-miterlimit="10" x1="111" y1="20" x2="596" y2="20"/>
	
		<line fill="none" stroke="#BEECD9" stroke-width="4" stroke-linecap="round" stroke-linejoin="round" stroke-miterlimit="10" x1="143" y1="11" x2="582" y2="11"/>
	
		<rect x="9.1" y="67.1" fill="#BEECD9" stroke="#BEECD9" stroke-width="4" stroke-linejoin="round" stroke-miterlimit="10" width="198.9" height="244.9"/>
	
		<rect x="2" y="60" fill="#FFFFFF" stroke="#BEECD9" stroke-width="4" stroke-linejoin="round" stroke-miterlimit="10" width="198.9" height="244.9"/>
	<g>
		<circle fill="#FF8A33" cx="33.1" cy="134.5" r="9.5"/>
		<path fill="#FFFFFF" d="M38.7,133.1l-5.8,5.8c-0.2,0.2-0.4,0.3-0.6,0.3s-0.4-0.1-0.6-0.3l-4-4c-0.2-0.2-0.3-0.4-0.3-0.6
			s0.1-0.4,0.3-0.6l1.4-1.4c0.2-0.2,0.4-0.3,0.6-0.3c0.2,0,0.4,0.1,0.6,0.3l2,2l3.8-3.8c0.2-0.2,0.4-0.3,0.6-0.3
			c0.2,0,0.4,0.1,0.6,0.3l1.4,1.4c0.2,0.2,0.3,0.4,0.3,0.6C38.9,132.8,38.8,133,38.7,133.1z"/>
	</g>
	<g>
		<circle fill="#FF8A33" cx="33.1" cy="93.5" r="9.5"/>
		<path fill="#FFFFFF" d="M38.7,92.1l-5.8,5.8c-0.2,0.2-0.4,0.3-0.6,0.3s-0.4-0.1-0.6-0.3l-4-4c-0.2-0.2-0.3-0.4-0.3-0.6
			s0.1-0.4,0.3-0.6l1.4-1.4c0.2-0.2,0.4-0.3,0.6-0.3c0.2,0,0.4,0.1,0.6,0.3l2,2l3.8-3.8c0.2-0.2,0.4-0.3,0.6-0.3
			c0.2,0,0.4,0.1,0.6,0.3l1.4,1.4c0.2,0.2,0.3,0.4,0.3,0.6S38.8,92,38.7,92.1z"/>
	</g>
	<g>
		<rect x="62" y="82" fill="#BEECD9" width="105" height="9"/>
		<rect x="62" y="96" fill="#BEECD9" width="79" height="9"/>
	</g>
	<g>
		<rect x="62" y="125.2" fill="#BEECD9" width="105" height="9"/>
		<rect x="62" y="139.2" fill="#BEECD9" width="50" height="9"/>
	</g>
	<g>
		<rect x="62" y="168.5" fill="#BEECD9" width="105" height="9"/>
		<rect x="62" y="182.5" fill="#BEECD9" width="85" height="9"/>
	</g>
	<g>
		<rect x="62" y="211.8" fill="#BEECD9" width="105" height="9"/>
		<rect x="62" y="225.8" fill="#BEECD9" width="39" height="9"/>
	</g>
	<g>
		<rect x="62" y="255" fill="#BEECD9" width="105" height="9"/>
		<rect x="62" y="269" fill="#BEECD9" width="71" height="9"/>
	</g>
	<g>
		<path fill="#BEECD9" d="M42,179.5c0,1.7-0.4,3.3-1.3,4.8s-2,2.6-3.5,3.5c-1.5,0.8-3,1.3-4.8,1.3c-1.7,0-3.3-0.4-4.8-1.3
			c-1.5-0.8-2.6-2-3.5-3.5s-1.3-3-1.3-4.8s0.4-3.3,1.3-4.8s2-2.6,3.5-3.5c1.5-0.8,3-1.3,4.8-1.3c1.7,0,3.3,0.4,4.8,1.3
			c1.5,0.8,2.6,2,3.5,3.5S42,177.8,42,179.5z"/>
		<rect x="23" y="175" fill="none" width="19" height="14"/>
		<text transform="matrix(1 0 0 1 29.4424 182.9199)" fill="#FFFFFF" font-family="'LFTEtica-Bold'" font-size="11">3</text>
	</g>
	<g>
		<path fill="#BEECD9" d="M42,222.5c0,1.7-0.4,3.3-1.3,4.8s-2,2.6-3.5,3.5c-1.5,0.8-3,1.3-4.8,1.3c-1.7,0-3.3-0.4-4.8-1.3
			c-1.5-0.8-2.6-2-3.5-3.5s-1.3-3-1.3-4.8s0.4-3.3,1.3-4.8s2-2.6,3.5-3.5c1.5-0.8,3-1.3,4.8-1.3c1.7,0,3.3,0.4,4.8,1.3
			c1.5,0.8,2.6,2,3.5,3.5S42,220.8,42,222.5z"/>
		<rect x="23" y="218" fill="none" width="19" height="14"/>
		<text transform="matrix(1 0 0 1 29.167 225.9199)" fill="#FFFFFF" font-family="'LFTEtica-Bold'" font-size="11">4</text>
	</g>
	<g>
		<path fill="#BEECD9" d="M42,265.5c0,1.7-0.4,3.3-1.3,4.8s-2,2.6-3.5,3.5s-3,1.3-4.8,1.3c-1.7,0-3.3-0.4-4.8-1.3
			c-1.5-0.8-2.6-2-3.5-3.5s-1.3-3-1.3-4.8s0.4-3.3,1.3-4.8s2-2.6,3.5-3.5c1.5-0.8,3-1.3,4.8-1.3c1.7,0,3.3,0.4,4.8,1.3
			s2.6,2,3.5,3.5S42,263.8,42,265.5z"/>
		<rect x="23" y="261" fill="none" width="19" height="14"/>
		<text transform="matrix(1 0 0 1 29.4863 268.9199)" fill="#FFFFFF" font-family="'LFTEtica-Bold'" font-size="11">5</text>
	</g>
	<g>
		<circle fill="#BEECD9" cx="120" cy="11" r="2"/>
		<circle fill="#BEECD9" cx="126" cy="11" r="2"/>
		<circle fill="#BEECD9" cx="132" cy="11" r="2"/>
	</g>
	<g>
		<rect x="252.2" y="48.5" fill="#BEECD9" width="200" height="99"/>
		<path fill="#FFFFFF" d="M352.2,85.5c-6.9,0-12.5,5.6-12.5,12.5s5.6,12.5,12.5,12.5s12.5-5.6,12.5-12.5S359.2,85.5,352.2,85.5z
			 M349.1,92.5l9.4,5.5l-9.4,5.5V92.5z"/>
	</g>
	<g>
		
			<line fill="none" stroke="#BEECD9" stroke-width="4" stroke-linejoin="round" stroke-miterlimit="10" x1="252" y1="161" x2="452" y2="161"/>
		
			<line fill="none" stroke="#BEECD9" stroke-width="4" stroke-linejoin="round" stroke-miterlimit="10" x1="252" y1="171" x2="452" y2="171"/>
		
			<line fill="none" stroke="#BEECD9" stroke-width="4" stroke-linejoin="round" stroke-miterlimit="10" x1="252" y1="181" x2="452" y2="181"/>
		
			<line fill="none" stroke="#BEECD9" stroke-width="4" stroke-linejoin="round" stroke-miterlimit="10" x1="252" y1="191" x2="452" y2="191"/>
		
			<line fill="none" stroke="#BEECD9" stroke-width="4" stroke-linejoin="round" stroke-miterlimit="10" x1="252" y1="201" x2="377" y2="201"/>
	</g>
	<g>
		
			<line fill="none" stroke="#BEECD9" stroke-width="4" stroke-linejoin="round" stroke-miterlimit="10" x1="252" y1="221" x2="452" y2="221"/>
		
			<line fill="none" stroke="#BEECD9" stroke-width="4" stroke-linejoin="round" stroke-miterlimit="10" x1="252" y1="231" x2="452" y2="231"/>
		
			<line fill="none" stroke="#BEECD9" stroke-width="4" stroke-linejoin="round" stroke-miterlimit="10" x1="252" y1="241" x2="452" y2="241"/>
		
			<line fill="none" stroke="#BEECD9" stroke-width="4" stroke-linejoin="round" stroke-miterlimit="10" x1="252" y1="251" x2="452" y2="251"/>
		
			<line fill="none" stroke="#BEECD9" stroke-width="4" stroke-linejoin="round" stroke-miterlimit="10" x1="252" y1="261" x2="334" y2="261"/>
	</g>
	<g>
		<path fill="#FFFFFF" stroke="#BEECD9" stroke-width="4" stroke-linejoin="round" stroke-miterlimit="10" d="M689.5,98
			c-9.1,0-16.5,7.4-16.5,16.5s7.4,16.5,16.5,16.5s16.5-7.4,16.5-16.5S698.6,98,689.5,98z"/>
		<path fill="#BEECD9" d="M682.9,112.5c-1.1,0-2,0.9-2,2s0.9,2,2,2c1.1,0,2-0.9,2-2S684,112.5,682.9,112.5z"/>
		<path fill="#BEECD9" d="M694.8,112.5c-1.1,0-2,0.9-2,2s0.9,2,2,2c1.1,0,2-0.9,2-2S695.9,112.5,694.8,112.5z"/>
		<path fill="#BEECD9" d="M692.7,111.8c0.1-1,0.2-1.9,0.1-2.9c-0.4-7.9-6.2-14.2-13.7-15.4c-0.1,1-0.2,1.9-0.1,2.9
			C679.4,104.2,685.2,110.5,692.7,111.8z"/>
		<path fill="#BEECD9" d="M687.5,98c2,6.9,8.3,11.9,15.8,11.9C701.3,103,695,98,687.5,98z"/>
		<path fill="#BEECD9" d="M686.8,98.4c-7.1,0.6-13.3,5.8-14.8,13.2C679.1,110.9,685.3,105.7,686.8,98.4z"/>
		<path fill="none" stroke="#BEECD9" stroke-width="2" stroke-linecap="round" stroke-linejoin="round" stroke-miterlimit="10" d="
			M685.1,120c0.6,2,2.3,3.3,4.4,3.3s3.8-1.3,4.4-3.3H685.1z"/>
	</g>
	<g>
		<path fill="#FFFFFF" stroke="#BEECD9" stroke-width="4" stroke-linejoin="round" stroke-miterlimit="10" d="M524.1,145
			c-9.1,0-16.5,7.4-16.5,16.5S515,178,524.1,178c9.1,0,16.5-7.4,16.5-16.5S533.2,145,524.1,145z"/>
		<g>
			<path fill="#BEECD9" d="M518.2,159.5c-1.1,0-2,0.9-2,2s0.9,2,2,2s2-0.9,2-2S519.3,159.5,518.2,159.5z"/>
			<path fill="#BEECD9" d="M530.1,159.5c-1.1,0-2,0.9-2,2s0.9,2,2,2s2-0.9,2-2S531.2,159.5,530.1,159.5z"/>
		</g>
		<path fill="none" stroke="#BEECD9" stroke-width="2" stroke-linecap="round" stroke-linejoin="round" stroke-miterlimit="10" d="
			M520.1,167c0.6,2,2.3,3.3,4.4,3.3s3.8-1.3,4.4-3.3H520.1z"/>
		<path fill="#BEECD9" d="M509,155h8l1-5l2,5h19c0,0-4.5-10-14-10S509,153,509,155z"/>
		<path fill="#BEECD9" d="M505.7,160.1l-2.3,17.9h4.7l0.7-3.6l0.5,3.6h11l-4.8-2C515.3,176,505.7,165,505.7,160.1z"/>
		<path fill="#BEECD9" d="M542,160.1l2.3,17.9h-4.2l-0.2-2.6l-0.5,2.6h-7.8l0.7-2C532.3,176,542,165,542,160.1z"/>
	</g>
	<g>
		<path fill="#FFFFFF" stroke="#BEECD9" stroke-width="4" stroke-linejoin="round" stroke-miterlimit="10" d="M688.5,240
			c-9.1,0-16.5,7.4-16.5,16.5s7.4,16.5,16.5,16.5s16.5-7.4,16.5-16.5S697.6,240,688.5,240z"/>
		<path fill="#FFFFFF" stroke="#BEECD9" stroke-width="2" stroke-linejoin="round" stroke-miterlimit="10" d="M703,250
			c2.5-4.4,2.9-8.9,0.6-11.1c-3.2-3-10.1-0.9-15.5,4.7c-2,2-3.4,4.3-4.4,6.4L703,250z"/>
		<path fill="#BEECD9" d="M681.9,254.5c-1.1,0-2,0.9-2,2c0,1.1,0.9,2,2,2c1.1,0,2-0.9,2-2C683.9,255.4,683,254.5,681.9,254.5z"/>
		<path fill="#BEECD9" d="M693.8,254.5c-1.1,0-2,0.9-2,2c0,1.1,0.9,2,2,2c1.1,0,2-0.9,2-2C695.8,255.4,694.9,254.5,693.8,254.5z"/>
		<path fill="#BEECD9" d="M670.4,255.3c0.4,0.1,0.8,0.1,1.2,0.1c3.2,0,5.8-2.2,6.5-5.2c-0.4-0.1-0.8-0.1-1.2-0.1
			C673.8,250.1,671.1,252.3,670.4,255.3z"/>
		
			<line fill="none" stroke="#BEECD9" stroke-width="2" stroke-linecap="round" stroke-linejoin="round" stroke-miterlimit="10" x1="673" y1="250" x2="703" y2="250"/>
		
			<ellipse transform="matrix(0.9092 0.4163 -0.4163 0.9092 166.4839 -259.131)" fill="#BEECD9" cx="677.4" cy="252.2" rx="1.4" ry="2.9"/>
		<path fill="none" stroke="#BEECD9" stroke-width="2" stroke-linecap="round" stroke-linejoin="round" stroke-miterlimit="10" d="
			M684.9,265c0.8,1.1,2.1,1.7,3.6,1.7s2.7-0.7,3.6-1.7"/>
	</g>
	<g>
		<g>
			<path fill="#FFFFFF" stroke="#BEECD9" stroke-width="4" stroke-linejoin="round" stroke-miterlimit="10" d="M523.5,78
				c-9.1,0-16.5,7.4-16.5,16.5s7.4,16.5,16.5,16.5s16.5-7.4,16.5-16.5S532.6,78,523.5,78z"/>
			<path fill="#BEECD9" d="M516.9,92.5c-1.1,0-2,0.9-2,2s0.9,2,2,2c1.1,0,2-0.9,2-2S518,92.5,516.9,92.5z"/>
			<path fill="#BEECD9" d="M528.8,92.5c-1.1,0-2,0.9-2,2s0.9,2,2,2c1.1,0,2-0.9,2-2S529.9,92.5,528.8,92.5z"/>
			<path fill="#BEECD9" d="M507.4,90.9c0.9,0.2,1.9,0.3,2.9,0.3c7.9,0,14.5-5.5,16.1-12.9c-0.9-0.2-1.9-0.3-2.9-0.3
				C515.6,78,509,83.5,507.4,90.9z"/>
			<path fill="#BEECD9" d="M523.5,78c2,6.9,8.3,11.9,15.8,11.9C537.3,83,531,78,523.5,78z"/>
			<path fill="none" stroke="#BEECD9" stroke-width="2" stroke-linecap="round" stroke-linejoin="round" stroke-miterlimit="10" d="
				M519.1,100.4c0.6,1.9,2.3,3.3,4.4,3.3s3.8-1.4,4.4-3.3"/>
		</g>
		<g>
			<path fill="none" stroke="#BEECD9" stroke-width="2" stroke-linecap="round" stroke-linejoin="round" stroke-miterlimit="10" d="
				M505,85.1l2.7,2.7"/>
			<path fill="none" stroke="#BEECD9" stroke-width="2" stroke-linecap="round" stroke-linejoin="round" stroke-miterlimit="10" d="
				M506.1,90.3l-3.2-3.2"/>
			
				<polyline fill="none" stroke="#BEECD9" stroke-width="2" stroke-linecap="round" stroke-linejoin="round" stroke-miterlimit="10" points="
				502.9,87.1 502,84.2 505,85 			"/>
		</g>
	</g>
	<path fill="#BEECD9" d="M631.1,88.5h-79.7c-2.2,0-4-1.8-4-4V46.7c0-2.2,1.8-4,4-4h79.7c2.2,0,4,1.8,4,4v37.8
		C635.1,86.7,633.3,88.5,631.1,88.5z"/>
	<path fill="#BEECD9" d="M641.1,220.5h-79.7c-2.2,0-4-1.8-4-4v-37.8c0-2.2,1.8-4,4-4h79.7c2.2,0,4,1.8,4,4v37.8
		C645.1,218.7,643.3,220.5,641.1,220.5z"/>
	<path fill="#BEECD9" d="M659.1,153.5h-79.7c-2.2,0-4-1.8-4-4v-37.8c0-2.2,1.8-4,4-4h79.7c2.2,0,4,1.8,4,4v37.8
		C663.1,151.7,661.3,153.5,659.1,153.5z"/>
	<polygon fill="#BEECD9" points="562,82 562,98 576.7,83.3 	"/>
	<polygon fill="#BEECD9" points="569,214 569,230 583.7,215.3 	"/>
	<polygon fill="#BEECD9" points="655,148 655,164 640.3,149.3 	"/>
	<g>
		<path fill="#BEECD9" d="M524,211c-11.3,0-20.5,9.2-20.5,20.5c0,11.3,9.2,20.5,20.5,20.5s20.5-9.2,20.5-20.5S535.3,211,524,211z"/>
		<path fill="#FFFFFF" stroke="#BEECD9" stroke-width="4" stroke-linejoin="round" stroke-miterlimit="10" d="M524,221
			c-9.1,0-16.5,7.4-16.5,16.5S514.9,254,524,254c9.1,0,16.5-7.4,16.5-16.5S533.1,221,524,221z"/>
		<g>
			<path fill="#BEECD9" d="M518,235.5c-1.1,0-2,0.9-2,2s0.9,2,2,2s2-0.9,2-2S519.1,235.5,518,235.5z"/>
			<path fill="#BEECD9" d="M529.9,235.5c-1.1,0-2,0.9-2,2s0.9,2,2,2s2-0.9,2-2S531,235.5,529.9,235.5z"/>
		</g>
		<path fill="#BEECD9" d="M508,231h31c0,0-5.9-12.4-14.4-12.4C516,218.6,508,231,508,231z"/>
		
			<polyline fill="none" stroke="#BEECD9" stroke-width="4" stroke-linecap="round" stroke-linejoin="round" stroke-miterlimit="10" points="
			519,244 524.2,243 529,244 		"/>
	</g>
	<g>
		<path fill="#FFFFFF" stroke="#BEECD9" stroke-width="4" stroke-linejoin="round" stroke-miterlimit="10" d="M689,168
			c-9.1,0-16.5,7.4-16.5,16.5S679.9,201,689,201c9.1,0,16.5-7.4,16.5-16.5S698.1,168,689,168z"/>
		<g>
			<path fill="#BEECD9" d="M683,182.5c-1.1,0-2,0.9-2,2s0.9,2,2,2c1.1,0,2-0.9,2-2S684.1,182.5,683,182.5z"/>
			<path fill="#BEECD9" d="M694.9,182.5c-1.1,0-2,0.9-2,2s0.9,2,2,2c1.1,0,2-0.9,2-2S696,182.5,694.9,182.5z"/>
		</g>
		<path fill="none" stroke="#BEECD9" stroke-width="2" stroke-linecap="round" stroke-linejoin="round" stroke-miterlimit="10" d="
			M704,179.9c-1.2-4.2-4.1-7.7-7.9-9.8c0.3-0.7-1.5-0.3-1.4-1c-1.9,0-1.7-0.9-3.4-0.7c-1-0.2-2.1-0.3-3.2-0.3
			c0.1,0.3,0.2,0.5,0.3,0.8c-8.3,1.7-12.9,6.3-14.5,12.6c8.3,0.1,14.2-2.1,18.6-6.2C695.5,178.1,699.6,179.9,704,179.9z"/>
		<path fill="none" stroke="#BEECD9" stroke-width="2" stroke-linecap="round" stroke-linejoin="round" stroke-miterlimit="10" d="
			M685.4,192c0.8,1,2.1,1.7,3.6,1.7s2.7-0.7,3.6-1.7H685.4z"/>
		<g>
			<path fill="none" stroke="#BEECD9" stroke-width="2" stroke-linecap="round" stroke-linejoin="round" stroke-miterlimit="10" d="
				M671.8,181.8L670,201h13C683,201,671.8,195,671.8,181.8z"/>
			<path fill="none" stroke="#BEECD9" stroke-width="2" stroke-linecap="round" stroke-linejoin="round" stroke-miterlimit="10" d="
				M706.2,181.8L708,201h-13C695,201,706.2,195,706.2,181.8z"/>
		</g>
	</g>
</g>
</svg>
