<?xml version="1.0" encoding="utf-8"?>
<!-- Generator: Adobe Illustrator 18.1.0, SVG Export Plug-In . SVG Version: 6.00 Build 0)  -->
<!DOCTYPE svg PUBLIC "-//W3C//DTD SVG 1.1//EN" "http://www.w3.org/Graphics/SVG/1.1/DTD/svg11.dtd">
<svg version="1.1" xmlns="http://www.w3.org/2000/svg" xmlns:xlink="http://www.w3.org/1999/xlink" x="0px" y="0px"
	 viewBox="771.6 364 805 805" enable-background="new 771.6 364 805 805" xml:space="preserve">
<g id="Layer_1">
</g>
<g id="Layer_2">
</g>
<g id="Layer_4">
	<path fill="#FBFBFB" d="M1175.4,517.8c7.5,0,12.5-5,12.5-12.5v-37.5h12.5c7.5,0,12.5-5,12.5-12.5v-75c0-7.5-5-12.5-12.5-12.5h-50
		c-7.5,0-12.5,5-12.5,12.5v75c0,7.5,5,12.5,12.5,12.5h12.5v37.5C1162.9,512.7,1167.9,517.8,1175.4,517.8z M1162.9,392.8h25v50h-25
		V392.8z M895.4,1162.7c2.5,0,5,2.5,5,2.5c5,0,10-2.5,10-7.5l107.5-205c47.5,25,102.5,37.5,157.5,37.5c55,0,107.5-12.5,157.5-37.5
		l107.5,205c2.5,5,7.5,7.5,10,7.5c2.5,0,5,0,5-2.5c5-2.5,7.5-10,5-17.5l-107.5-205c25-15,47.5-32.5,70-52.5c25-25,25-65,0-87.5
		c-22.5-22.5-65-22.5-87.5,0c-12.5,12.5-25,22.5-37.5,30l-60-112.5c22.5-17.5,37.5-45,37.5-77.5c0-55-45-100-100-100
		c-55,0-100,45-100,100c0,32.5,15,60,37.5,77.5l-60,112.5c-12.5-7.5-27.5-20-37.5-30c-22.5-22.5-65-22.5-87.5,0c-25,25-25,65,0,87.5
		c20,20,45,37.5,67.5,52.5l-107.5,205C885.4,1152.8,887.9,1160.3,895.4,1162.7z M972.9,807.8c10,0,20,5,27.5,10
		c47.5,47.5,110,72.5,177.5,72.5c67.5,0,130-25,177.5-72.5c15-15,40-15,52.5,0c15,15,15,37.5,0,52.5c-62.5,62.5-142.5,95-230,95
		s-167.5-35-230-95c-15-15-15-37.5,0-52.5C952.9,810.3,962.9,807.8,972.9,807.8z M1100.4,640.2c0-40,32.5-75,75-75
		c40,0,75,32.5,75,75s-32.5,75-75,75C1135.4,715.2,1100.4,682.8,1100.4,640.2z M1135.4,732.8c12.5,5,25,10,40,10s27.5-2.5,40-7.5
		l57.5,112.5c-30,15-65,22.5-97.5,22.5c-35,0-67.5-7.5-100-22.5C1077.9,842.8,1135.4,732.8,1135.4,732.8z"/>
</g>
<g id="Layer_6">
</g>
<g id="Layer_7" display="none">
	<path display="inline" fill="#F05133" d="M480,624.5L192.5,462c-40-22.5-107.5-22.5-145,0L-240,624.5c-22.5,12.5-35,30-35,50
		s12.5,37.5,35,50L47.5,887c20,10,45,17.5,72.5,17.5c27.5,0,52.5-5,72.5-17.5L480,724.5c22.5-12.5,35-30,35-50
		C512.5,654.5,500,637,480,624.5z M465,699.5L177.5,862c-30,17.5-90,17.5-120,0L-230,699.5c-12.5-7.5-20-17.5-20-25s7.5-17.5,20-25
		L57.5,487c15-10,37.5-12.5,60-12.5s45,5,60,12.5L465,649.5c12.5,7.5,20,17.5,20,25C487.5,682,480,692,465,699.5z M480,794.5
		c-7.5-2.5-15-2.5-17.5,5c-2.5,7.5-2.5,15,5,17.5c12.5,7.5,20,17.5,20,25s-7.5,17.5-20,25L180,1029.5c-32.5,17.5-87.5,17.5-120,0
		L-227.5,867c-12.5-7.5-20-17.5-20-25s7.5-17.5,20-25c7.5-2.5,7.5-12.5,5-17.5c-2.5-7.5-12.5-7.5-17.5-5c-22.5,12.5-35,30-35,50
		s12.5,37.5,35,50L47.5,1057c20,12.5,47.5,17.5,72.5,17.5c27.5,0,52.5-5,72.5-17.5L480,894.5c22.5-12.5,35-30,35-50
		C512.5,824.5,500,807,480,794.5z M480,962c-7.5-2.5-15-2.5-17.5,5c-2.5,7.5-2.5,15,5,17.5c12.5,7.5,20,17.5,20,25s-7.5,17.5-20,25
		L180,1197c-32.5,17.5-87.5,17.5-120,0l-287.5-162.5c-12.5-7.5-20-17.5-20-25c0-10,7.5-17.5,20-25c7.5-2.5,7.5-12.5,5-17.5
		c-2.5-7.5-12.5-7.5-17.5-5c-22.5,12.5-35,30-35,50c0,20,12.5,37.5,35,50l287.5,162.5C67.5,1237,95,1242,120,1242
		c27.5,0,52.5-5,72.5-17.5L480,1062c22.5-12.5,35-30,35-50C512.5,992,500,974.5,480,962z"/>
</g>
<g id="Layer_3" display="none">
	<circle display="inline" fill="#F05133" cx="119.6" cy="841.1" r="400"/>
	<path display="inline" fill="#F4F2CA" d="M69.4,1019l-174.5-171.8l86.6-85.2l87.9,86.5l188.5-185.5l86.5,85.2L69.4,1019z
		 M-57.6,847.2l127,125l227.4-223.9l-39-38.4L69.4,895.4l-87.9-86.6L-57.6,847.2z"/>
</g>
<g id="Layer_5" display="none">
	<path display="inline" fill="#AD3A25" d="M120,441c-220.9,0-400,179.1-400,400s179.1,400,400,400s400-179.1,400-400
		S340.9,441,120,441z M216.3,841h-61.1v223.4H71.4V841H15.5v-77h55.9l-0.2-45.3c0-62.8,17-101.1,91.1-101.1h61.6v77h-38.4
		c-28.8,0-30.2,10.8-30.2,30.8l-0.2,38.6h69.2L216.3,841z"/>
</g>
<g id="Layer_8" display="none">
	<path display="inline" fill="#AD3A25" d="M120,441c-220.9,0-400,179.1-400,400s179.1,400,400,400s400-179.1,400-400
		S340.9,441,120,441z M298,749.7c0.2,3.9,0.3,8,0.3,11.9c0,121.2-92.3,261.1-261.1,261.1c-51.9,0-100.2-15.2-140.6-41.2
		c7.2,0.8,14.5,1.2,21.9,1.2c43,0,82.7-14.7,114.1-39.2c-40.2-0.8-74.1-27.3-85.8-63.8c5.6,1.1,11.4,1.7,17.3,1.7
		c8.4,0,16.4-1.1,24.2-3.3c-42-8.4-73.6-45.5-73.6-90c0-0.3,0-0.8,0-1.1C-73,794-58.7,798-43.7,798.5
		c-24.7-16.4-40.8-44.5-40.8-76.4c0-16.9,4.5-32.7,12.5-46.1c45.3,55.5,113,92,189.2,95.9c-1.6-6.7-2.3-13.7-2.3-20.9
		c0-50.6,41.1-91.7,91.7-91.7c26.4,0,50.3,11.1,67,28.9c20.9-4.1,40.6-11.7,58.3-22.3c-6.9,21.4-21.4,39.4-40.3,50.8
		c18.6-2.2,36.2-7.2,52.7-14.4C331.4,720.7,315.8,736.8,298,749.7z"/>
</g>
</svg>
