<?xml version="1.0" encoding="utf-8"?>
<!-- Generator: Adobe Illustrator 18.1.1, SVG Export Plug-In . SVG Version: 6.00 Build 0)  -->
<!DOCTYPE svg PUBLIC "-//W3C//DTD SVG 1.1//EN" "http://www.w3.org/Graphics/SVG/1.1/DTD/svg11.dtd">
<svg version="1.1" id="Layer_1" xmlns="http://www.w3.org/2000/svg" xmlns:xlink="http://www.w3.org/1999/xlink" x="0px" y="0px"
	 viewBox="0 0 221.6 224.3" enable-background="new 0 0 221.6 224.3" xml:space="preserve">
<g>
	<g>
		<path fill="#FFFFFF" stroke="#BEECD9" stroke-width="4" stroke-linejoin="round" stroke-miterlimit="10" d="M195.6,50.3
			c-9.1,0-16.5,7.4-16.5,16.5s7.4,16.5,16.5,16.5c9.1,0,16.5-7.4,16.5-16.5S204.7,50.3,195.6,50.3z"/>
		<path fill="#BEECD9" d="M189,64.9c-1.1,0-2,0.9-2,2c0,1.1,0.9,2,2,2c1.1,0,2-0.9,2-2C191,65.7,190.1,64.9,189,64.9z"/>
		<path fill="#BEECD9" d="M200.9,64.9c-1.1,0-2,0.9-2,2c0,1.1,0.9,2,2,2c1.1,0,2-0.9,2-2C202.8,65.7,202,64.9,200.9,64.9z"/>
		<path fill="#BEECD9" d="M198.8,64.1c0.1-1,0.2-1.9,0.1-2.9c-0.4-7.9-6.2-14.2-13.7-15.4c-0.1,1-0.2,1.9-0.1,2.9
			C185.5,56.5,191.3,62.8,198.8,64.1z"/>
		<path fill="#BEECD9" d="M193.6,50.3c2,6.9,8.3,11.9,15.8,11.9C207.4,55.4,201.1,50.3,193.6,50.3z"/>
		<path fill="#BEECD9" d="M192.9,50.7c-7.1,0.6-13.3,5.8-14.8,13.2C185.3,63.3,191.4,58.1,192.9,50.7z"/>
		<path fill="none" stroke="#BEECD9" stroke-width="2" stroke-linecap="round" stroke-linejoin="round" stroke-miterlimit="10" d="
			M191.2,72.3c0.6,2,2.3,3.3,4.4,3.3c2.1,0,3.8-1.3,4.4-3.3H191.2z"/>
	</g>
	<g>
		<path fill="#FFFFFF" stroke="#BEECD9" stroke-width="4" stroke-linejoin="round" stroke-miterlimit="10" d="M29.3,98.3
			c-9.1,0-16.5,7.4-16.5,16.5s7.4,16.5,16.5,16.5s16.5-7.4,16.5-16.5S38.4,98.3,29.3,98.3z"/>
		<g>
			<path fill="#BEECD9" d="M23.3,112.9c-1.1,0-2,0.9-2,2c0,1.1,0.9,2,2,2c1.1,0,2-0.9,2-2C25.3,113.7,24.4,112.9,23.3,112.9z"/>
			<path fill="#BEECD9" d="M35.2,112.9c-1.1,0-2,0.9-2,2c0,1.1,0.9,2,2,2c1.1,0,2-0.9,2-2C37.2,113.7,36.3,112.9,35.2,112.9z"/>
		</g>
		<path fill="none" stroke="#BEECD9" stroke-width="2" stroke-linecap="round" stroke-linejoin="round" stroke-miterlimit="10" d="
			M25.2,120.3c0.6,2,2.3,3.3,4.4,3.3s3.8-1.3,4.4-3.3H25.2z"/>
		<path fill="#BEECD9" d="M14.2,108.3h8l1-5l2,5h19c0,0-4.5-10-14-10S14.2,106.3,14.2,108.3z"/>
		<path fill="#BEECD9" d="M10.8,113.4l-2.3,17.9h4.7l0.7-3.6l0.5,3.6h11l-4.8-2C20.5,129.3,10.8,118.3,10.8,113.4z"/>
		<path fill="#BEECD9" d="M47.2,113.4l2.3,17.9h-4.2l-0.2-2.6l-0.5,2.6h-7.8l0.7-2C37.5,129.3,47.2,118.3,47.2,113.4z"/>
	</g>
	<g>
		<path fill="#FFFFFF" stroke="#BEECD9" stroke-width="4" stroke-linejoin="round" stroke-miterlimit="10" d="M22.7,177.3
			c-9.1,0-16.5,7.4-16.5,16.5c0,9.1,7.4,16.5,16.5,16.5s16.5-7.4,16.5-16.5C39.2,184.7,31.8,177.3,22.7,177.3z"/>
		<path fill="#FFFFFF" stroke="#BEECD9" stroke-width="2" stroke-linejoin="round" stroke-miterlimit="10" d="M37.2,187.3
			c2.5-4.4,2.9-8.9,0.6-11.1c-3.2-3-10.1-0.9-15.5,4.7c-2,2-3.4,4.3-4.4,6.4L37.2,187.3z"/>
		<path fill="#BEECD9" d="M16.1,191.9c-1.1,0-2,0.9-2,2c0,1.1,0.9,2,2,2s2-0.9,2-2C18.1,192.7,17.2,191.9,16.1,191.9z"/>
		<path fill="#BEECD9" d="M28,191.9c-1.1,0-2,0.9-2,2c0,1.1,0.9,2,2,2c1.1,0,2-0.9,2-2C30,192.7,29.1,191.9,28,191.9z"/>
		<path fill="#BEECD9" d="M4.9,192.6c0.4,0.1,0.8,0.1,1.2,0.1c3.2,0,5.8-2.2,6.5-5.2c-0.4-0.1-0.8-0.1-1.2-0.1
			C8.2,187.4,5.5,189.6,4.9,192.6z"/>
		
			<line fill="none" stroke="#BEECD9" stroke-width="2" stroke-linecap="round" stroke-linejoin="round" stroke-miterlimit="10" x1="7.4" y1="187.3" x2="37.4" y2="187.3"/>
		
			<ellipse transform="matrix(0.9092 0.4163 -0.4163 0.9092 79.9776 12.2592)" fill="#BEECD9" cx="11.9" cy="189.5" rx="1.4" ry="2.9"/>
		<path fill="none" stroke="#BEECD9" stroke-width="2" stroke-linecap="round" stroke-linejoin="round" stroke-miterlimit="10" d="
			M19.4,202.3c0.8,1.1,2.1,1.7,3.6,1.7s2.7-0.7,3.6-1.7"/>
	</g>
	<g>
		<g>
			<path fill="#FFFFFF" stroke="#BEECD9" stroke-width="4" stroke-linejoin="round" stroke-miterlimit="10" d="M22.5,36.3
				C13.4,36.3,6,43.7,6,52.8s7.4,16.5,16.5,16.5S39,61.9,39,52.8S31.6,36.3,22.5,36.3z"/>
			<path fill="#BEECD9" d="M15.9,50.9c-1.1,0-2,0.9-2,2s0.9,2,2,2s2-0.9,2-2S17,50.9,15.9,50.9z"/>
			<path fill="#BEECD9" d="M27.7,50.9c-1.1,0-2,0.9-2,2s0.9,2,2,2c1.1,0,2-0.9,2-2S28.8,50.9,27.7,50.9z"/>
			<path fill="#BEECD9" d="M6.4,49.3c0.9,0.2,1.9,0.3,2.9,0.3c7.9,0,14.5-5.5,16.1-12.9c-0.9-0.2-1.9-0.3-2.9-0.3
				C14.6,36.3,8,41.9,6.4,49.3z"/>
			<path fill="#BEECD9" d="M22.5,36.3c2,6.9,8.3,11.9,15.8,11.9C36.3,41.4,30,36.3,22.5,36.3z"/>
			<path fill="none" stroke="#BEECD9" stroke-width="2" stroke-linecap="round" stroke-linejoin="round" stroke-miterlimit="10" d="
				M18.1,58.8c0.6,1.9,2.3,3.3,4.4,3.3s3.8-1.4,4.4-3.3"/>
		</g>
		<g>
			
				<line fill="none" stroke="#BEECD9" stroke-width="2" stroke-linecap="round" stroke-linejoin="round" stroke-miterlimit="10" x1="4" y1="43.4" x2="6.7" y2="46.1"/>
			
				<line fill="none" stroke="#BEECD9" stroke-width="2" stroke-linecap="round" stroke-linejoin="round" stroke-miterlimit="10" x1="5.5" y1="49" x2="1.9" y2="45.5"/>
			
				<polyline fill="none" stroke="#BEECD9" stroke-width="2" stroke-linecap="round" stroke-linejoin="round" stroke-miterlimit="10" points="
				1.8,45.4 1,42.5 3.9,43.3 			"/>
		</g>
	</g>
	<g>
		<path fill="#BEECD9" d="M131.5,45.8H51.8c-2.2,0-4-1.8-4-4V4c0-2.2,1.8-4,4-4h79.7c2.2,0,4,1.8,4,4v37.8
			C135.5,44,133.7,45.8,131.5,45.8z"/>
		<polygon fill="#BEECD9" points="62.4,39.3 62.4,55.3 77.1,40.7 		"/>
	</g>
	<g>
		<path fill="#BEECD9" d="M141.5,186.8H61.8c-2.2,0-4-1.8-4-4V145c0-2.2,1.8-4,4-4h79.7c2.2,0,4,1.8,4,4v37.8
			C145.5,185,143.7,186.8,141.5,186.8z"/>
		<polygon fill="#BEECD9" points="69.4,180.3 69.4,196.3 84.1,181.7 		"/>
	</g>
	<g>
		<path fill="#BEECD9" d="M161.5,110.8H81.8c-2.2,0-4-1.8-4-4V69c0-2.2,1.8-4,4-4h79.7c2.2,0,4,1.8,4,4v37.8
			C165.5,109,163.7,110.8,161.5,110.8z"/>
		<polygon fill="#BEECD9" points="157.4,105.3 157.4,121.3 142.8,106.7 		"/>
	</g>
	<g>
		<path fill="#BEECD9" d="M201.1,179.3c-11.3,0-20.5,9.2-20.5,20.5c0,11.3,9.2,20.5,20.5,20.5c11.3,0,20.5-9.2,20.5-20.5
			C221.6,188.5,212.4,179.3,201.1,179.3z"/>
		<path fill="#FFFFFF" stroke="#BEECD9" stroke-width="4" stroke-linejoin="round" stroke-miterlimit="10" d="M201.1,189.3
			c-9.1,0-16.5,7.4-16.5,16.5c0,9.1,7.4,16.5,16.5,16.5s16.5-7.4,16.5-16.5C217.6,196.7,210.2,189.3,201.1,189.3z"/>
		<g>
			<path fill="#BEECD9" d="M195.2,203.9c-1.1,0-2,0.9-2,2c0,1.1,0.9,2,2,2c1.1,0,2-0.9,2-2C197.2,204.7,196.3,203.9,195.2,203.9z"/>
			<path fill="#BEECD9" d="M207.1,203.9c-1.1,0-2,0.9-2,2c0,1.1,0.9,2,2,2s2-0.9,2-2C209,204.7,208.1,203.9,207.1,203.9z"/>
		</g>
		<path fill="#BEECD9" d="M185.1,199.3h31c0,0-5.9-12.4-14.4-12.4C193.1,186.9,185.1,199.3,185.1,199.3z"/>
		
			<polyline fill="none" stroke="#BEECD9" stroke-width="4" stroke-linecap="round" stroke-linejoin="round" stroke-miterlimit="10" points="
			196.1,212.3 201.3,211.3 206.1,212.3 		"/>
	</g>
	<g>
		<path fill="#FFFFFF" stroke="#BEECD9" stroke-width="4" stroke-linejoin="round" stroke-miterlimit="10" d="M181.1,123.3
			c-9.1,0-16.5,7.4-16.5,16.5c0,9.1,7.4,16.5,16.5,16.5s16.5-7.4,16.5-16.5C197.6,130.7,190.2,123.3,181.1,123.3z"/>
		<g>
			<path fill="#BEECD9" d="M175.2,137.9c-1.1,0-2,0.9-2,2c0,1.1,0.9,2,2,2s2-0.9,2-2C177.1,138.7,176.2,137.9,175.2,137.9z"/>
			<path fill="#BEECD9" d="M187,137.9c-1.1,0-2,0.9-2,2c0,1.1,0.9,2,2,2s2-0.9,2-2C189,138.7,188.1,137.9,187,137.9z"/>
		</g>
		<path fill="none" stroke="#BEECD9" stroke-width="2" stroke-linecap="round" stroke-linejoin="round" stroke-miterlimit="10" d="
			M196,135.2c-1.2-4.2-4.1-7.7-7.9-9.8c0.3-0.7-1.5-0.3-1.4-1c-1.9,0-1.7-0.9-3.4-0.7c-1-0.2-2.1-0.3-3.2-0.3
			c0.1,0.3,0.2,0.5,0.3,0.8c-8.3,1.7-12.9,6.3-14.5,12.6c8.3,0.1,14.2-2.1,18.6-6.2C187.5,133.4,191.5,135.2,196,135.2z"/>
		<path fill="none" stroke="#BEECD9" stroke-width="2" stroke-linecap="round" stroke-linejoin="round" stroke-miterlimit="10" d="
			M177.3,147.3c0.8,1,2.1,1.7,3.6,1.7s2.7-0.7,3.6-1.7H177.3z"/>
		<g>
			<path fill="none" stroke="#BEECD9" stroke-width="2" stroke-linecap="round" stroke-linejoin="round" stroke-miterlimit="10" d="
				M163.7,137.2l-1.8,19.2h13C174.9,156.3,163.7,150.3,163.7,137.2z"/>
			<path fill="none" stroke="#BEECD9" stroke-width="2" stroke-linecap="round" stroke-linejoin="round" stroke-miterlimit="10" d="
				M198.2,137.2l1.8,19.2h-13C186.9,156.3,198.2,150.3,198.2,137.2z"/>
		</g>
	</g>
</g>
</svg>
