<?xml version="1.0" encoding="utf-8"?>
<!-- Generator: Adobe Illustrator 18.1.0, SVG Export Plug-In . SVG Version: 6.00 Build 0)  -->
<!DOCTYPE svg PUBLIC "-//W3C//DTD SVG 1.1//EN" "http://www.w3.org/Graphics/SVG/1.1/DTD/svg11.dtd">
<svg version="1.1" id="Capa_1" xmlns="http://www.w3.org/2000/svg" xmlns:xlink="http://www.w3.org/1999/xlink" x="0px" y="0px"
	 viewBox="-531 328 216 146" enable-background="new -531 328 216 146" xml:space="preserve">
<g>
	<path fill="#FFFFFF" d="M-481.7,346.2c6.6,0.2,10.6,1.2,12,3.2c0.9,1.4,1.4,7.1,1.4,17.4v27.1c0,8.5,0.4,15,1.3,19.3
		c1.2,6.5,3.5,11.8,6.8,15.9c3.3,4.1,8.1,7.4,14.6,9.9c6.4,2.5,14.1,3.7,23.1,3.7c7.9,0,14.9-0.9,20.8-2.7
		c5.8-1.7,10.8-4.2,14.8-7.3c4-3.1,7.1-6.5,9.1-10c1.4-2.5,2.5-5.8,3.3-9.9c1.1-5.9,1.5-14.2,1.2-24.8c-0.8-20.5-1.4-31.2-1.8-32.3
		c0-0.6,0-1.4-0.1-2.5c-0.1-1.1-0.1-1.8-0.1-2.2c0-1.4,0.4-2.5,1.2-3.3c0.3-0.3,2.5-0.8,6.4-1.4c2.1-0.1,4.4-0.4,6.8-1.1
		c0.2-1.3,0.3-2.1,0.3-2.5c0-0.7-0.2-2.1-0.5-4.2l-1.5-0.2c-6.5,0.7-11.8,1-16,0.8l-16.7-0.8h-6.8l-0.2,7l1.1,0.2l8.1-0.2
		c2.3-0.1,4.4,0.9,6.3,2.8c1,1.1,1.7,3.5,2,7.2l0.3,4.8c0.3,4.7,0.7,9,1.1,13c0.4,4,0.7,7.3,0.9,10c0.2,2.7,0.3,6.1,0.3,10.4
		c0,8.5-0.6,14.7-1.7,18.7c-0.9,3.2-2.4,6.2-4.3,9.3c-0.9,1.5-2.7,3.3-5.3,5.2c-2.3,1.8-5,3.2-8.1,4.2c-4.7,1.5-9.9,2.3-15.6,2.3
		c-4.8,0-9.6-1.3-14.4-3.8c-3.3-1.8-5.9-4.3-7.8-7.5c-2.4-4.2-3.8-9.7-4.2-16.5l-1.1-22.8l-0.1-18.7c0-0.3,0-1,0-2.1
		c0-1.1,0-1.9,0-2.6c0-6.4,0.4-10,1.1-10.8c1-1.4,3.2-2,6.4-2c3.5,0,6.8-0.2,10.1-0.7V345l-0.2-5.2l0.1-1.1c-1.6,0.1-4,0.2-7,0.2
		c-1.6,0.1-5.6,0.2-11.9,0.4c-4.5,0.2-9,0.2-13.7,0.2c-1.8,0-6.4-0.2-13.5-0.6c-2.8-0.2-5.9-0.3-9.1-0.3c-1.5,0-2.6,0-3.3,0.1
		l0.2,7.2C-484.9,346-483.7,346.1-481.7,346.2z"/>
	<path fill="#FFFFFF" d="M-363,453.1H-483c-0.8,0-1.4,0.2-1.9,0.7c-0.5,0.5-0.7,1.1-0.7,1.9v5.2c0,0.8,0.2,1.4,0.7,1.9
		c0.5,0.5,1.1,0.7,1.9,0.7H-363c0.8,0,1.4-0.2,1.9-0.7c0.5-0.5,0.7-1.1,0.7-1.9v-5.2c0-0.8-0.2-1.4-0.7-1.9
		C-361.6,453.4-362.3,453.1-363,453.1z"/>
</g>
</svg>
