<?xml version="1.0" encoding="utf-8"?>
<!-- Generator: Adobe Illustrator 18.1.1, SVG Export Plug-In . SVG Version: 6.00 Build 0)  -->
<!DOCTYPE svg PUBLIC "-//W3C//DTD SVG 1.1//EN" "http://www.w3.org/Graphics/SVG/1.1/DTD/svg11.dtd">
<svg version="1.1" id="Layer_1" xmlns="http://www.w3.org/2000/svg" xmlns:xlink="http://www.w3.org/1999/xlink" x="0px" y="0px"
	 viewBox="0 0 79.5 82.8" enable-background="new 0 0 79.5 82.8" xml:space="preserve">
<g>
	<circle fill="#BEECD9" cx="39.7" cy="43.1" r="39.8"/>
	<g>
		<defs>
			<circle id="SVGID_1_" cx="39.7" cy="43.1" r="39.8"/>
		</defs>
		<clipPath id="SVGID_2_">
			<use xlink:href="#SVGID_1_"  overflow="visible"/>
		</clipPath>
		<polygon clip-path="url(#SVGID_2_)" fill="#16C493" points="90.8,82.9 -11.3,82.9 17.6,43.2 61.9,43.2 		"/>
	</g>
	<path fill="#FFFFFF" d="M66.3,43.5c0-5.3-4.5-9.7-9.5-9.9v-2.1c0-4.6-7.5-8.4-16.5-8.4s-16.5,3.8-16.5,8.4v23.1
		c0,4.6,7.5,8.4,16.5,8.4s16.5-3.8,16.5-8.4v-1.1C61.8,53.2,66.3,48.9,66.3,43.5z M56.8,49.3V37.8c2,0.3,5.2,2.7,5.2,5.7
		C62.1,46.5,58.8,49,56.8,49.3z"/>
	<path fill="#16C493" d="M40.7,21c0,0-4.5-2.7-3-7.5c2.1-7,9-2.1,9-13.5c0,0,4.2,4.1,3,7.5C47.3,14.5,40.7,9.3,40.7,21z"/>
	<g>
		<defs>
			<path id="SVGID_3_" d="M40.1,36.7c-7.9,0-13.1-3.2-13.1-5.2s5.2-5.2,13.1-5.2s13.1,3.2,13.1,5.2S48,36.7,40.1,36.7z"/>
		</defs>
		<use xlink:href="#SVGID_3_"  overflow="visible" fill="#FF8A33"/>
		<clipPath id="SVGID_4_">
			<use xlink:href="#SVGID_3_"  overflow="visible"/>
		</clipPath>
		<path clip-path="url(#SVGID_4_)" fill="#FF8A33" d="M40.1,39.7c-7.9,0-13.1-3.2-13.1-5.2c0-2.1,5.2-5.2,13.1-5.2
			s13.1,3.2,13.1,5.2C53.2,36.5,48,39.7,40.1,39.7z"/>
	</g>
	<path fill="#16C493" d="M30.7,18.8c0,0-2.5-1.5-1.7-4.2c1.2-3.9,5.1-1.2,5.1-7.6c0,0,2.4,2.3,1.7,4.2
		C34.5,15.1,30.7,12.2,30.7,18.8z"/>
	<g>
		<defs>
			<path id="SVGID_5_" d="M40.1,36.7c-7.9,0-13.1-3.2-13.1-5.2s5.2-5.2,13.1-5.2s13.1,3.2,13.1,5.2S48,36.7,40.1,36.7z"/>
		</defs>
		<clipPath id="SVGID_6_">
			<use xlink:href="#SVGID_5_"  overflow="visible"/>
		</clipPath>
		<g clip-path="url(#SVGID_6_)">
			<defs>
				<path id="SVGID_7_" d="M40.1,40.7c-7.9,0-13.1-3.2-13.1-5.2c0-2.1,5.2-5.2,13.1-5.2s13.1,3.2,13.1,5.2
					C53.2,37.5,48,40.7,40.1,40.7z"/>
			</defs>
			<use xlink:href="#SVGID_7_"  overflow="visible" fill="#EF7D30"/>
			<clipPath id="SVGID_8_">
				<use xlink:href="#SVGID_7_"  overflow="visible"/>
			</clipPath>
			<path clip-path="url(#SVGID_8_)" fill="#EF7D30" d="M40.1,43.7c-7.9,0-13.1-3.2-13.1-5.2c0-2.1,5.2-5.2,13.1-5.2
				s13.1,3.2,13.1,5.2C53.2,40.5,48,43.7,40.1,43.7z"/>
		</g>
		<path clip-path="url(#SVGID_6_)" fill="#EF7D30" d="M40.1,41.7c-7.9,0-13.1-3.2-13.1-5.2c0-2.1,5.2-5.2,13.1-5.2
			s13.1,3.2,13.1,5.2C53.2,38.5,48,41.7,40.1,41.7z"/>
	</g>
</g>
</svg>
