<?xml version="1.0" encoding="utf-8"?>
<!-- Generator: Adobe Illustrator 18.1.1, SVG Export Plug-In . SVG Version: 6.00 Build 0)  -->
<!DOCTYPE svg PUBLIC "-//W3C//DTD SVG 1.1//EN" "http://www.w3.org/Graphics/SVG/1.1/DTD/svg11.dtd">
<svg version="1.1" id="Layer_1" xmlns="http://www.w3.org/2000/svg" xmlns:xlink="http://www.w3.org/1999/xlink" x="0px" y="0px"
	 viewBox="0 0 79.5 79.5" enable-background="new 0 0 79.5 79.5" xml:space="preserve">
<g>
	<g>
		<defs>
			<circle id="SVGID_1_" cx="39.8" cy="39.8" r="39.8"/>
		</defs>
		<clipPath id="SVGID_2_">
			<use xlink:href="#SVGID_1_"  overflow="visible"/>
		</clipPath>
		<ellipse clip-path="url(#SVGID_2_)" fill="#BEECD9" cx="39.8" cy="69.2" rx="28" ry="29.5"/>
	</g>
	<circle fill="#BEECD9" cx="39.8" cy="39.8" r="39.8"/>
	<g>
		<defs>
			<circle id="SVGID_3_" cx="39.8" cy="39.8" r="39.8"/>
		</defs>
		<clipPath id="SVGID_4_">
			<use xlink:href="#SVGID_3_"  overflow="visible"/>
		</clipPath>
		<ellipse clip-path="url(#SVGID_4_)" fill="#BEECD9" cx="39.8" cy="79.2" rx="28" ry="29.5"/>
		<g clip-path="url(#SVGID_4_)">
			<path fill="#16C493" d="M39.9,54.5C40,55.2,40,56,40,56.7c0,6.2-1.8,11.9-5,16.7c8.4-3,15.1-9.5,18.3-17.8
				C48.8,55.3,44.4,54.8,39.9,54.5z"/>
			<path fill="#16C493" d="M39.6,47.7C23.9,47.7,11,60.2,9.2,76.2c0.6,0,1.2,0,1.8,0c14.7,0,27.5-8.4,33.9-20.6
				c4.5,9.4,13.8,16.1,24.7,17.2C66.4,58.5,54.2,47.7,39.6,47.7z"/>
		</g>
	</g>
	<g>
		<circle fill="#16C493" cx="30.3" cy="74.3" r="1.5"/>
		<circle fill="#16C493" cx="50.3" cy="74.3" r="1.5"/>
	</g>
	<g>
		<g>
			<path fill="#FF8A33" d="M58.3,35.1H21.2c-1.7,0-3-1.3-3-3V5.8c0-1.7,1.3-3,3-3h37.1c1.7,0,3,1.3,3,3v26.3
				C61.3,33.7,60,35.1,58.3,35.1z"/>
			<path fill="#FF8A33" d="M35.3,25.4c0.1,0.8,0.1,1.5,0.1,2.3c0,6.4-1.9,12.4-5.2,17.3c8.7-3.1,15.7-9.9,19-18.5
				C44.6,26.3,40,25.7,35.3,25.4z"/>
		</g>
		<g>
			<line fill="none" stroke="#EF7D30" stroke-width="3" stroke-miterlimit="10" x1="24.7" y1="12.5" x2="56.7" y2="12.5"/>
			<line fill="none" stroke="#EF7D30" stroke-width="3" stroke-miterlimit="10" x1="24.7" y1="24.5" x2="47.7" y2="24.5"/>
			<line fill="none" stroke="#EF7D30" stroke-width="3" stroke-miterlimit="10" x1="24.7" y1="18.5" x2="56.7" y2="18.5"/>
		</g>
	</g>
</g>
</svg>
