<?xml version="1.0" encoding="utf-8"?>
<!-- Generator: Adobe Illustrator 18.1.1, SVG Export Plug-In . SVG Version: 6.00 Build 0)  -->
<!DOCTYPE svg PUBLIC "-//W3C//DTD SVG 1.1//EN" "http://www.w3.org/Graphics/SVG/1.1/DTD/svg11.dtd">
<svg version="1.1" id="Layer_1" xmlns="http://www.w3.org/2000/svg" xmlns:xlink="http://www.w3.org/1999/xlink" x="0px" y="0px"
	 viewBox="0 0 728.7 304.2" enable-background="new 0 0 728.7 304.2" xml:space="preserve">
<g>
	<g>
		
			<rect x="121.1" y="2.8" fill="#BEECD9" stroke="#BEECD9" stroke-width="4" stroke-linejoin="round" stroke-miterlimit="10" width="485.4" height="284.2"/>
		
			<rect x="120.5" y="1" fill="#FFFFFF" stroke="#BEECD9" stroke-width="2" stroke-linejoin="round" stroke-miterlimit="10" width="485.4" height="283"/>
		
			<line fill="none" stroke="#BEECD9" stroke-width="2" stroke-linejoin="round" stroke-miterlimit="10" x1="120.5" y1="16" x2="605.5" y2="16"/>
		
			<line fill="none" stroke="#BEECD9" stroke-width="3" stroke-linecap="round" stroke-linejoin="round" stroke-miterlimit="10" x1="144.5" y1="8.5" x2="595.5" y2="8.5"/>
		<g>
			<circle fill="#BEECD9" cx="128" cy="8.5" r="1.5"/>
			<circle fill="#BEECD9" cx="132.5" cy="8.5" r="1.5"/>
			<circle fill="#BEECD9" cx="137" cy="8.5" r="1.5"/>
		</g>
	</g>
	<g>
		<rect x="261.7" y="47.5" fill="#BEECD9" width="200" height="99"/>
		<path fill="#FFFFFF" d="M361.7,84.5c-6.9,0-12.5,5.6-12.5,12.5s5.6,12.5,12.5,12.5s12.5-5.6,12.5-12.5S368.6,84.5,361.7,84.5z
			 M358.6,91.5L368,97l-9.4,5.5V91.5z"/>
	</g>
	<g>
		
			<line fill="none" stroke="#BEECD9" stroke-width="4" stroke-linejoin="round" stroke-miterlimit="10" x1="261.5" y1="160" x2="461.5" y2="160"/>
		
			<line fill="none" stroke="#BEECD9" stroke-width="4" stroke-linejoin="round" stroke-miterlimit="10" x1="261.5" y1="170" x2="461.5" y2="170"/>
		
			<line fill="none" stroke="#BEECD9" stroke-width="4" stroke-linejoin="round" stroke-miterlimit="10" x1="261.5" y1="180" x2="461.5" y2="180"/>
		
			<line fill="none" stroke="#BEECD9" stroke-width="4" stroke-linejoin="round" stroke-miterlimit="10" x1="261.5" y1="190" x2="461.5" y2="190"/>
		
			<line fill="none" stroke="#BEECD9" stroke-width="4" stroke-linejoin="round" stroke-miterlimit="10" x1="261.5" y1="200" x2="386.5" y2="200"/>
	</g>
	<g>
		
			<line fill="none" stroke="#BEECD9" stroke-width="4" stroke-linejoin="round" stroke-miterlimit="10" x1="261.5" y1="220" x2="461.5" y2="220"/>
		
			<line fill="none" stroke="#BEECD9" stroke-width="4" stroke-linejoin="round" stroke-miterlimit="10" x1="261.5" y1="230" x2="461.5" y2="230"/>
		
			<line fill="none" stroke="#BEECD9" stroke-width="4" stroke-linejoin="round" stroke-miterlimit="10" x1="261.5" y1="240" x2="461.5" y2="240"/>
		
			<line fill="none" stroke="#BEECD9" stroke-width="4" stroke-linejoin="round" stroke-miterlimit="10" x1="261.5" y1="250" x2="461.5" y2="250"/>
		
			<line fill="none" stroke="#BEECD9" stroke-width="4" stroke-linejoin="round" stroke-miterlimit="10" x1="261.5" y1="260" x2="343.5" y2="260"/>
	</g>
	<g>
		<path fill="#FFFFFF" stroke="#BEECD9" stroke-width="4" stroke-linejoin="round" stroke-miterlimit="10" d="M702.6,92
			c-9.1,0-16.5,7.4-16.5,16.5s7.4,16.5,16.5,16.5c9.1,0,16.5-7.4,16.5-16.5S711.8,92,702.6,92z"/>
		<path fill="#BEECD9" d="M696,106.5c-1.1,0-2,0.9-2,2s0.9,2,2,2s2-0.9,2-2S697.1,106.5,696,106.5z"/>
		<path fill="#BEECD9" d="M707.9,106.5c-1.1,0-2,0.9-2,2s0.9,2,2,2s2-0.9,2-2S709,106.5,707.9,106.5z"/>
		<path fill="#BEECD9" d="M705.8,105.8c0.1-1,0.2-1.9,0.1-2.9c-0.4-7.9-6.2-14.2-13.7-15.4c-0.1,1-0.2,1.9-0.1,2.9
			C692.5,98.2,698.4,104.5,705.8,105.8z"/>
		<path fill="#BEECD9" d="M700.7,92c2,6.9,8.3,11.9,15.8,11.9C714.5,97,708.2,92,700.7,92z"/>
		<path fill="#BEECD9" d="M700,92.4c-7.1,0.6-13.3,5.8-14.8,13.2C692.3,104.9,698.5,99.7,700,92.4z"/>
		<path fill="none" stroke="#BEECD9" stroke-width="2" stroke-linecap="round" stroke-linejoin="round" stroke-miterlimit="10" d="
			M698.3,114c0.6,2,2.3,3.3,4.4,3.3s3.8-1.3,4.4-3.3H698.3z"/>
	</g>
	<g>
		<path fill="#FFFFFF" stroke="#BEECD9" stroke-width="4" stroke-linejoin="round" stroke-miterlimit="10" d="M536.3,140
			c-9.1,0-16.5,7.4-16.5,16.5s7.4,16.5,16.5,16.5c9.1,0,16.5-7.4,16.5-16.5S545.4,140,536.3,140z"/>
		<g>
			<path fill="#BEECD9" d="M530.4,154.5c-1.1,0-2,0.9-2,2s0.9,2,2,2s2-0.9,2-2S531.5,154.5,530.4,154.5z"/>
			<path fill="#BEECD9" d="M542.3,154.5c-1.1,0-2,0.9-2,2s0.9,2,2,2s2-0.9,2-2S543.4,154.5,542.3,154.5z"/>
		</g>
		<path fill="none" stroke="#BEECD9" stroke-width="2" stroke-linecap="round" stroke-linejoin="round" stroke-miterlimit="10" d="
			M532.3,162c0.6,2,2.3,3.3,4.4,3.3c2.1,0,3.8-1.3,4.4-3.3H532.3z"/>
		<path fill="#BEECD9" d="M521.2,150h8l1-5l2,5h19c0,0-4.5-10-14-10S521.2,148,521.2,150z"/>
		<path fill="#BEECD9" d="M517.9,155.1l-2.3,17.9h4.7l0.7-3.6l0.5,3.6h11l-4.8-2C527.5,171,517.9,160,517.9,155.1z"/>
		<path fill="#BEECD9" d="M554.2,155.1l2.3,17.9h-4.2l-0.2-2.6l-0.5,2.6h-7.8l0.7-2C544.5,171,554.2,160,554.2,155.1z"/>
	</g>
	<g>
		<path fill="#FFFFFF" stroke="#BEECD9" stroke-width="4" stroke-linejoin="round" stroke-miterlimit="10" d="M529.8,219
			c-9.1,0-16.5,7.4-16.5,16.5s7.4,16.5,16.5,16.5c9.1,0,16.5-7.4,16.5-16.5S538.9,219,529.8,219z"/>
		<path fill="#FFFFFF" stroke="#BEECD9" stroke-width="2" stroke-linejoin="round" stroke-miterlimit="10" d="M544.3,229
			c2.5-4.4,2.9-8.9,0.6-11.1c-3.2-3-10.1-0.9-15.5,4.7c-2,2-3.4,4.3-4.4,6.4L544.3,229z"/>
		<path fill="#BEECD9" d="M523.2,233.5c-1.1,0-2,0.9-2,2s0.9,2,2,2c1.1,0,2-0.9,2-2S524.2,233.5,523.2,233.5z"/>
		<path fill="#BEECD9" d="M535,233.5c-1.1,0-2,0.9-2,2s0.9,2,2,2c1.1,0,2-0.9,2-2S536.1,233.5,535,233.5z"/>
		<path fill="#BEECD9" d="M511.9,234.3c0.4,0.1,0.8,0.1,1.2,0.1c3.2,0,5.8-2.2,6.5-5.2c-0.4-0.1-0.8-0.1-1.2-0.1
			C515.2,229.1,512.6,231.3,511.9,234.3z"/>
		
			<line fill="none" stroke="#BEECD9" stroke-width="2" stroke-linecap="round" stroke-linejoin="round" stroke-miterlimit="10" x1="514.5" y1="229" x2="544.5" y2="229"/>
		
			<ellipse transform="matrix(0.9092 0.4163 -0.4163 0.9092 143.3525 -195.0486)" fill="#BEECD9" cx="518.9" cy="231.2" rx="1.4" ry="2.9"/>
		<path fill="none" stroke="#BEECD9" stroke-width="2" stroke-linecap="round" stroke-linejoin="round" stroke-miterlimit="10" d="
			M526.4,244c0.8,1.1,2.1,1.7,3.6,1.7s2.7-0.7,3.6-1.7"/>
	</g>
	<g>
		<g>
			<path fill="#FFFFFF" stroke="#BEECD9" stroke-width="4" stroke-linejoin="round" stroke-miterlimit="10" d="M529.5,78
				c-9.1,0-16.5,7.4-16.5,16.5s7.4,16.5,16.5,16.5c9.1,0,16.5-7.4,16.5-16.5S538.6,78,529.5,78z"/>
			<path fill="#BEECD9" d="M522.9,92.5c-1.1,0-2,0.9-2,2s0.9,2,2,2c1.1,0,2-0.9,2-2S524,92.5,522.9,92.5z"/>
			<path fill="#BEECD9" d="M534.8,92.5c-1.1,0-2,0.9-2,2s0.9,2,2,2c1.1,0,2-0.9,2-2S535.9,92.5,534.8,92.5z"/>
			<path fill="#BEECD9" d="M513.4,90.9c0.9,0.2,1.9,0.3,2.9,0.3c7.9,0,14.5-5.5,16.1-12.9c-0.9-0.2-1.9-0.3-2.9-0.3
				C521.6,78,515,83.5,513.4,90.9z"/>
			<path fill="#BEECD9" d="M529.5,78c2,6.9,8.3,11.9,15.8,11.9C543.4,83,537,78,529.5,78z"/>
			<path fill="none" stroke="#BEECD9" stroke-width="2" stroke-linecap="round" stroke-linejoin="round" stroke-miterlimit="10" d="
				M525.1,100.4c0.6,1.9,2.3,3.3,4.4,3.3c2.1,0,3.8-1.4,4.4-3.3"/>
		</g>
		<g>
			
				<line fill="none" stroke="#BEECD9" stroke-width="2" stroke-linecap="round" stroke-linejoin="round" stroke-miterlimit="10" x1="511.1" y1="85.1" x2="513.7" y2="87.8"/>
			
				<line fill="none" stroke="#BEECD9" stroke-width="2" stroke-linecap="round" stroke-linejoin="round" stroke-miterlimit="10" x1="512.6" y1="90.7" x2="509" y2="87.2"/>
			
				<polyline fill="none" stroke="#BEECD9" stroke-width="2" stroke-linecap="round" stroke-linejoin="round" stroke-miterlimit="10" points="
				508.9,87.1 508.1,84.2 511,85 			"/>
		</g>
	</g>
	<g>
		<path fill="#BEECD9" d="M638.6,87.5h-79.7c-2.2,0-4-1.8-4-4V45.7c0-2.2,1.8-4,4-4h79.7c2.2,0,4,1.8,4,4v37.8
			C642.6,85.7,640.8,87.5,638.6,87.5z"/>
		<polygon fill="#BEECD9" points="569.5,81 569.5,97 584.2,82.3 		"/>
	</g>
	<g>
		<path fill="#BEECD9" d="M648.6,228.5h-79.7c-2.2,0-4-1.8-4-4v-37.8c0-2.2,1.8-4,4-4h79.7c2.2,0,4,1.8,4,4v37.8
			C652.6,226.7,650.8,228.5,648.6,228.5z"/>
		<polygon fill="#BEECD9" points="576.5,222 576.5,238 591.2,223.3 		"/>
	</g>
	<g>
		<path fill="#BEECD9" d="M668.6,152.5h-79.7c-2.2,0-4-1.8-4-4v-37.8c0-2.2,1.8-4,4-4h79.7c2.2,0,4,1.8,4,4v37.8
			C672.6,150.7,670.8,152.5,668.6,152.5z"/>
		<polygon fill="#BEECD9" points="664.5,147 664.5,163 649.8,148.3 		"/>
	</g>
	<g>
		<path fill="#BEECD9" d="M708.2,221c-11.3,0-20.5,9.2-20.5,20.5c0,11.3,9.2,20.5,20.5,20.5s20.5-9.2,20.5-20.5S719.5,221,708.2,221
			z"/>
		<path fill="#FFFFFF" stroke="#BEECD9" stroke-width="4" stroke-linejoin="round" stroke-miterlimit="10" d="M708.2,231
			c-9.1,0-16.5,7.4-16.5,16.5s7.4,16.5,16.5,16.5c9.1,0,16.5-7.4,16.5-16.5S717.3,231,708.2,231z"/>
		<g>
			<path fill="#BEECD9" d="M702.2,245.5c-1.1,0-2,0.9-2,2s0.9,2,2,2c1.1,0,2-0.9,2-2S703.3,245.5,702.2,245.5z"/>
			<path fill="#BEECD9" d="M714.1,245.5c-1.1,0-2,0.9-2,2s0.9,2,2,2c1.1,0,2-0.9,2-2S715.2,245.5,714.1,245.5z"/>
		</g>
		<path fill="#BEECD9" d="M692.2,241h31c0,0-5.9-12.4-14.4-12.4C700.2,228.6,692.2,241,692.2,241z"/>
		
			<polyline fill="none" stroke="#BEECD9" stroke-width="4" stroke-linecap="round" stroke-linejoin="round" stroke-miterlimit="10" points="
			703.2,254 708.3,253 713.2,254 		"/>
	</g>
	<g>
		<path fill="#FFFFFF" stroke="#BEECD9" stroke-width="4" stroke-linejoin="round" stroke-miterlimit="10" d="M688.1,165
			c-9.1,0-16.5,7.4-16.5,16.5S679,198,688.1,198c9.1,0,16.5-7.4,16.5-16.5S697.3,165,688.1,165z"/>
		<g>
			<path fill="#BEECD9" d="M682.2,179.5c-1.1,0-2,0.9-2,2s0.9,2,2,2s2-0.9,2-2S683.3,179.5,682.2,179.5z"/>
			<path fill="#BEECD9" d="M694.1,179.5c-1.1,0-2,0.9-2,2s0.9,2,2,2s2-0.9,2-2S695.2,179.5,694.1,179.5z"/>
		</g>
		<path fill="none" stroke="#BEECD9" stroke-width="2" stroke-linecap="round" stroke-linejoin="round" stroke-miterlimit="10" d="
			M703,176.9c-1.2-4.2-4.1-7.7-7.9-9.8c0.3-0.7-1.5-0.3-1.4-1c-1.9,0-1.7-0.9-3.4-0.7c-1-0.2-2.1-0.3-3.2-0.3
			c0.1,0.3,0.2,0.5,0.3,0.8c-8.3,1.7-12.9,6.3-14.5,12.6c8.3,0.1,14.2-2.1,18.6-6.2C694.5,175.1,698.5,176.9,703,176.9z"/>
		<path fill="none" stroke="#BEECD9" stroke-width="2" stroke-linecap="round" stroke-linejoin="round" stroke-miterlimit="10" d="
			M684.4,189c0.8,1,2.1,1.7,3.6,1.7s2.7-0.7,3.6-1.7H684.4z"/>
		<g>
			<path fill="none" stroke="#BEECD9" stroke-width="2" stroke-linecap="round" stroke-linejoin="round" stroke-miterlimit="10" d="
				M670.8,178.8L669,198h13C682,198,670.8,192,670.8,178.8z"/>
			<path fill="none" stroke="#BEECD9" stroke-width="2" stroke-linecap="round" stroke-linejoin="round" stroke-miterlimit="10" d="
				M705.2,178.8L707,198h-13C694,198,705.2,192,705.2,178.8z"/>
		</g>
	</g>
	<g>
		
			<rect x="2.4" y="58.4" fill="#BEECD9" stroke="#BEECD9" stroke-width="2" stroke-linejoin="round" stroke-miterlimit="10" width="181.1" height="244.9"/>
		
			<rect x="1" y="56.4" fill="#FFFFFF" stroke="#BEECD9" stroke-width="2" stroke-linejoin="round" stroke-miterlimit="10" width="181.1" height="244.9"/>
		<g>
			<g>
				
					<rect x="55.5" y="183.8" fill="#BEECD9" stroke="#BEECD9" stroke-width="2" stroke-linejoin="round" stroke-miterlimit="10" width="105" height="5.5"/>
				
					<rect x="55.5" y="193.8" fill="#FFFFFF" stroke="#BEECD9" stroke-width="2" stroke-linejoin="round" stroke-miterlimit="10" width="51.4" height="5.5"/>
			</g>
			<g>
				<path fill="#BEECD9" d="M35.5,191.5c0,1.7-0.4,3.3-1.3,4.8s-2,2.6-3.5,3.5c-1.5,0.8-3,1.3-4.8,1.3s-3.3-0.4-4.8-1.3
					c-1.5-0.8-2.6-2-3.5-3.5s-1.3-3-1.3-4.8s0.4-3.3,1.3-4.8s2-2.6,3.5-3.5c1.5-0.8,3-1.3,4.8-1.3s3.3,0.4,4.8,1.3
					c1.5,0.8,2.6,2,3.5,3.5S35.5,189.8,35.5,191.5z"/>
				<g>
					<path fill="#FFFFFF" d="M23.8,193.3c0.6,0.4,1.2,0.7,1.8,0.7c0.7,0,1.2-0.3,1.2-0.9c0-0.6-0.4-0.9-1.2-1c-0.2,0-0.6,0-0.7,0.1
						l0-1.4c0.9,0,1.7-0.4,1.7-1.1c0-0.5-0.4-0.7-0.9-0.7c-0.6,0-1.1,0.2-1.6,0.5l-0.7-1.1c0.8-0.5,1.5-0.8,2.6-0.8
						c1.3,0,2.3,0.7,2.3,1.9c0,0.8-0.5,1.6-1.5,1.9v0c1.1,0.1,1.8,0.8,1.8,1.9c0,1.6-1.2,2.4-2.8,2.4c-1,0-2-0.3-2.7-1.1L23.8,193.3
						z"/>
				</g>
			</g>
		</g>
		<g>
			<g>
				
					<rect x="55.5" y="227.1" fill="#BEECD9" stroke="#BEECD9" stroke-width="2" stroke-linejoin="round" stroke-miterlimit="10" width="105" height="5.5"/>
				
					<rect x="55.5" y="237.1" fill="#FFFFFF" stroke="#BEECD9" stroke-width="2" stroke-linejoin="round" stroke-miterlimit="10" width="51.4" height="5.5"/>
			</g>
			<g>
				<path fill="#BEECD9" d="M35.5,234.8c0,1.7-0.4,3.3-1.3,4.8c-0.8,1.5-2,2.6-3.5,3.5c-1.5,0.8-3,1.3-4.8,1.3s-3.3-0.4-4.8-1.3
					c-1.5-0.8-2.6-2-3.5-3.5c-0.8-1.5-1.3-3-1.3-4.8c0-1.7,0.4-3.3,1.3-4.8c0.8-1.5,2-2.6,3.5-3.5c1.5-0.8,3-1.3,4.8-1.3
					s3.3,0.4,4.8,1.3c1.5,0.8,2.6,2,3.5,3.5C35.1,231.5,35.5,233.1,35.5,234.8z"/>
				<g>
					<path fill="#FFFFFF" d="M26.5,237.2H23v-1.4l3-4.9h2.3v4.8H29v1.5h-0.8v1.6h-1.8V237.2z M26.5,235.7v-3.2l-1.9,3.2H26.5z"/>
				</g>
			</g>
		</g>
		<g>
			<g>
				
					<rect x="55.5" y="268.7" fill="#BEECD9" stroke="#BEECD9" stroke-width="2" stroke-linejoin="round" stroke-miterlimit="10" width="105" height="5.5"/>
				
					<rect x="55.5" y="278.7" fill="#FFFFFF" stroke="#BEECD9" stroke-width="2" stroke-linejoin="round" stroke-miterlimit="10" width="51.4" height="5.5"/>
			</g>
			<g>
				<path fill="#BEECD9" d="M35.5,276.4c0,1.7-0.4,3.3-1.3,4.8s-2,2.6-3.5,3.5c-1.5,0.8-3,1.3-4.8,1.3s-3.3-0.4-4.8-1.3
					c-1.5-0.8-2.6-2-3.5-3.5s-1.3-3-1.3-4.8c0-1.7,0.4-3.3,1.3-4.8s2-2.6,3.5-3.5c1.5-0.8,3-1.3,4.8-1.3s3.3,0.4,4.8,1.3
					c1.5,0.8,2.6,2,3.5,3.5S35.5,274.7,35.5,276.4z"/>
				<g>
					<path fill="#FFFFFF" d="M23.9,272.5h4.3l-0.1,1.7h-2.8l-0.1,1.5c0.3-0.2,0.7-0.4,1.3-0.4c1.3,0,2.2,0.8,2.2,2.5
						c0,1.8-1.3,2.8-2.8,2.8c-0.9,0-1.9-0.3-2.6-0.9l0.6-1.2c0.7,0.4,1.2,0.5,1.8,0.5c0.7,0,1.3-0.3,1.3-1.3c0-0.7-0.3-1.1-0.9-1.1
						c-0.4,0-0.7,0.2-0.9,0.4l-0.1,0.6h-1.5L23.9,272.5z"/>
				</g>
			</g>
		</g>
		<rect x="1" y="56.4" fill="#BEECD9" width="181.1" height="25.6"/>
		<g>
			<circle fill="#16C493" cx="91.5" cy="56" r="14"/>
			<path fill="#FFFFFF" d="M97,56.7h-7.4c-0.3,0-0.6-0.3-0.6-0.6s0.3-0.6,0.6-0.6H97c0.3,0,0.6,0.3,0.6,0.6S97.4,56.7,97,56.7z
				 M97,52.4h-7.4c-0.3,0-0.6-0.3-0.6-0.6c0-0.3,0.3-0.6,0.6-0.6H97c0.3,0,0.6,0.3,0.6,0.6C97.7,52.2,97.4,52.4,97,52.4z M86.6,61.7
				c-0.7,0-1.2-0.6-1.2-1.2c0-0.7,0.6-1.2,1.2-1.2c0.7,0,1.2,0.6,1.2,1.2C87.8,61.1,87.3,61.7,86.6,61.7z M86.6,57.4
				c-0.7,0-1.2-0.6-1.2-1.2s0.6-1.2,1.2-1.2c0.7,0,1.2,0.6,1.2,1.2S87.3,57.4,86.6,57.4z M86.6,53.1c-0.7,0-1.2-0.6-1.2-1.2
				c0-0.7,0.6-1.2,1.2-1.2c0.7,0,1.2,0.6,1.2,1.2C87.8,52.5,87.3,53.1,86.6,53.1z M89.7,59.8H97c0.3,0,0.6,0.3,0.6,0.6
				c0,0.3-0.3,0.6-0.6,0.6h-7.4c-0.3,0-0.6-0.3-0.6-0.6C89.1,60.1,89.3,59.8,89.7,59.8z"/>
		</g>
		<g>
			<g>
				
					<rect x="55.5" y="142.3" fill="#BEECD9" stroke="#BEECD9" stroke-width="2" stroke-linejoin="round" stroke-miterlimit="10" width="105" height="5.5"/>
				
					<rect x="55.5" y="152.3" fill="#FFFFFF" stroke="#BEECD9" stroke-width="2" stroke-linejoin="round" stroke-miterlimit="10" width="51.4" height="5.5"/>
			</g>
			<g>
				<circle fill="#FF8A33" cx="26.6" cy="149.9" r="9.5"/>
				<path fill="#FFFFFF" d="M25.2,155.1c-0.3,0-0.6-0.1-0.8-0.4l-2.6-3.5c-0.3-0.4-0.3-1.1,0.2-1.4c0.4-0.3,1.1-0.3,1.4,0.2l1.7,2.3
					l4.3-6.9c0.3-0.5,0.9-0.6,1.4-0.3c0.5,0.3,0.6,0.9,0.3,1.4l-5.1,8.2C25.8,154.9,25.5,155.1,25.2,155.1
					C25.2,155.1,25.2,155.1,25.2,155.1L25.2,155.1z"/>
			</g>
		</g>
		<g>
			<g>
				
					<rect x="55.5" y="98.6" fill="#BEECD9" stroke="#BEECD9" stroke-width="2" stroke-linejoin="round" stroke-miterlimit="10" width="105" height="5.5"/>
				
					<rect x="55.5" y="108.6" fill="#FFFFFF" stroke="#BEECD9" stroke-width="2" stroke-linejoin="round" stroke-miterlimit="10" width="51.4" height="5.5"/>
			</g>
			<g>
				<circle fill="#FF8A33" cx="26.6" cy="105.9" r="9.5"/>
				<path fill="#FFFFFF" d="M25.2,111.5c-0.3,0-0.6-0.1-0.8-0.4l-2.6-3.5c-0.3-0.4-0.3-1.1,0.2-1.4c0.4-0.3,1.1-0.3,1.4,0.2l1.7,2.3
					l4.3-6.9c0.3-0.5,0.9-0.6,1.4-0.3c0.5,0.3,0.6,0.9,0.3,1.4L26,111C25.8,111.3,25.5,111.5,25.2,111.5
					C25.2,111.5,25.2,111.5,25.2,111.5L25.2,111.5z"/>
			</g>
		</g>
	</g>
</g>
</svg>
