<?xml version="1.0" encoding="utf-8"?>
<!-- Generator: Adobe Illustrator 18.1.0, SVG Export Plug-In . SVG Version: 6.00 Build 0)  -->
<!DOCTYPE svg PUBLIC "-//W3C//DTD SVG 1.1//EN" "http://www.w3.org/Graphics/SVG/1.1/DTD/svg11.dtd">
<svg version="1.1" id="Capa_1" xmlns="http://www.w3.org/2000/svg" xmlns:xlink="http://www.w3.org/1999/xlink" x="0px" y="0px"
	 viewBox="-531 328 216 146" enable-background="new -531 328 216 146" xml:space="preserve">
<path fill="#FFFFFF" d="M-384.2,338.6c-1.9,0.1-3.7,0.3-5.5,0.4c-8,0.5-13.9,0.7-17.4,0.7c-1.8,0-3.8-0.1-5.9-0.2l-25.8-1.1
	l-1.5,8.4c0.5,0.1,1.6,0.2,3.1,0.3c5.6,0.3,9.5,1.1,11.7,2.3v3.1l-0.7,4.1l-1.8,11l-1.3,5.1l-2.4,12.8c0,0.1-0.1,0.4-0.3,0.9
	s-0.4,1.4-0.7,2.5c-0.3,1.1-0.6,2.4-1,3.8s-0.8,3.3-1.3,5.5c-0.5,2.2-1,4.5-1.4,6.9l-1,5.2l-4.6,21.8l-2.2,11.3
	c-0.7,3.5-1.8,6.2-3.3,8.2c-2.2,1.1-5.3,2.1-9.5,3.2c-4,1-6.1,1.6-6.3,1.6l-1.4,6.9c1.3-0.1,4-0.4,8-0.7c7.2-0.7,11.9-1,14.2-0.9
	l16.1,0.2c6.8,0.7,10.8,1.2,11.8,1.4c1,0.2,1.8,0.2,2.3,0.2c1,0,2.1-0.1,3.4-0.2c0.3-0.1,0.9-0.1,1.9-0.1c0.1-0.5,0.4-1.7,0.7-3.3
	c0.3-1.6,0.5-3.1,0.6-4.7c-1.6-0.3-3.4-0.5-5.4-0.8c-3-0.3-6.2-0.9-9.7-1.7c-0.2-1.1-0.2-1.8-0.1-2.2l1-3.7l3.5-19.1l3.1-12.9
	l5-25.3c1.2-5.8,3-14.1,5.4-24.9c0.2-2.1,0.6-4.3,1.1-6.7c0.7-3.1,1.3-5.5,2-7.2c2-0.8,4.8-1.7,8.2-2.5c2.9-0.7,5.9-1.5,8.9-2.5
	c0.3-1.2,0.7-2.6,1.1-4.2c0.2-1,0.4-2.1,0.5-3.1C-381.3,338.4-382.3,338.5-384.2,338.6z"/>
</svg>
