<?xml version="1.0" encoding="utf-8"?>
<!-- Generator: Adobe Illustrator 18.1.1, SVG Export Plug-In . SVG Version: 6.00 Build 0)  -->
<!DOCTYPE svg PUBLIC "-//W3C//DTD SVG 1.1//EN" "http://www.w3.org/Graphics/SVG/1.1/DTD/svg11.dtd">
<svg version="1.1" id="Layer_1" xmlns="http://www.w3.org/2000/svg" xmlns:xlink="http://www.w3.org/1999/xlink" x="0px" y="0px"
	 viewBox="0 0 104 84" enable-background="new 0 0 104 84" xml:space="preserve">
<g>
	<circle fill="#FF8A33" cx="42.5" cy="17.8" r="7.8"/>
	<path fill="#FF8A33" d="M22,11c0-3.9-3.1-7-7-7s-7,3.1-7,7h0v7h6.6c0.1,0,0.3,0,0.4,0s0.3,0,0.4,0H22L22,11L22,11z"/>
	<polygon fill="#FF8A33" points="51,47 45.4,44.4 40,47 40,26 51,26 	"/>
	
		<circle fill="none" stroke="#000000" stroke-width="4" stroke-linecap="round" stroke-linejoin="round" stroke-miterlimit="10" cx="45.5" cy="18.8" r="7.8"/>
	<path fill="none" stroke="#000000" stroke-width="4" stroke-linecap="round" stroke-linejoin="round" stroke-miterlimit="10" d="
		M25,9c0-3.9-3.1-7-7-7s-7,3.1-7,7h0v7h6.6c0.1,0,0.3,0,0.4,0s0.3,0,0.4,0H25L25,9L25,9z"/>
	<path fill="none" stroke="#000000" stroke-width="4" stroke-linecap="round" stroke-linejoin="round" stroke-miterlimit="10" d="
		M81,2H25h-7c3.9,0,7,3.1,7,7h0v0v7v59c0,3.9,3.1,7,7,7h56V9C88,5.1,84.9,2,81,2z"/>
	<path fill="#FF8A33" d="M35,68v7c0,2.7-1.6,5.1-3.9,6.3V82H91c3.9,0,7-3.1,7-7v-7H35z"/>
	<path fill="none" stroke="#000000" stroke-width="4" stroke-linecap="round" stroke-linejoin="round" stroke-miterlimit="10" d="
		M39,68v7c0,3.9-3.1,7-7,7h63c3.9,0,7-3.1,7-7v-7H39z"/>
	
		<line fill="none" stroke="#000000" stroke-width="2" stroke-linecap="round" stroke-miterlimit="10" x1="56" y1="40" x2="78" y2="40"/>
	
		<line fill="none" stroke="#000000" stroke-width="2" stroke-linecap="round" stroke-miterlimit="10" x1="56" y1="47" x2="78" y2="47"/>
	
		<line fill="none" stroke="#000000" stroke-width="2" stroke-linecap="round" stroke-miterlimit="10" x1="37" y1="54" x2="78" y2="54"/>
	
		<line fill="none" stroke="#000000" stroke-width="2" stroke-linecap="round" stroke-miterlimit="10" x1="37" y1="61" x2="78" y2="61"/>
	
		<line fill="none" stroke="#000000" stroke-width="2" stroke-linecap="round" stroke-miterlimit="10" x1="56" y1="33" x2="78" y2="33"/>
	
		<line fill="none" stroke="#000000" stroke-width="2" stroke-linecap="round" stroke-miterlimit="10" x1="60" y1="26" x2="78" y2="26"/>
	
		<line fill="none" stroke="#000000" stroke-width="2" stroke-linecap="round" stroke-miterlimit="10" x1="60" y1="19" x2="78" y2="19"/>
	
		<line fill="none" stroke="#000000" stroke-width="2" stroke-linecap="round" stroke-miterlimit="10" x1="60" y1="12" x2="78" y2="12"/>
	<rect x="0.6" y="40" fill="#FF8A33" width="5.7" height="34.3"/>
	<path fill="#FF8A33" d="M0.6,32.8v-4.3c0-0.6,0.4-1,1-1h3.7c0.6,0,1,0.4,1,1v4.3H0.6z"/>
	<path d="M2.2,79.5L3,81c0.1,0.2,0.5,0.2,0.6,0l0.9-1.5c0.1-0.2,0-0.5-0.3-0.5H2.5C2.2,79,2,79.3,2.2,79.5z"/>
	<g>
		
			<line fill="none" stroke="#000000" stroke-width="2" stroke-linecap="round" stroke-miterlimit="10" x1="1" y1="38" x2="6" y2="38"/>
		
			<line fill="none" stroke="#000000" stroke-width="2" stroke-linecap="round" stroke-miterlimit="10" x1="1" y1="35" x2="6" y2="35"/>
	</g>
</g>
</svg>
