<?xml version="1.0" encoding="utf-8"?>
<!-- Generator: Adobe Illustrator 18.1.1, SVG Export Plug-In . SVG Version: 6.00 Build 0)  -->
<!DOCTYPE svg PUBLIC "-//W3C//DTD SVG 1.1//EN" "http://www.w3.org/Graphics/SVG/1.1/DTD/svg11.dtd">
<svg version="1.1" id="Layer_1" xmlns="http://www.w3.org/2000/svg" xmlns:xlink="http://www.w3.org/1999/xlink" x="0px" y="0px"
	 viewBox="-255 145 768 768" enable-background="new -255 145 768 768" xml:space="preserve">
<path fill="#2C4344" d="M129,145c-212.1,0-384,171.9-384,384s171.9,384,384,384s384-171.9,384-384S341.1,145,129,145z M299.9,441.4
	c0.1,3.8,0.3,7.6,0.3,11.4c0,116.4-88.6,250.7-250.6,250.7c-49.8,0-96.2-14.6-135-39.6c6.9,0.8,13.9,1.2,21,1.2
	c41.2,0,79.3-14.1,109.5-37.7c-38.5-0.8-71.1-26.2-82.3-61.2c5.4,1.1,11,1.7,16.7,1.7c8.1,0,15.8-1.1,23.2-3.2
	c-40.3-8.1-70.7-43.7-70.7-86.4c0-0.3,0-0.8,0-1c11.8,6.6,25.5,10.5,39.9,10.9c-23.7-15.8-39.2-42.8-39.2-73.3
	c0-16.2,4.3-31.3,12-44.2c43.5,53.2,108.5,88.3,181.7,92.1c-1.5-6.4-2.2-13.2-2.2-20.1c0-48.6,39.5-88.1,88-88.1
	c25.4,0,48.3,10.6,64.4,27.8c20.1-3.9,39-11.2,56-21.4c-6.6,20.6-20.6,37.8-38.7,48.8c17.9-2.1,34.8-6.9,50.6-13.8
	C332,413.5,317,428.9,299.9,441.4z"/>
</svg>
