<?xml version="1.0" encoding="utf-8"?>
<!-- Generator: Adobe Illustrator 18.1.0, SVG Export Plug-In . SVG Version: 6.00 Build 0)  -->
<!DOCTYPE svg PUBLIC "-//W3C//DTD SVG 1.1//EN" "http://www.w3.org/Graphics/SVG/1.1/DTD/svg11.dtd">
<svg version="1.1" id="Capa_1" xmlns="http://www.w3.org/2000/svg" xmlns:xlink="http://www.w3.org/1999/xlink" x="0px" y="0px"
	 viewBox="-531 328 216 146" enable-background="new -531 328 216 146" xml:space="preserve">
<path fill="#FFFFFF" d="M-373.1,405.6c-4.9-5.7-12.1-9.7-21.8-11.9c6.7-3.1,10.8-5.2,12.2-6.3c3.4-2.6,6-5.4,7.7-8.6
	c1.7-3.2,2.6-6.6,2.6-10.4c0-3.5-0.6-6.8-1.7-9.9c-1.1-3.1-2.9-5.9-5.3-8.5c-2.4-2.6-5.2-4.6-8.3-6.2c-2.9-1.4-5.5-2.5-7.8-3.2
	c-5.6-1.5-10.8-2.2-15.6-2.2h-6c-1.1,0-2.2,0-3.3,0c-1.1,0-1.7,0-1.8,0c-0.3,0-0.7,0-1.1,0c-0.5,0-0.9,0-1.1,0l-3.7,0.1l-31,1.1
	l-21.2,0.5l0.3,6.8c4.6,0.6,7.7,1,9.3,1.1c2.8,0.2,4.6,0.6,5.6,1.2c0.6,0.4,0.9,0.8,1,1c0.5,1.2,0.8,4.2,0.9,8.9
	c0.2,8,0.5,19,0.7,32.9l0.2,40.5c0,7-0.2,12.2-0.7,15.8c-0.2,1.3-0.8,2.7-1.7,4.2c-2.5,1-5.8,1.9-10,2.5c-1.2,0.2-3.1,0.5-5.5,1
	l-0.2,7.7c13-0.4,20.4-0.7,22.2-0.9c11.6-0.7,19.7-1,24.3-0.9l16,0.3c6.3,0.2,11.7-0.1,16.1-0.9c7.1-1.3,12.6-2.9,16.5-4.9
	c4-2,7.8-4.9,11.4-8.8c2.7-3,4.6-6.2,5.8-9.5c1.6-4.6,2.4-9,2.4-13.1C-365.6,417.8-368.1,411.4-373.1,405.6z M-436.9,347.9
	c4.2-0.7,7.8-1.1,10.6-1.1c9.3,0,16.2,2,20.8,6.1c4.6,4.1,6.9,9.2,6.9,15.2c0,8.6-2.4,14.7-7.2,18.2c-4.8,3.5-12,5.3-21.5,5.3
	c-3.6,0-6.5-0.2-8.9-0.6c-0.1-1.8-0.1-3.9-0.1-6.3l0.1-8c0.1-8.5-0.1-16.1-0.5-22.7C-436.9,352.4-436.9,350.3-436.9,347.9z
	 M-396.2,442c-2,3.9-5.3,7-9.9,9.2c-4.6,2.2-10.5,3.3-17.6,3.3c-3.5,0-7.3-0.9-11.4-2.6c-0.7-1.6-1-2.8-1-3.6l-0.2-22l0.1-14.1
	v-11.7c1.5-0.5,4.2-0.8,8.2-0.8c9.1,0,15.8,0.9,20.1,2.6c4.5,1.7,8.3,5.2,11.5,10.3c2.2,3.6,3.3,8.5,3.3,14.7
	C-393.1,433.3-394.1,438.2-396.2,442z"/>
</svg>
