<?xml version="1.0" encoding="utf-8"?>
<!-- Generator: Adobe Illustrator 18.1.1, SVG Export Plug-In . SVG Version: 6.00 Build 0)  -->
<!DOCTYPE svg PUBLIC "-//W3C//DTD SVG 1.1//EN" "http://www.w3.org/Graphics/SVG/1.1/DTD/svg11.dtd">
<svg version="1.1" id="Layer_1" xmlns="http://www.w3.org/2000/svg" xmlns:xlink="http://www.w3.org/1999/xlink" x="0px" y="0px"
	 viewBox="0 0 489.4 289" enable-background="new 0 0 489.4 289" xml:space="preserve">
<g>
	<g>
		
			<rect x="2" y="2.8" fill="#BEECD9" stroke="#BEECD9" stroke-width="4" stroke-linejoin="round" stroke-miterlimit="10" width="485.4" height="284.2"/>
		
			<rect x="1.4" y="1" fill="#FFFFFF" stroke="#BEECD9" stroke-width="2" stroke-linejoin="round" stroke-miterlimit="10" width="485.4" height="283"/>
		
			<line fill="none" stroke="#BEECD9" stroke-width="2" stroke-linejoin="round" stroke-miterlimit="10" x1="1.4" y1="16" x2="486.4" y2="16"/>
		
			<line fill="none" stroke="#BEECD9" stroke-width="3" stroke-linecap="round" stroke-linejoin="round" stroke-miterlimit="10" x1="25.4" y1="8.5" x2="476.4" y2="8.5"/>
		<g>
			<circle fill="#BEECD9" cx="8.9" cy="8.5" r="1.5"/>
			<circle fill="#BEECD9" cx="13.4" cy="8.5" r="1.5"/>
			<circle fill="#BEECD9" cx="17.9" cy="8.5" r="1.5"/>
		</g>
	</g>
	<g>
		<rect x="142.7" y="47.5" fill="#BEECD9" width="200" height="99"/>
		<path fill="#FFFFFF" d="M242.7,84.5c-6.9,0-12.5,5.6-12.5,12.5s5.6,12.5,12.5,12.5c6.9,0,12.5-5.6,12.5-12.5
			S249.6,84.5,242.7,84.5z M239.5,91.5l9.4,5.5l-9.4,5.5V91.5z"/>
	</g>
	<g>
		
			<line fill="none" stroke="#BEECD9" stroke-width="4" stroke-linejoin="round" stroke-miterlimit="10" x1="142.4" y1="160" x2="342.4" y2="160"/>
		
			<line fill="none" stroke="#BEECD9" stroke-width="4" stroke-linejoin="round" stroke-miterlimit="10" x1="142.4" y1="170" x2="342.4" y2="170"/>
		
			<line fill="none" stroke="#BEECD9" stroke-width="4" stroke-linejoin="round" stroke-miterlimit="10" x1="142.4" y1="180" x2="342.4" y2="180"/>
		
			<line fill="none" stroke="#BEECD9" stroke-width="4" stroke-linejoin="round" stroke-miterlimit="10" x1="142.4" y1="190" x2="342.4" y2="190"/>
		
			<line fill="none" stroke="#BEECD9" stroke-width="4" stroke-linejoin="round" stroke-miterlimit="10" x1="142.4" y1="200" x2="267.4" y2="200"/>
	</g>
	<g>
		
			<line fill="none" stroke="#BEECD9" stroke-width="4" stroke-linejoin="round" stroke-miterlimit="10" x1="142.4" y1="220" x2="342.4" y2="220"/>
		
			<line fill="none" stroke="#BEECD9" stroke-width="4" stroke-linejoin="round" stroke-miterlimit="10" x1="142.4" y1="230" x2="342.4" y2="230"/>
		
			<line fill="none" stroke="#BEECD9" stroke-width="4" stroke-linejoin="round" stroke-miterlimit="10" x1="142.4" y1="240" x2="342.4" y2="240"/>
		
			<line fill="none" stroke="#BEECD9" stroke-width="4" stroke-linejoin="round" stroke-miterlimit="10" x1="142.4" y1="250" x2="342.4" y2="250"/>
		
			<line fill="none" stroke="#BEECD9" stroke-width="4" stroke-linejoin="round" stroke-miterlimit="10" x1="142.4" y1="260" x2="224.4" y2="260"/>
	</g>
</g>
</svg>
