<?xml version="1.0" encoding="utf-8"?>
<!-- Generator: Adobe Illustrator 18.1.1, SVG Export Plug-In . SVG Version: 6.00 Build 0)  -->
<!DOCTYPE svg PUBLIC "-//W3C//DTD SVG 1.1//EN" "http://www.w3.org/Graphics/SVG/1.1/DTD/svg11.dtd">
<svg version="1.1" id="Layer_1" xmlns="http://www.w3.org/2000/svg" xmlns:xlink="http://www.w3.org/1999/xlink" x="0px" y="0px"
	 viewBox="0 0 164.5 87.9" enable-background="new 0 0 164.5 87.9" xml:space="preserve">
<g>
	<g>
		<polyline fill="none" stroke="#F68A38" stroke-width="2" stroke-linejoin="round" stroke-miterlimit="10" points="44,36.7 
			33.8,25.8 33.7,25.6 31.6,18.5 38.8,20.5 39,20.7 46.5,28.2 		"/>
	</g>
	<path fill="none" stroke="#39BA90" stroke-width="2" stroke-linecap="round" stroke-linejoin="round" stroke-miterlimit="10" d="
		M84.1,1C61.8,1,43.8,19.1,43.8,41.3s18.1,40.3,40.3,40.3s40.3-18.1,40.3-40.3S106.4,1,84.1,1z"/>
	<path fill="#39BA90" d="M68,38.5c-1.6,0-2.8,1.3-2.8,2.8s1.3,2.8,2.8,2.8s2.8-1.3,2.8-2.8S69.5,38.5,68,38.5z"/>
	<path fill="#39BA90" d="M97,38.5c-1.6,0-2.8,1.3-2.8,2.8s1.3,2.8,2.8,2.8s2.8-1.3,2.8-2.8S98.6,38.5,97,38.5z"/>
	<path fill="#39BA90" d="M44.7,32.6c2.3,0.4,4.7,0.7,7.1,0.7c19.3,0,35.4-13.5,39.3-31.6C88.9,1.3,86.5,1,84.1,1
		C64.8,1,48.7,14.5,44.7,32.6z"/>
	<path fill="#39BA90" d="M84.1,1c4.9,16.8,20.3,29,38.7,29C117.9,13.3,102.4,1,84.1,1z"/>
	<path fill="none" stroke="#39BA90" stroke-width="2" stroke-linecap="round" stroke-linejoin="round" stroke-miterlimit="10" d="
		M73.3,57.8c1.4,4.7,5.7,8.1,10.8,8.1c5.1,0,9.4-3.4,10.8-8.1"/>
	
		<line fill="none" stroke="#C1E4D5" stroke-width="2" stroke-linecap="round" stroke-linejoin="round" stroke-miterlimit="10" x1="151.5" y1="45" x2="163.5" y2="45"/>
	
		<line fill="none" stroke="#C1E4D5" stroke-width="2" stroke-linecap="round" stroke-linejoin="round" stroke-miterlimit="10" x1="142.3" y1="60.9" x2="161.1" y2="67"/>
	
		<line fill="none" stroke="#C1E4D5" stroke-width="2" stroke-linecap="round" stroke-linejoin="round" stroke-miterlimit="10" x1="140.7" y1="75.1" x2="148.8" y2="79.2"/>
	
		<line fill="none" stroke="#C1E4D5" stroke-width="2" stroke-linecap="round" stroke-linejoin="round" stroke-miterlimit="10" x1="21" y1="52.7" x2="1" y2="55.2"/>
	
		<line fill="none" stroke="#C1E4D5" stroke-width="2" stroke-linecap="round" stroke-linejoin="round" stroke-miterlimit="10" x1="23.8" y1="62.9" x2="12.4" y2="67.8"/>
	
		<line fill="none" stroke="#C1E4D5" stroke-width="2" stroke-linecap="round" stroke-linejoin="round" stroke-miterlimit="10" x1="18.5" y1="40.5" x2="11.6" y2="39.3"/>
	
		<line fill="none" stroke="#C1E4D5" stroke-width="2" stroke-linecap="round" stroke-linejoin="round" stroke-miterlimit="10" x1="31.5" y1="83.7" x2="27.5" y2="86.9"/>
</g>
</svg>
