<?xml version="1.0" encoding="utf-8"?>
<!-- Generator: Adobe Illustrator 18.1.0, SVG Export Plug-In . SVG Version: 6.00 Build 0)  -->
<!DOCTYPE svg PUBLIC "-//W3C//DTD SVG 1.1//EN" "http://www.w3.org/Graphics/SVG/1.1/DTD/svg11.dtd">
<svg version="1.1" id="Layer_1" xmlns="http://www.w3.org/2000/svg" xmlns:xlink="http://www.w3.org/1999/xlink" x="0px" y="0px"
	 viewBox="-618 385 42 32" enable-background="new -618 385 42 32" xml:space="preserve">
<g>
	<line opacity="0.3" fill="none" stroke="#449FDB" enable-background="new    " x1="-618" y1="1393" x2="726" y2="1393"/>
</g>
<path fill="#FBFBFB" d="M-576.2,398.1c-0.2-0.2-0.6-0.2-0.8,0.1l-2.4,2.8c-0.1,0-0.1,0-0.2,0h-1.4l1.8-2.2c0.2-0.2,0.2-0.6-0.1-0.8
	c-0.2-0.2-0.6-0.2-0.8,0.1l-2.3,2.8h-1.6l1.8-2.2c0.2-0.2,0.2-0.6-0.1-0.8c-0.2-0.2-0.6-0.2-0.8,0.1l-2.3,2.8h-0.8
	c0-8.8-7.2-16-16-16c-8.8,0-16,7.2-16,16s7.2,16,16,16c8.5,0,15.4-6.6,15.9-15h0.8l2.3,2.8c0.1,0.1,0.3,0.2,0.4,0.2
	c0.1,0,0.2,0,0.3-0.1c0.2-0.2,0.3-0.5,0.1-0.8l-1.8-2.2h1.6l2.3,2.8c0.1,0.1,0.3,0.2,0.4,0.2c0.1,0,0.2,0,0.3-0.1
	c0.2-0.2,0.3-0.5,0.1-0.8l-1.8-2.2h1.4c0.1,0,0.1,0,0.2,0l2.4,2.8c0.1,0.1,0.3,0.2,0.4,0.2c0.1,0,0.2,0,0.3-0.1
	c0.2-0.2,0.3-0.5,0.1-0.8l-2.2-2.7l2.2-2.7C-576,398.6-576,398.3-576.2,398.1z M-602,416c-8.3,0-15-6.7-15-15s6.7-15,15-15
	c8.3,0,15,6.7,15,15h-3c0-6.6-5.4-12-12-12c-6.6,0-12,5.4-12,12s5.4,12,12,12c6.3,0,11.4-4.8,11.9-11h3
	C-587.6,409.8-594.1,416-602,416z M-594,401c0-4.4-3.6-8-8-8c-4.4,0-8,3.6-8,8s3.6,8,8,8c4.1,0,7.4-3,7.9-7h3
	c-0.5,5.6-5.2,10-10.9,10c-6.1,0-11-4.9-11-11s4.9-11,11-11c6.1,0,11,4.9,11,11H-594z M-598,401c0-2.2-1.8-4-4-4c-2.2,0-4,1.8-4,4
	s1.8,4,4,4c1.8,0,3.4-1.3,3.8-3h3.1c-0.5,3.4-3.4,6-6.9,6c-3.9,0-7-3.1-7-7s3.1-7,7-7c3.8,0,7,3.1,7,7C-595,401-598,401-598,401z
	 M-601.5,402h2.3c-0.4,1.2-1.5,2-2.8,2c-1.7,0-3-1.3-3-3s1.3-3,3-3c1.6,0,3,1.3,3,3h-2.5c-0.3,0-0.5,0.2-0.5,0.5
	S-601.8,402-601.5,402z"/>
</svg>
