<?xml version="1.0" encoding="utf-8"?>
<!-- Generator: Adobe Illustrator 18.1.0, SVG Export Plug-In . SVG Version: 6.00 Build 0)  -->
<!DOCTYPE svg PUBLIC "-//W3C//DTD SVG 1.1//EN" "http://www.w3.org/Graphics/SVG/1.1/DTD/svg11.dtd">
<svg version="1.1" id="Layer_1" xmlns="http://www.w3.org/2000/svg" xmlns:xlink="http://www.w3.org/1999/xlink" x="0px" y="0px"
	 viewBox="-623 385 32 32" enable-background="new -623 385 32 32" xml:space="preserve">
<g>
	<line opacity="0.3" fill="none" stroke="#449FDB" enable-background="new    " x1="-623" y1="1393" x2="721" y2="1393"/>
</g>
<path fill="#FBFBFB" d="M-607,385c-8.8,0-16,7.2-16,16s7.2,16,16,16s16-7.2,16-16S-598.2,385-607,385z M-607,416
	c-8.3,0-15-6.7-15-15s6.7-15,15-15s15,6.7,15,15S-598.7,416-607,416z M-612.5,401.5c1.1,0,2-0.9,2-2s-0.9-2-2-2s-2,0.9-2,2
	S-613.6,401.5-612.5,401.5z M-612.5,398.5c0.6,0,1,0.4,1,1s-0.4,1-1,1s-1-0.4-1-1S-613.1,398.5-612.5,398.5z M-601.5,401.5
	c1.1,0,2-0.9,2-2s-0.9-2-2-2s-2,0.9-2,2S-602.6,401.5-601.5,401.5z M-601.5,398.5c0.6,0,1,0.4,1,1s-0.4,1-1,1s-1-0.4-1-1
	S-602.1,398.5-601.5,398.5z M-600.2,407.1c-1.7,1.8-4.1,2.9-6.6,2.9c-2.5,0-5-1.1-6.7-3c-0.2-0.2-0.5-0.2-0.8,0
	c-0.2,0.2-0.2,0.5,0,0.8c1.9,2.1,4.6,3.3,7.5,3.3c2.8,0,5.5-1.2,7.4-3.2c0.2-0.2,0.2-0.6,0-0.8C-599.6,406.8-600,406.9-600.2,407.1z
	"/>
</svg>
