<?xml version="1.0" encoding="utf-8"?>
<!-- Generator: Adobe Illustrator 18.1.1, SVG Export Plug-In . SVG Version: 6.00 Build 0)  -->
<!DOCTYPE svg PUBLIC "-//W3C//DTD SVG 1.1//EN" "http://www.w3.org/Graphics/SVG/1.1/DTD/svg11.dtd">
<svg version="1.1" id="Layer_1" xmlns="http://www.w3.org/2000/svg" xmlns:xlink="http://www.w3.org/1999/xlink" x="0px" y="0px"
	 viewBox="0 0 68.3 104.6" enable-background="new 0 0 68.3 104.6" xml:space="preserve">
<g>
	<g>
		<path fill="#FF8A33" d="M21.4,99.8L21.4,99.8c-1.8,0.1-3.4-1.4-3.4-3.2l-0.1-32.3c-0.1-1.8,1.4-3.4,3.2-3.4l0,0
			c1.8-0.1,3.4,1.4,3.4,3.2l0.1,32.3C24.7,98.2,23.2,99.8,21.4,99.8z"/>
	</g>
	<circle fill="#FF8A33" cx="17.5" cy="41.2" r="5.9"/>
	<circle fill="#FF8A33" cx="30.5" cy="41.9" r="12.3"/>
	<circle fill="#FF8A33" cx="44.8" cy="43.9" r="12.3"/>
	<circle fill="#FF8A33" cx="15" cy="51" r="7.5"/>
	<circle fill="#FF8A33" cx="21.1" cy="57.2" r="10.5"/>
	<circle fill="#FF8A33" cx="32.7" cy="55.6" r="5.9"/>
	<path fill="none" stroke="#000000" stroke-width="4" stroke-linecap="round" stroke-miterlimit="10" d="M38.3,85.6
		c0.6,3,2.8,4.3,5.5,4.3c2.7,0,4.9-1.3,5.5-4.3"/>
	<circle cx="42.7" cy="61.2" r="2.1"/>
	<path fill="none" stroke="#000000" stroke-width="4" stroke-linecap="round" stroke-linejoin="round" stroke-miterlimit="10" d="
		M58.1,102.6V68.9l8.2-1.7L63.9,48c0-0.5,0-0.9,0-1.4l0-0.1c0-12.5-10.3-22.9-22.8-22.9H24.7C12.1,23.6,2,34,2,46.5l0.1,0.1v56"/>
	<g>
		<polygon fill="#FF8A33" points="33.1,8.1 33.1,17.6 36.6,7.8 		"/>
		<polygon fill="#FF8A33" points="33.1,9.5 33.1,0 29.6,9.8 		"/>
	</g>
	<g>
		<polygon fill="#FF8A33" points="51.8,12.4 48.5,19.8 54.6,13.4 		"/>
		<polygon fill="#FF8A33" points="51.3,13.5 54.7,6.1 48.5,12.5 		"/>
	</g>
	<g>
		<polygon fill="#FF8A33" points="14.3,13.4 17.5,20.9 17,12 		"/>
		<polygon fill="#FF8A33" points="14.8,14.5 11.7,7 12.2,15.9 		"/>
	</g>
</g>
</svg>
