<?xml version="1.0" encoding="utf-8"?>
<!-- Generator: Adobe Illustrator 18.1.1, SVG Export Plug-In . SVG Version: 6.00 Build 0)  -->
<!DOCTYPE svg PUBLIC "-//W3C//DTD SVG 1.1//EN" "http://www.w3.org/Graphics/SVG/1.1/DTD/svg11.dtd">
<svg version="1.1" id="Layer_1" xmlns="http://www.w3.org/2000/svg" xmlns:xlink="http://www.w3.org/1999/xlink" x="0px" y="0px"
	 viewBox="0 0 113.8 95.2" enable-background="new 0 0 113.8 95.2" xml:space="preserve">
<circle fill="#FF8A33" cx="48.9" cy="8.2" r="8"/>
<path fill="#FF8A33" d="M93.5,46.2h-5.3c-2.9-9-10.4-16.4-19.7-18.7l0.1-8.9c0-0.8-0.8-1.3-1.5-0.9c-5.4,1.4-10.2,4-14.4,8
	c-0.3,0.1-0.4,0.4-0.5,0.4H41.8c-15.2,0-27.7,12.6-27.7,27.8l0,0c0,9.4,4.7,17.9,11.7,22.9v13c0,2.7,2.5,5.2,5.2,5.2h0
	c2.7,0,4.8-2.5,4.8-5.2v-8.8c2,0.4,4,1,6,1h17V90c0,2.7,2.2,5.2,4.9,5.2h0c2.7,0,5.1-2.5,5.1-5.2v-9c8-2.1,15.2-7.8,18.5-15.8h6.2
	c3.3,0,6.3-3,6.3-6.3V52C99.8,48.7,96.8,46.2,93.5,46.2z"/>
<path fill="none" stroke="#000000" stroke-width="4" stroke-linecap="round" stroke-miterlimit="10" d="M96.5,43.2h-5.3
	c-2.9-9-10.4-16.4-19.7-18.7l0.1-8.9c0-0.8-0.8-1.3-1.5-0.9c-5.4,1.4-10.2,4-14.4,8c-0.3,0.1-0.4,0.4-0.5,0.4H44.8
	c-15.2,0-27.7,12.6-27.7,27.8l0,0c0,9.4,4.7,17.9,11.7,22.9v13c0,2.7,2.5,5.2,5.2,5.2h0c2.7,0,4.8-2.5,4.8-5.2v-8.8c2,0.4,4,1,6,1
	h17V87c0,2.7,2.2,5.2,4.9,5.2h0c2.7,0,5.1-2.5,5.1-5.2v-9c8-2.1,15.2-7.8,18.5-15.8h6.2c3.3,0,6.3-3,6.3-6.3V49
	C102.8,45.7,99.8,43.2,96.5,43.2z"/>
<circle cx="72.3" cy="40.8" r="2.1"/>
<line fill="none" stroke="#000000" stroke-width="4" stroke-linecap="round" stroke-miterlimit="10" x1="42.8" y1="30.2" x2="53.8" y2="30.2"/>
<path fill="none" stroke="#000000" stroke-width="2" stroke-linecap="round" stroke-miterlimit="10" d="M20,51.6c0,0-4,0.9-8.2-0.1
	c-3.9-1.6-4.2-4.1-4.2-7.4c0-1.8,1.4-4.5,4.3-4.5c2,0,4.2,1.2,4.2,3.9c0,2.9-2.5,4-4,4c-3,0-4.4-0.5-4.4-0.5s-3.9-0.4-5.9-3.9"/>
<g>
	<path d="M49.3,11.3v0.5c0,0.2-0.2,0.4-0.4,0.4c-0.3,0-0.4-0.2-0.4-0.4v-0.5c-0.7-0.1-1.6-0.3-1.9-0.8c-0.1-0.1-0.1-0.2-0.1-0.3
		c0-0.3,0.3-0.6,0.6-0.6c0.1,0,0.2,0,0.4,0.1c0.3,0.2,0.6,0.4,1,0.4V8.8c-0.9-0.2-1.9-0.6-1.9-1.8c0-0.9,0.7-1.7,1.9-1.8V4.7
		c0-0.2,0.2-0.4,0.4-0.4c0.2,0,0.4,0.2,0.4,0.4v0.5c0.5,0.1,1.3,0.3,1.6,0.7C50.9,5.9,51,6,51,6.1c0,0.3-0.3,0.6-0.6,0.6
		c-0.1,0-0.1,0-0.2,0c-0.3-0.1-0.6-0.3-0.8-0.3v1.3c0.9,0.2,2,0.6,2,1.8C51.3,10.4,50.6,11.2,49.3,11.3z M48.5,6.3
		c-0.4,0.1-0.6,0.3-0.6,0.6c0,0.3,0.3,0.4,0.6,0.5V6.3z M49.3,9v1.2c0.4-0.1,0.7-0.4,0.7-0.6C50,9.3,49.7,9.1,49.3,9z"/>
</g>
</svg>
