<?xml version="1.0" encoding="utf-8"?>
<!-- Generator: Adobe Illustrator 18.1.1, SVG Export Plug-In . SVG Version: 6.00 Build 0)  -->
<!DOCTYPE svg PUBLIC "-//W3C//DTD SVG 1.1//EN" "http://www.w3.org/Graphics/SVG/1.1/DTD/svg11.dtd">
<svg version="1.1" id="Layer_1" xmlns="http://www.w3.org/2000/svg" xmlns:xlink="http://www.w3.org/1999/xlink" x="0px" y="0px"
	 viewBox="0 0 708 308.9" enable-background="new 0 0 708 308.9" xml:space="preserve">
<g>
	
		<rect x="113" y="4" fill="#BEECD9" stroke="#BEECD9" stroke-width="4" stroke-linejoin="round" stroke-miterlimit="10" width="485.4" height="284.2"/>
	
		<rect x="110" y="1" fill="#FFFFFF" stroke="#BEECD9" stroke-width="2" stroke-linejoin="round" stroke-miterlimit="10" width="485.4" height="283"/>
	
		<line fill="none" stroke="#BEECD9" stroke-width="2" stroke-linejoin="round" stroke-miterlimit="10" x1="110" y1="16" x2="595" y2="16"/>
	
		<line fill="none" stroke="#BEECD9" stroke-width="3" stroke-linecap="round" stroke-linejoin="round" stroke-miterlimit="10" x1="134" y1="8.5" x2="585" y2="8.5"/>
	
		<rect x="4" y="62" fill="#BEECD9" stroke="#BEECD9" stroke-width="4" stroke-linejoin="round" stroke-miterlimit="10" width="198.9" height="244.9"/>
	
		<rect x="1" y="59" fill="#FFFFFF" stroke="#BEECD9" stroke-width="2" stroke-linejoin="round" stroke-miterlimit="10" width="198.9" height="244.9"/>
	<g>
		<circle fill="#FF8A33" cx="32.1" cy="133.5" r="9.5"/>
		<path fill="#FFFFFF" d="M37.7,132.1l-5.8,5.8c-0.2,0.2-0.4,0.3-0.6,0.3c-0.2,0-0.4-0.1-0.6-0.3l-4-4c-0.2-0.2-0.3-0.4-0.3-0.6
			s0.1-0.4,0.3-0.6l1.4-1.4c0.2-0.2,0.4-0.3,0.6-0.3c0.2,0,0.4,0.1,0.6,0.3l2,2l3.8-3.8c0.2-0.2,0.4-0.3,0.6-0.3
			c0.2,0,0.4,0.1,0.6,0.3l1.4,1.4c0.2,0.2,0.3,0.4,0.3,0.6C37.9,131.8,37.8,132,37.7,132.1z"/>
	</g>
	<g>
		<circle fill="#FF8A33" cx="32.1" cy="92.5" r="9.5"/>
		<path fill="#FFFFFF" d="M37.7,91.1l-5.8,5.8c-0.2,0.2-0.4,0.3-0.6,0.3c-0.2,0-0.4-0.1-0.6-0.3l-4-4c-0.2-0.2-0.3-0.4-0.3-0.6
			s0.1-0.4,0.3-0.6l1.4-1.4c0.2-0.2,0.4-0.3,0.6-0.3c0.2,0,0.4,0.1,0.6,0.3l2,2l3.8-3.8c0.2-0.2,0.4-0.3,0.6-0.3
			c0.2,0,0.4,0.1,0.6,0.3l1.4,1.4c0.2,0.2,0.3,0.4,0.3,0.6S37.8,91,37.7,91.1z"/>
	</g>
	<g>
		<rect x="61" y="81" fill="#BEECD9" width="105" height="9"/>
		<rect x="61" y="95" fill="#BEECD9" width="79" height="9"/>
	</g>
	<g>
		<rect x="61" y="124.2" fill="#BEECD9" width="105" height="9"/>
		<rect x="61" y="138.2" fill="#BEECD9" width="50" height="9"/>
	</g>
	<g>
		<rect x="61" y="167.5" fill="#BEECD9" width="105" height="9"/>
		<rect x="61" y="181.5" fill="#BEECD9" width="85" height="9"/>
	</g>
	<g>
		<rect x="61" y="210.8" fill="#BEECD9" width="105" height="9"/>
		<rect x="61" y="224.8" fill="#BEECD9" width="39" height="9"/>
	</g>
	<g>
		<rect x="61" y="254" fill="#BEECD9" width="105" height="9"/>
		<rect x="61" y="268" fill="#BEECD9" width="71" height="9"/>
	</g>
	<g>
		<path fill="#BEECD9" d="M41,178.5c0,1.7-0.4,3.3-1.3,4.8s-2,2.6-3.5,3.5c-1.5,0.8-3,1.3-4.8,1.3c-1.7,0-3.3-0.4-4.8-1.3
			c-1.5-0.8-2.6-2-3.5-3.5s-1.3-3-1.3-4.8s0.4-3.3,1.3-4.8s2-2.6,3.5-3.5c1.5-0.8,3-1.3,4.8-1.3c1.7,0,3.3,0.4,4.8,1.3
			c1.5,0.8,2.6,2,3.5,3.5S41,176.8,41,178.5z"/>
		<rect x="22" y="174" fill="none" width="19" height="14"/>
		<text transform="matrix(1 0 0 1 28.4424 181.9199)" fill="#FFFFFF" font-family="'LFTEtica-Bold'" font-size="11">3</text>
	</g>
	<g>
		<path fill="#BEECD9" d="M41,221.5c0,1.7-0.4,3.3-1.3,4.8s-2,2.6-3.5,3.5c-1.5,0.8-3,1.3-4.8,1.3c-1.7,0-3.3-0.4-4.8-1.3
			c-1.5-0.8-2.6-2-3.5-3.5s-1.3-3-1.3-4.8s0.4-3.3,1.3-4.8s2-2.6,3.5-3.5c1.5-0.8,3-1.3,4.8-1.3c1.7,0,3.3,0.4,4.8,1.3
			c1.5,0.8,2.6,2,3.5,3.5S41,219.8,41,221.5z"/>
		<rect x="22" y="217" fill="none" width="19" height="14"/>
		<text transform="matrix(1 0 0 1 28.167 224.9199)" fill="#FFFFFF" font-family="'LFTEtica-Bold'" font-size="11">4</text>
	</g>
	<g>
		<path fill="#BEECD9" d="M41,264.5c0,1.7-0.4,3.3-1.3,4.8s-2,2.6-3.5,3.5s-3,1.3-4.8,1.3c-1.7,0-3.3-0.4-4.8-1.3
			c-1.5-0.8-2.6-2-3.5-3.5s-1.3-3-1.3-4.8s0.4-3.3,1.3-4.8s2-2.6,3.5-3.5c1.5-0.8,3-1.3,4.8-1.3c1.7,0,3.3,0.4,4.8,1.3
			c1.5,0.8,2.6,2,3.5,3.5S41,262.8,41,264.5z"/>
		<rect x="22" y="260" fill="none" width="19" height="14"/>
		<text transform="matrix(1 0 0 1 28.4863 267.9199)" fill="#FFFFFF" font-family="'LFTEtica-Bold'" font-size="11">5</text>
	</g>
	<g>
		<circle fill="#BEECD9" cx="117.5" cy="8.5" r="1.5"/>
		<circle fill="#BEECD9" cx="122" cy="8.5" r="1.5"/>
		<circle fill="#BEECD9" cx="126.5" cy="8.5" r="1.5"/>
	</g>
	<g>
		<rect x="251.2" y="47.5" fill="#BEECD9" width="200" height="99"/>
		<path fill="#FFFFFF" d="M351.2,84.5c-6.9,0-12.5,5.6-12.5,12.5s5.6,12.5,12.5,12.5s12.5-5.6,12.5-12.5S358.2,84.5,351.2,84.5z
			 M348.1,91.5l9.4,5.5l-9.4,5.5V91.5z"/>
	</g>
	<g>
		
			<line fill="none" stroke="#BEECD9" stroke-width="4" stroke-linejoin="round" stroke-miterlimit="10" x1="251" y1="160" x2="451" y2="160"/>
		
			<line fill="none" stroke="#BEECD9" stroke-width="4" stroke-linejoin="round" stroke-miterlimit="10" x1="251" y1="170" x2="451" y2="170"/>
		
			<line fill="none" stroke="#BEECD9" stroke-width="4" stroke-linejoin="round" stroke-miterlimit="10" x1="251" y1="180" x2="451" y2="180"/>
		
			<line fill="none" stroke="#BEECD9" stroke-width="4" stroke-linejoin="round" stroke-miterlimit="10" x1="251" y1="190" x2="451" y2="190"/>
		
			<line fill="none" stroke="#BEECD9" stroke-width="4" stroke-linejoin="round" stroke-miterlimit="10" x1="251" y1="200" x2="376" y2="200"/>
	</g>
	<g>
		
			<line fill="none" stroke="#BEECD9" stroke-width="4" stroke-linejoin="round" stroke-miterlimit="10" x1="251" y1="220" x2="451" y2="220"/>
		
			<line fill="none" stroke="#BEECD9" stroke-width="4" stroke-linejoin="round" stroke-miterlimit="10" x1="251" y1="230" x2="451" y2="230"/>
		
			<line fill="none" stroke="#BEECD9" stroke-width="4" stroke-linejoin="round" stroke-miterlimit="10" x1="251" y1="240" x2="451" y2="240"/>
		
			<line fill="none" stroke="#BEECD9" stroke-width="4" stroke-linejoin="round" stroke-miterlimit="10" x1="251" y1="250" x2="451" y2="250"/>
		
			<line fill="none" stroke="#BEECD9" stroke-width="4" stroke-linejoin="round" stroke-miterlimit="10" x1="251" y1="260" x2="333" y2="260"/>
	</g>
	<g>
		<path fill="#FFFFFF" stroke="#BEECD9" stroke-width="4" stroke-linejoin="round" stroke-miterlimit="10" d="M688.5,97
			c-9.1,0-16.5,7.4-16.5,16.5s7.4,16.5,16.5,16.5s16.5-7.4,16.5-16.5S697.6,97,688.5,97z"/>
		<path fill="#BEECD9" d="M681.9,111.5c-1.1,0-2,0.9-2,2s0.9,2,2,2c1.1,0,2-0.9,2-2S683,111.5,681.9,111.5z"/>
		<path fill="#BEECD9" d="M693.8,111.5c-1.1,0-2,0.9-2,2s0.9,2,2,2c1.1,0,2-0.9,2-2S694.9,111.5,693.8,111.5z"/>
		<path fill="#BEECD9" d="M691.7,110.8c0.1-1,0.2-1.9,0.1-2.9c-0.4-7.9-6.2-14.2-13.7-15.4c-0.1,1-0.2,1.9-0.1,2.9
			C678.4,103.2,684.2,109.5,691.7,110.8z"/>
		<path fill="#BEECD9" d="M686.5,97c2,6.9,8.3,11.9,15.8,11.9C700.3,102,694,97,686.5,97z"/>
		<path fill="#BEECD9" d="M685.8,97.4c-7.1,0.6-13.3,5.8-14.8,13.2C678.1,109.9,684.3,104.7,685.8,97.4z"/>
		<path fill="none" stroke="#BEECD9" stroke-width="2" stroke-linecap="round" stroke-linejoin="round" stroke-miterlimit="10" d="
			M684.1,119c0.6,2,2.3,3.3,4.4,3.3s3.8-1.3,4.4-3.3H684.1z"/>
	</g>
	<g>
		<path fill="#FFFFFF" stroke="#BEECD9" stroke-width="4" stroke-linejoin="round" stroke-miterlimit="10" d="M523.1,144
			c-9.1,0-16.5,7.4-16.5,16.5S514,177,523.1,177c9.1,0,16.5-7.4,16.5-16.5S532.2,144,523.1,144z"/>
		<g>
			<path fill="#BEECD9" d="M517.2,158.5c-1.1,0-2,0.9-2,2s0.9,2,2,2s2-0.9,2-2S518.3,158.5,517.2,158.5z"/>
			<path fill="#BEECD9" d="M529.1,158.5c-1.1,0-2,0.9-2,2s0.9,2,2,2s2-0.9,2-2S530.2,158.5,529.1,158.5z"/>
		</g>
		<path fill="none" stroke="#BEECD9" stroke-width="2" stroke-linecap="round" stroke-linejoin="round" stroke-miterlimit="10" d="
			M519.1,166c0.6,2,2.3,3.3,4.4,3.3s3.8-1.3,4.4-3.3H519.1z"/>
		<path fill="#BEECD9" d="M508,154h8l1-5l2,5h19c0,0-4.5-10-14-10S508,152,508,154z"/>
		<path fill="#BEECD9" d="M504.7,159.1l-2.3,17.9h4.7l0.7-3.6l0.5,3.6h11l-4.8-2C514.3,175,504.7,164,504.7,159.1z"/>
		<path fill="#BEECD9" d="M541,159.1l2.3,17.9h-4.2l-0.2-2.6l-0.5,2.6h-7.8l0.7-2C531.3,175,541,164,541,159.1z"/>
	</g>
	<g>
		<path fill="#FFFFFF" stroke="#BEECD9" stroke-width="4" stroke-linejoin="round" stroke-miterlimit="10" d="M687.5,239
			c-9.1,0-16.5,7.4-16.5,16.5s7.4,16.5,16.5,16.5s16.5-7.4,16.5-16.5S696.6,239,687.5,239z"/>
		<path fill="#FFFFFF" stroke="#BEECD9" stroke-width="2" stroke-linejoin="round" stroke-miterlimit="10" d="M702,249
			c2.5-4.4,2.9-8.9,0.6-11.1c-3.2-3-10.1-0.9-15.5,4.7c-2,2-3.4,4.3-4.4,6.4L702,249z"/>
		<path fill="#BEECD9" d="M680.9,253.5c-1.1,0-2,0.9-2,2c0,1.1,0.9,2,2,2c1.1,0,2-0.9,2-2C682.9,254.4,682,253.5,680.9,253.5z"/>
		<path fill="#BEECD9" d="M692.8,253.5c-1.1,0-2,0.9-2,2c0,1.1,0.9,2,2,2c1.1,0,2-0.9,2-2C694.8,254.4,693.9,253.5,692.8,253.5z"/>
		<path fill="#BEECD9" d="M669.4,254.3c0.4,0.1,0.8,0.1,1.2,0.1c3.2,0,5.8-2.2,6.5-5.2c-0.4-0.1-0.8-0.1-1.2-0.1
			C672.8,249.1,670.1,251.3,669.4,254.3z"/>
		
			<line fill="none" stroke="#BEECD9" stroke-width="2" stroke-linecap="round" stroke-linejoin="round" stroke-miterlimit="10" x1="672" y1="249" x2="702" y2="249"/>
		
			<ellipse transform="matrix(0.9092 0.4163 -0.4163 0.9092 165.9769 -258.8054)" fill="#BEECD9" cx="676.4" cy="251.2" rx="1.4" ry="2.9"/>
		<path fill="none" stroke="#BEECD9" stroke-width="2" stroke-linecap="round" stroke-linejoin="round" stroke-miterlimit="10" d="
			M683.9,264c0.8,1.1,2.1,1.7,3.6,1.7s2.7-0.7,3.6-1.7"/>
	</g>
	<g>
		<g>
			<path fill="#FFFFFF" stroke="#BEECD9" stroke-width="4" stroke-linejoin="round" stroke-miterlimit="10" d="M522.5,77
				c-9.1,0-16.5,7.4-16.5,16.5s7.4,16.5,16.5,16.5s16.5-7.4,16.5-16.5S531.6,77,522.5,77z"/>
			<path fill="#BEECD9" d="M515.9,91.5c-1.1,0-2,0.9-2,2s0.9,2,2,2c1.1,0,2-0.9,2-2S517,91.5,515.9,91.5z"/>
			<path fill="#BEECD9" d="M527.8,91.5c-1.1,0-2,0.9-2,2s0.9,2,2,2c1.1,0,2-0.9,2-2S528.9,91.5,527.8,91.5z"/>
			<path fill="#BEECD9" d="M506.4,89.9c0.9,0.2,1.9,0.3,2.9,0.3c7.9,0,14.5-5.5,16.1-12.9c-0.9-0.2-1.9-0.3-2.9-0.3
				C514.6,77,508,82.5,506.4,89.9z"/>
			<path fill="#BEECD9" d="M522.5,77c2,6.9,8.3,11.9,15.8,11.9C536.3,82,530,77,522.5,77z"/>
			<path fill="none" stroke="#BEECD9" stroke-width="2" stroke-linecap="round" stroke-linejoin="round" stroke-miterlimit="10" d="
				M518.1,99.4c0.6,1.9,2.3,3.3,4.4,3.3s3.8-1.4,4.4-3.3"/>
		</g>
		<g>
			
				<line fill="none" stroke="#BEECD9" stroke-width="2" stroke-linecap="round" stroke-linejoin="round" stroke-miterlimit="10" x1="504" y1="84.1" x2="506.7" y2="86.8"/>
			
				<line fill="none" stroke="#BEECD9" stroke-width="2" stroke-linecap="round" stroke-linejoin="round" stroke-miterlimit="10" x1="505.5" y1="89.7" x2="501.9" y2="86.2"/>
			
				<polyline fill="none" stroke="#BEECD9" stroke-width="2" stroke-linecap="round" stroke-linejoin="round" stroke-miterlimit="10" points="
				501.9,86.1 501,83.2 504,84 			"/>
		</g>
	</g>
	<path fill="#BEECD9" d="M630.1,87.5h-79.7c-2.2,0-4-1.8-4-4V45.7c0-2.2,1.8-4,4-4h79.7c2.2,0,4,1.8,4,4v37.8
		C634.1,85.7,632.3,87.5,630.1,87.5z"/>
	<path fill="#BEECD9" d="M640.1,219.5h-79.7c-2.2,0-4-1.8-4-4v-37.8c0-2.2,1.8-4,4-4h79.7c2.2,0,4,1.8,4,4v37.8
		C644.1,217.7,642.3,219.5,640.1,219.5z"/>
	<path fill="#BEECD9" d="M658.1,152.5h-79.7c-2.2,0-4-1.8-4-4v-37.8c0-2.2,1.8-4,4-4h79.7c2.2,0,4,1.8,4,4v37.8
		C662.1,150.7,660.3,152.5,658.1,152.5z"/>
	<polygon fill="#BEECD9" points="561,81 561,97 575.7,82.3 	"/>
	<polygon fill="#BEECD9" points="568,213 568,229 582.7,214.3 	"/>
	<polygon fill="#BEECD9" points="654,147 654,163 639.3,148.3 	"/>
	<g>
		<path fill="#BEECD9" d="M523,210c-11.3,0-20.5,9.2-20.5,20.5c0,11.3,9.2,20.5,20.5,20.5s20.5-9.2,20.5-20.5S534.3,210,523,210z"/>
		<path fill="#FFFFFF" stroke="#BEECD9" stroke-width="4" stroke-linejoin="round" stroke-miterlimit="10" d="M523,220
			c-9.1,0-16.5,7.4-16.5,16.5S513.9,253,523,253c9.1,0,16.5-7.4,16.5-16.5S532.1,220,523,220z"/>
		<g>
			<path fill="#BEECD9" d="M517,234.5c-1.1,0-2,0.9-2,2s0.9,2,2,2s2-0.9,2-2S518.1,234.5,517,234.5z"/>
			<path fill="#BEECD9" d="M528.9,234.5c-1.1,0-2,0.9-2,2s0.9,2,2,2s2-0.9,2-2S530,234.5,528.9,234.5z"/>
		</g>
		<path fill="#BEECD9" d="M507,230h31c0,0-5.9-12.4-14.4-12.4C515,217.6,507,230,507,230z"/>
		
			<polyline fill="none" stroke="#BEECD9" stroke-width="4" stroke-linecap="round" stroke-linejoin="round" stroke-miterlimit="10" points="
			518,243 523.2,242 528,243 		"/>
	</g>
	<g>
		<path fill="#FFFFFF" stroke="#BEECD9" stroke-width="4" stroke-linejoin="round" stroke-miterlimit="10" d="M688,167
			c-9.1,0-16.5,7.4-16.5,16.5S678.9,200,688,200c9.1,0,16.5-7.4,16.5-16.5S697.1,167,688,167z"/>
		<g>
			<path fill="#BEECD9" d="M682,181.5c-1.1,0-2,0.9-2,2s0.9,2,2,2c1.1,0,2-0.9,2-2S683.1,181.5,682,181.5z"/>
			<path fill="#BEECD9" d="M693.9,181.5c-1.1,0-2,0.9-2,2s0.9,2,2,2c1.1,0,2-0.9,2-2S695,181.5,693.9,181.5z"/>
		</g>
		<path fill="none" stroke="#BEECD9" stroke-width="2" stroke-linecap="round" stroke-linejoin="round" stroke-miterlimit="10" d="
			M703,178.9c-1.2-4.2-4.1-7.7-7.9-9.8c0.3-0.7-1.5-0.3-1.4-1c-1.9,0-1.7-0.9-3.4-0.7c-1-0.2-2.1-0.3-3.2-0.3
			c0.1,0.3,0.2,0.5,0.3,0.8c-8.3,1.7-12.9,6.3-14.5,12.6c8.3,0.1,14.2-2.1,18.6-6.2C694.5,177.1,698.6,178.9,703,178.9z"/>
		<path fill="none" stroke="#BEECD9" stroke-width="2" stroke-linecap="round" stroke-linejoin="round" stroke-miterlimit="10" d="
			M684.4,191c0.8,1,2.1,1.7,3.6,1.7s2.7-0.7,3.6-1.7H684.4z"/>
		<g>
			<path fill="none" stroke="#BEECD9" stroke-width="2" stroke-linecap="round" stroke-linejoin="round" stroke-miterlimit="10" d="
				M670.8,180.8L669,200h13C682,200,670.8,194,670.8,180.8z"/>
			<path fill="none" stroke="#BEECD9" stroke-width="2" stroke-linecap="round" stroke-linejoin="round" stroke-miterlimit="10" d="
				M705.2,180.8L707,200h-13C694,200,705.2,194,705.2,180.8z"/>
		</g>
	</g>
</g>
</svg>
