<?xml version="1.0" encoding="utf-8"?>
<!-- Generator: Adobe Illustrator 18.1.1, SVG Export Plug-In . SVG Version: 6.00 Build 0)  -->
<!DOCTYPE svg PUBLIC "-//W3C//DTD SVG 1.1//EN" "http://www.w3.org/Graphics/SVG/1.1/DTD/svg11.dtd">
<svg version="1.1" id="Layer_1" xmlns="http://www.w3.org/2000/svg" xmlns:xlink="http://www.w3.org/1999/xlink" x="0px" y="0px"
	 viewBox="0 0 118.3 134.7" enable-background="new 0 0 118.3 134.7" xml:space="preserve">
<g>
	<path fill="#415556" d="M59.1,90.1C56,89.8,54.8,93,54,95.7c0.1,3.5,1.6,5.7,5,5.7c3.1,0.1,5.1-1.7,5.1-4.8
		C64.2,93.2,62.2,90.4,59.1,90.1z"/>
	<path fill="#415556" d="M112.3,32.6c-15.5-10.1-31-20.2-46.4-30.4c-4.6-3-8.8-3-13.4,0C37,12.5,21.5,22.5,6,32.7C2,35.3,0,39,0,44
		c0.1,15.7,0.1,31.3,0,47c0,4.8,1.8,8.3,5.8,10.9c15.8,10.3,31.5,20.6,47.3,30.9c4.1,2.7,8.1,2.7,12.2,0
		c15.7-10.3,31.5-20.6,47.3-30.9c3.9-2.6,5.9-6.2,5.8-10.9c-0.1-7.8,0-15.7,0-23.5c0-7.8-0.1-15.7,0-23.5
		C118.4,39,116.4,35.3,112.3,32.6z M53.2,20.7c6.6-2.6,14.2-1,18.9,4.1c1.5,1.7,4.5,3.9,1.9,6.2c-2.3,2-5.5,4.2-9,1.8
		c-0.4-0.3-0.8-0.6-1.2-0.9c-3.2-2.3-6.3-2.1-8.9,0.9c-2.2,2.5-2.2,5.2-0.1,7.7c2.6,3,6.1,3.1,8.9,0.7c2.8-2.4,5.1-1.5,7.8-0.5
		c4.1,1.5,4.1,3.7,1.6,6.7C68.6,53,60.9,55.3,54.2,53c-7-2.4-11.8-9-11.8-16.3C42.4,29.7,46.8,23.2,53.2,20.7z M100.6,67.9
		C100.6,67.9,100.6,67.9,100.6,67.9c0,6-0.1,12.8,0,19.3c0.1,4.1-1.9,5.3-5.8,5.3c-3.9-0.1-5.4-1.6-5.4-5.4c0.1-6.2,0-12.4,0-18.5
		c0-3.1-1-3.6-3.5-1.7c-5.2,3.9-10.4,7.8-15.7,11.6c-2.8,2-2.8,3.6-0.3,5.9c3.8,3.6,5.7,8.1,5.3,13.5c-0.6,6.9-5.6,12.8-12.1,14.3
		c-6.9,1.6-13.9-1.2-17.5-6.8c-3.8-6-3.4-13.5,1.1-19.1c4.3-5.4,4.3-5.4-1.2-9.5c-4.3-3.2-8.6-6.4-12.9-9.5c-0.9-0.6-1.8-1.9-3-1.2
		c-1.2,0.7-0.7,2.1-0.7,3.2c-0.1,6-0.1,12,0,18c0.1,3.8-1.6,5.3-5.4,5.3c-3.6,0-5.8-0.9-5.7-4.9c0-13-0.1-26,0-39
		c0-4.4,1.3-4.9,5.1-2.1c10.6,7.8,21.3,15.5,31.7,23.5c3.4,2.6,5.9,2.5,9.2,0c10.2-7.8,20.5-15.4,30.9-23c1.4-1,2.8-3.1,4.7-2
		c1.7,1,1.2,3.5,1.2,5.3C100.7,56,100.6,61.9,100.6,67.9z"/>
</g>
</svg>
