<?xml version="1.0" encoding="utf-8"?>
<!-- Generator: Adobe Illustrator 18.1.1, SVG Export Plug-In . SVG Version: 6.00 Build 0)  -->
<!DOCTYPE svg PUBLIC "-//W3C//DTD SVG 1.1//EN" "http://www.w3.org/Graphics/SVG/1.1/DTD/svg11.dtd">
<svg version="1.1" id="Layer_1" xmlns="http://www.w3.org/2000/svg" xmlns:xlink="http://www.w3.org/1999/xlink" x="0px" y="0px"
	 viewBox="0 0 117 117" enable-background="new 0 0 117 117" xml:space="preserve">
<circle fill="#415556" cx="58.5" cy="58.5" r="58.5"/>
<g>
	<path fill="#FFFFFF" d="M50.2,71c-4.2,3.7-9,5.7-14.5,5.7c-10.7,0-16.1-7.5-16.1-18.2c0-10.6,5.7-18.4,16.4-18.4
		c7.8,0,13.7,4.2,14.2,13.4h-8.7c-0.3-2.8-1.4-5.5-5.4-5.5c-4.4,0-7.2,3.5-7.2,10.5c0,7.1,2.9,10.4,7.7,10.4c4,0,6.9-1.6,9.7-3.8
		L50.2,71z"/>
	<path fill="#FFFFFF" d="M89.2,76.2l-1.9-20.4l-6.2,20.4h-6.9L68,55.7l-1.9,20.5h-8.3l3.4-35.4h9l7.4,23.3l7.7-23.3H94l3.4,35.4
		H89.2z"/>
</g>
</svg>
