<?xml version="1.0" encoding="utf-8"?>
<!-- Generator: Adobe Illustrator 18.1.1, SVG Export Plug-In . SVG Version: 6.00 Build 0)  -->
<!DOCTYPE svg PUBLIC "-//W3C//DTD SVG 1.1//EN" "http://www.w3.org/Graphics/SVG/1.1/DTD/svg11.dtd">
<svg version="1.1" id="Layer_1" xmlns="http://www.w3.org/2000/svg" xmlns:xlink="http://www.w3.org/1999/xlink" x="0px" y="0px"
	 viewBox="0 0 131 131" enable-background="new 0 0 131 131" xml:space="preserve">
<g>
	<circle fill="#C1E4D5" cx="65.5" cy="65.5" r="65.5"/>
	<path fill="#39BA90" d="M65.5,107.2C65.5,107.2,65.4,107.2,65.5,107.2c-1.8,0-3.5-1-4.5-2.4L28.9,59.5v30.8c0,3-2.5,5.5-5.5,5.5
		s-5.5-2.5-5.5-5.5v-48c0-2.4,1.5-4.5,3.8-5.2c2.3-0.7,4.8,0.1,6.2,2.1l37.7,53L105,38.3c1.4-1.9,3.9-2.7,6.1-2
		c2.3,0.7,3.8,2.8,3.8,5.2v48.6c0,3-2.5,5.5-5.5,5.5s-5.5-2.5-5.5-5.5V58.4l-34,46.5C68.9,106.2,67.2,107.2,65.5,107.2z"/>
	<path fill="#39BA90" d="M67.8,62.2c-11.3,0-20.5-9.2-20.5-20.5s9.2-20.5,20.5-20.5c6.1,0,11.8,2.7,15.7,7.3c2,2.3,1.7,5.8-0.7,7.8
		c-2.3,2-5.8,1.7-7.8-0.7c-1.8-2.2-4.5-3.4-7.3-3.4c-5.2,0-9.5,4.3-9.5,9.5s4.3,9.5,9.5,9.5c2.8,0,5.5-1.2,7.3-3.4
		c2-2.3,5.4-2.6,7.8-0.7c2.3,2,2.6,5.4,0.7,7.7C79.5,59.5,73.8,62.2,67.8,62.2z"/>
</g>
</svg>
