<?xml version="1.0" encoding="utf-8"?>
<!-- Generator: Adobe Illustrator 18.1.1, SVG Export Plug-In . SVG Version: 6.00 Build 0)  -->
<!DOCTYPE svg PUBLIC "-//W3C//DTD SVG 1.1//EN" "http://www.w3.org/Graphics/SVG/1.1/DTD/svg11.dtd">
<svg version="1.1" id="Layer_1" xmlns="http://www.w3.org/2000/svg" xmlns:xlink="http://www.w3.org/1999/xlink" x="0px" y="0px"
	 viewBox="0 0 174.5 106.1" enable-background="new 0 0 174.5 106.1" xml:space="preserve">
<g>
	<path fill="#287955" d="M55,68.6c5.5,0,10-2.2,13.5-6.6l7.2,7.4c-5.7,6.4-12.4,9.6-20.2,9.6c-7.8,0-14.1-2.4-19.2-7.3
		c-5-4.9-7.5-11.1-7.5-18.5c0-7.5,2.6-13.7,7.7-18.7c5.1-5,11.4-7.5,18.8-7.5c8.3,0,15.2,3.1,20.7,9.4l-7,7.9
		c-3.6-4.4-8-6.6-13.2-6.6c-4.2,0-7.8,1.4-10.8,4.1c-3,2.8-4.5,6.5-4.5,11.2s1.4,8.4,4.2,11.3C47.5,67.2,51,68.6,55,68.6z"/>
	<path fill="#287955" d="M129.6,46.8L116,74.3h-6.7L95.8,46.8v31.7H84.6V28.2h15.2l13,27.6l13-27.6h15.1v50.3h-11.2V46.8z"/>
</g>
<path fill="#287955" d="M174.5,106.1H0V0h174.5V106.1z M11,95.1h152.5V11H11V95.1z"/>
</svg>
