<?xml version="1.0" encoding="utf-8"?>
<!-- Generator: Adobe Illustrator 18.1.0, SVG Export Plug-In . SVG Version: 6.00 Build 0)  -->
<!DOCTYPE svg PUBLIC "-//W3C//DTD SVG 1.1//EN" "http://www.w3.org/Graphics/SVG/1.1/DTD/svg11.dtd">
<svg version="1.1" id="Layer_1" xmlns="http://www.w3.org/2000/svg" xmlns:xlink="http://www.w3.org/1999/xlink" x="0px" y="0px"
	 viewBox="0 0 117.6 97.1" enable-background="new 0 0 117.6 97.1" xml:space="preserve">
<g>
	<path fill="#F05133" d="M81.7,44.1c-0.2-0.9-0.7-1.6-1.3-2.3l-0.1-0.1c-0.1,0-0.2-0.1-0.3-0.2l-0.1,0l-0.1,0c-0.2,0-0.5,0-0.7,0.1
		l-0.1,0L79,41.6c-0.2,0.1-0.4,0.3-0.6,0.3l-0.1,0l0,0.1c-1.4,2.6-3,5.1-4.6,7.4c-2.2,3.2-4.7,6.1-7.3,8.7
		C60.3,64.4,53,69,44.9,71.9c-6.7,2.4-14.2,3.6-22.2,3.6c-4.2,0-8.6-0.3-13.1-1l5.2-5.6c1.1-1.2,1.8-3.3,1.6-5.3
		c-0.1-0.8-0.6-2.4-1.6-2.4c-0.3,0-0.6,0.2-0.9,0.5L1.4,75.1c-1.4,1.5-2.6,5.6-0.8,7.4L15.7,97c0.2,0.2,0.4,0.3,0.7,0.3
		c0.9,0,1.5-1.2,1.8-2c0.7-1.7,1.2-4.7,0-5.8l-6.6-6.3c3.1,0.3,6.2,0.7,9.2,0.7c0,0,0,0,0,0c17.6,0,33-5.8,44.5-16.3
		c6.5-6,12.1-13.7,16.6-22.6l0-0.1l0-0.1C81.8,44.6,81.8,44.4,81.7,44.1z"/>
	<path fill="#F05133" d="M59.4,22.8C59.4,22.8,59.4,22.8,59.4,22.8c0.2,0,0.4-0.1,0.5-0.4c2.3-5.3,4.7-9.6,6.7-13.1
		c0.5-0.8,0.9-1.6,1.3-2.4c0.8-1.5,1.2-2.7,1.2-3.7c2.1-0.4,4.3-0.7,5.8-0.5c0.4,0,0.6-0.1,0.6-0.2c0.1-0.2,0.1-0.4,0-0.6
		c-0.5-1.3-1.7-1.9-3.6-2c-0.9,0-2.4,0.2-4.2,0.4c-2.4,0.3-5.2,0.7-7,0.6c-0.4,0-0.5,0.1-0.6,0.2c-0.1,0.1-0.1,0.3,0,0.6
		c0.4,1.4,1.9,2.2,4.1,2.2c0.1,0,0.2,0,0.3,0c0.6,0,1.1-0.1,1.7-0.2c-3.4,5.3-7,12.7-7.8,15.4c-0.6,2.2,0.3,3.3,0.5,3.5
		C59,22.7,59.2,22.8,59.4,22.8z"/>
	<path fill="#F05133" d="M92.2,16.1c-0.2,0-0.4,0.1-0.5,0.3c-1.1,1.5-2.9,3.5-5.6,5.1c1.5-3.3,3.4-7.1,4.5-9.2
		c0.9-1.8,0.7-3.5,0.1-4.3c-0.2-0.2-0.3-0.2-0.5-0.2c-0.3,0-0.6,0.3-0.7,0.5c-0.8,1.1-1.6,2.7-2.5,4.4c-0.6,1.1-1.2,2.3-1.8,3.3
		c-2,3.5-3.6,5.2-4.7,5.2l-0.1,0c-0.1,0-0.2-0.1-0.3-0.2c-0.2-0.3-0.2-1.2,0.3-2.6c0.7-1.6,1.4-3.1,2.8-5.2c1.4-2.2,1.6-3.8,0.7-5.1
		c-0.2-0.3-0.4-0.4-0.7-0.4c-0.2,0-0.4,0.1-0.7,0.4c-2.5,3.5-4.2,7.1-4.9,9.2c-0.2,0.5-0.3,1.2-0.4,1.8c-1,1.7-2.2,2.9-3.1,2.9
		c0,0,0,0,0,0c-0.3,0-0.5-0.3-0.6-0.5c-0.4-0.5-0.4-1.6,0-2.7c0.5-1.5,1.8-3.5,3.9-5.9c1.2-1.3,0.2-3.1-0.5-3.9
		c-0.3-0.4-0.7-0.4-1.3,0c-1.2,0.8-2.2,1.3-3.2,1.5c0.4-1.1,1-3.2,0.4-4C72.4,6.2,72.2,6,71.9,6c0,0,0,0,0,0c-1,0-2.7,2.1-3.2,3.8
		c-0.3,1-0.1,1.8,0.5,2.3l-0.4,0.6c-1.4,2-3.3,4.8-4.1,6.2c-1,1.9-1,3.7,0.1,4.9c0.4,0.4,0.9,0.3,1-0.3c0.5-2.4,2.6-6,4.2-8.6
		c0.5-0.8,0.9-1.5,1.2-2.1c0.7,0,1.7-0.2,3-0.7c-1.3,1.6-2.8,3.7-3.5,5.6c-0.5,1.6-0.4,3.1,0.3,4.1c0.6,0.8,1.5,1.3,2.7,1.4l0.1,0
		c1.2,0,2.4-0.6,3.4-1.5c0.4,0.8,1.2,1.2,2.2,1.3c1.1,0.1,2.1-0.3,3.2-1.2c-0.1,0.2-0.2,0.4-0.2,0.5c-0.1,0.3-0.2,0.6-0.4,0.9
		c-4.2,1.7-6.8,4-7.8,6.9c-0.7,2.2,0,3.5,0.8,4.7c0.5,0.7,1,1,1.6,1c0.2,0,0.5-0.1,0.8-0.2c3-1.1,5.4-6.5,7.7-11.8
		c2.7-1.1,5.4-2.5,6.9-4.9c0.6-0.9,0.8-1.8,0.7-2.3C92.6,16.2,92.4,16.1,92.2,16.1z M81.1,25.4c-2.1,4.6-4.4,7.6-4.9,7.7
		c-0.1-0.1-0.1-0.5,0-1.1C76.6,30.1,78.3,27.3,81.1,25.4z"/>
	<path fill="#F05133" d="M106.7,8.6c0.4,0,0.7-0.1,0.9-0.4c0.5-0.6,0.8-1.6,0.3-2.7c-0.4-0.7-1-1.2-1.7-1.2c-0.3,0-0.6,0.1-0.8,0.4
		c-0.7,0.8-0.8,2-0.2,3C105.5,8.3,106.1,8.6,106.7,8.6z"/>
	<path fill="#F05133" d="M117.7,6.9c-0.3-0.5-0.8-1.1-2.1-1.2c0.7-1.6,0.8-2.8,0.3-3.9c-0.1-0.3-0.4-0.5-0.6-0.5
		c-0.2,0-0.4,0.1-0.7,0.4c-0.5,0.7-1.4,2.1-2.7,4.4c-1.1,0.1-2,0.2-2.8,0.1c-0.5,0-0.7,0.2-0.8,0.3c-0.1,0.2-0.1,0.5,0.2,0.8
		c0.3,0.5,1.1,0.9,2.1,1c-1.5,2.8-2.9,5.7-3.6,7.3c-0.1,0.2-0.2,0.5-0.3,0.7c0,0-0.1,0.1-0.1,0.2c-1.2,2.7-3.1,4.7-4.5,4.8l-0.1,0
		c-0.2,0-0.4-0.1-0.5-0.2c-0.3-0.4-0.1-1.5,0.4-2.9c0.4-1,1.1-2.3,1.8-3.5c0.5-0.8,0.9-1.6,1.2-2.3c0.9-1.8,0.7-3.5,0-4.2
		c-0.2-0.2-0.3-0.3-0.5-0.3c-0.3,0-0.6,0.3-0.7,0.5c-1.3,1.8-3.7,6.1-4.6,8.8c-0.6,1.9-0.6,3.5,0.1,4.5c0.5,0.7,1.4,1.1,2.5,1.1
		c1.7,0,3.5-1,4.8-2.6c0.5,1.5,1.7,2.5,3.2,2.6l0.2,0c2.9,0,5.3-3.2,5.8-4.3c0.4-0.9,0.6-1.6,0.4-2.3c-0.1-0.3-0.3-0.6-0.6-0.6
		c-0.3,0-0.5,0.1-0.6,0.4c-1.5,3-3.4,4.8-4.8,4.8c0,0,0,0,0,0c-0.4,0-0.7,0.1-0.9-0.3c-0.5-0.8-0.4-2.2,0.4-3.8
		c1.3-2.9,3.2-6.2,4.6-8.6l0.1-0.2c0.7-0.1,1.8-0.2,2.7-0.1c0.4,0,0.6-0.1,0.7-0.3C117.9,7.5,117.9,7.2,117.7,6.9z"/>
</g>
</svg>
