<?xml version="1.0" encoding="utf-8"?>
<!-- Generator: Adobe Illustrator 18.1.0, SVG Export Plug-In . SVG Version: 6.00 Build 0)  -->
<!DOCTYPE svg PUBLIC "-//W3C//DTD SVG 1.1//EN" "http://www.w3.org/Graphics/SVG/1.1/DTD/svg11.dtd">
<svg version="1.1" id="Layer_1" xmlns="http://www.w3.org/2000/svg" xmlns:xlink="http://www.w3.org/1999/xlink" x="0px" y="0px"
	 viewBox="240 0 800 800" enable-background="new 240 0 800 800" xml:space="preserve">
<g>
	<g>
		<path fill="#F4F2CA" d="M640.2,366.3c-18.6,0-33.8,15.2-33.8,33.8c0,18.6,15.2,33.8,33.8,33.8s33.8-15.2,33.8-33.8
			C673.7,381.2,658.8,366.3,640.2,366.3z M640.2,423.2c-12.6,0-23.1-10.4-23.1-23.1s10.4-23.1,23.1-23.1s23.1,10.4,23.1,23.1
			S652.8,423.2,640.2,423.2z"/>
		<path fill="#F4F2CA" d="M735,57.3C555.4,7.4,365.3,105.6,304,284.1c-64,186,34.6,387.9,220.2,451.9S912.1,701.4,976,515.5
			c61.4-178.5-27.5-372.7-200.1-444.1c1.5-10.4-4.8-20.5-14.9-23.8C751,44.3,740.2,48.7,735,57.3z M966.4,512.1
			c-62.1,180-258.5,276-438.5,213.9c-180.4-61.7-276-258.1-213.9-438.1c59.5-173.3,243.6-268.5,418-220.2c-0.7,9.7,5.2,19,14.9,22.3
			c9.7,3.3,20.1-0.4,25.7-8.6C939.6,150.6,1025.9,339.2,966.4,512.1z M765.5,67.3c0.4,1.9,0,3.3-0.4,5.2c-0.7,1.9-1.9,3.3-3,4.8
			c-3,3-7.4,4.1-11.5,2.6c-4.1-1.5-7.1-5.2-7.8-9.3c-0.4-1.9-0.4-3.7,0.4-5.6c0.7-1.9,1.5-3.3,3-4.5c3-3,7.8-4.5,11.9-2.6
			C762.2,59.5,765.2,63.2,765.5,67.3z"/>
		<path fill="#F4F2CA" d="M340.8,505.8c55,156.2,222,245.1,383.8,200.1C893.5,659,992.4,484.2,945.5,315.4
			C898.7,146.5,723.9,47.6,555,94.5c-161.8,44.6-259.2,207.2-225.8,368.9c-9.3,4.8-14.1,15.2-11.2,25.7
			C320.7,499.9,330.4,506.2,340.8,505.8z M558,104.1C721.3,58.8,890.5,154.3,935.9,318c45.4,163.3-50.2,332.5-213.9,377.5
			C565.8,739,404,653.1,350.8,502.1c8.2-5.2,12.6-15.2,10-24.9c-2.6-9.7-11.5-16.4-21.6-16.4C307.3,304.6,401.8,147.7,558,104.1z
			 M331.5,474.6c1.1-1.1,2.6-1.9,4.5-2.6c1.9-0.4,3.7-0.4,5.6,0c4.1,0.7,7.4,4.1,8.6,8.2c1.1,4.1-0.4,8.6-3.3,11.5
			c-1.5,1.1-3,2.2-4.8,3c-1.9,0.4-3.3,0.4-5.2,0.4c-4.1-0.7-7.8-3.7-9.3-8.2C327,482,328.5,477.5,331.5,474.6z"/>
		<path fill="#F4F2CA" d="M458.7,612.2c109.7,94.1,274.8,88.9,379-14.9c109-109,109-286,0-395s-286-109-395,0
			c-103.8,103.8-108.6,269.3-14.9,379c-6,8.6-4.8,20.5,3,28.3C438.2,617,450.1,618.1,458.7,612.2z M450.1,210.1
			c104.9-104.9,275.2-104.9,380.1,0s104.9,275.2,0,380.1c-100,100-258.9,104.5-364.1,14.5c4.8-8.6,3.3-19.3-3.7-26.8
			c-7.1-7.1-18.2-8.6-26.8-3.7C345.3,468.6,350.1,309.8,450.1,210.1z M435.3,589.9c0.4-1.5,1.5-3,2.6-4.5c1.5-1.5,3-2.2,4.8-3
			c4.1-1.1,8.6-0.4,11.5,3c3,3,4.1,7.8,3,11.5c-0.4,1.9-1.5,3.3-3,4.8c-1.1,1.1-3,2.2-4.5,2.6c-4.1,1.5-8.9,0.4-11.9-2.6
			S433.8,594,435.3,589.9z"/>
		<path fill="#F4F2CA" d="M825.4,554.2c79.2-94.8,74.4-235.8-14.9-324.7c-94.1-94.1-247-94.1-341.1,0s-94.1,247,0,341.1
			c88.9,88.9,230.2,93.7,324.7,14.9c8.6,6,20.5,5.2,28.3-2.6C830.2,575,831.4,563.1,825.4,554.2z M476.9,563.1
			c-90-90-90-236.2,0-326.2s236.2-90,326.2,0c84.8,84.8,89.6,219.8,14.5,310.2c-8.6-4.5-19.3-3.3-26.4,3.7
			c-7.1,7.1-8.6,17.9-3.7,26.4C696.7,652.7,562.1,648.3,476.9,563.1z M803.1,578c-1.5-0.7-3-1.5-4.5-2.6c-1.5-1.5-2.2-3.3-3-4.8
			c-1.1-4.1-0.4-8.2,3-11.5c3-3,7.4-4.1,11.5-3c1.9,0.4,3.7,1.5,4.8,3c1.1,1.1,2.2,2.6,2.6,4.5c1.5,4.1,0.7,8.9-2.6,12.3
			C811.6,578.3,807.2,579.5,803.1,578z"/>
		<path fill="#F4F2CA" d="M767.4,241.7c-79.6-64.3-196.7-59.5-271.1,14.5c-79.2,79.2-79.2,207.9,0,287.1s207.9,79.2,287.1,0
			c74-74,78.8-191.2,14.5-271.1c6-8.6,5.2-20.5-2.6-28.3C787.8,236.5,775.9,235.8,767.4,241.7z M776.3,536.3
			c-75.1,75.1-197.1,75.1-272.2,0s-75.1-197.1,0-272.2c70.3-70.3,180.8-74.8,256.3-14.1c-4.5,8.6-3.3,19.3,3.7,26.4
			c7.1,7.1,17.9,8.6,26.4,3.7C851.1,355.6,846.2,466,776.3,536.3z M790.8,264.1c-0.4,1.5-1.5,3-2.6,4.5c-1.5,1.5-3,2.2-4.8,3
			c-4.1,1.1-8.6,0.4-11.5-3c-3-3-4.1-7.4-3-11.5c0.4-1.9,1.5-3.3,3-4.8c1.1-1.1,3-2.2,4.5-2.6c4.1-1.5,8.9-0.4,11.9,2.6
			C791.6,255.1,792.3,260,790.8,264.1z"/>
		<path fill="#F4F2CA" d="M661.8,563.8c80.7-10.8,143.2-80,143.2-163.6c0-91.1-74-165.1-165.1-165.1c-91.1,0-164.8,73.6-164.8,165.1
			c0,83.7,62.5,152.9,143.2,163.6c1.9,10.4,10.8,18.2,21.9,18.2C651,582.1,659.9,574.2,661.8,563.8z M485.5,400.2
			c0-85.5,69.2-154.7,154.7-154.7c85.2,0,154.3,69.2,154.3,154.3c0,78.1-58,142.8-133.1,152.9c-3-8.9-11.2-15.6-21.2-15.6
			s-18.6,6.7-21.2,15.6C543.5,542.6,485.5,478.3,485.5,400.2z M629.8,564.9c-0.7-1.5-1.1-3.3-1.1-5.2c0-1.9,0.4-3.7,1.5-5.6
			c1.9-3.7,6-6,10-6c4.5,0,8.2,2.6,10,6c0.7,1.5,1.5,3.3,1.5,5.6c0,1.9-0.4,3.7-1.1,5.2c-1.9,3.7-6,6.3-10.4,6.3
			C635.4,571.3,631.6,568.7,629.8,564.9z"/>
		<path fill="#F4F2CA" d="M596.7,519.2c56.9,20.8,122-1.5,153.2-55.8c35-60.6,14.1-138.4-46.5-173.3c-60.6-35-138.4-14.1-173.3,46.5
			c-31.2,54.3-17.9,121.6,28.3,160.7c-4.1,10,0,21.9,9.7,27.5S590,527.8,596.7,519.2z M539.4,341.8c32-55.8,103.4-74.8,159.2-42.8
			c55.8,32,74.8,103.4,42.8,158.8c-29,49.8-88.1,70.3-140.2,51.7c1.9-8.9-2.2-18.6-10.8-23.8c-8.6-4.8-19-3.7-25.7,2.6
			C522.7,453,510.8,391.3,539.4,341.8z M567.7,504.3c0-1.5,0.7-3.3,1.5-4.8c1.1-1.9,2.6-3.3,4.1-4.1c3.3-2.2,7.8-2.2,11.5,0
			c3.7,2.2,6,6,5.6,10c0,1.9-0.4,3.7-1.5,5.6c-0.7,1.5-1.9,2.6-3.3,3.7c-3.7,2.6-8.6,3-12.6,0.7
			C569.5,512.9,567.3,508.4,567.7,504.3z"/>
		<path fill="#F4F2CA" d="M727.2,416.2c7.4-39.1-12.3-79.2-49.8-96.7c-44.3-20.8-97.1-1.5-117.9,42.8s-1.5,97.4,42.8,117.9
			c37.6,17.5,81.1,6.7,106-24.2c10.8,3.7,22.3-1.1,27.2-11.5C740.6,434.4,736.9,422.1,727.2,416.2z M607.1,470.9
			c-39.1-18.2-56.2-64.7-37.9-104.1c18.2-39.1,64.7-56.2,104.1-37.9c32.7,15.2,49.8,50.2,43.9,84.1c-8.9-0.7-17.5,4.1-21.6,12.6
			s-2.2,18.2,4.1,24.9C677.4,476.8,639.4,486.1,607.1,470.9z M715.3,447c-1.5,0-3-0.4-4.5-1.1c-1.9-0.7-3.7-2.2-4.8-4.1
			c-2.2-3.3-2.6-7.4-1.1-11.5c1.9-3.7,5.6-6.3,9.3-6.7c1.9-0.4,4.1,0,6,1.1c1.5,0.7,2.6,1.5,3.7,3c3,3.3,3.7,8.2,1.9,12.6
			C724.2,444.4,719.8,447,715.3,447z"/>
	</g>
</g>
</svg>
